<?xml version="1.0" ?><!DOCTYPE svg  PUBLIC '-//W3C//DTD SVG 1.1//EN'  'http://www.w3.org/Graphics/SVG/1.1/DTD/svg11.dtd'><svg enable-background="new 0 0 512 512" height="512px" id="Layer_1" version="1.1" viewBox="0 0 512 512" width="512px" xml:space="preserve" xmlns="http://www.w3.org/2000/svg" xmlns:xlink="http://www.w3.org/1999/xlink"><g><path d="M437.018,74.985C390.661,28.631,326.734,0,256.003,0C185.266,0,121.34,28.631,74.993,74.985   C28.631,121.337,0,185.266,0,255.998c0,70.734,28.631,134.663,74.993,181.012C121.34,483.367,185.266,512,256.003,512   c70.731,0,134.658-28.633,181.015-74.99C483.369,390.661,512,326.732,512,255.998C512,185.266,483.369,121.337,437.018,74.985z"/><path clip-rule="evenodd" d="M140.475,258.408v113.116h53.864v-122.33v-31.751h-53.864V258.408   z M370.254,264.787c-3.549-29.201-16.867-47.344-56.277-47.344c-23.107,0-38.698,8.507-45.216,20.839h-0.712v-20.839h-42.954   v29.623v124.458h44.938v-76.399c0-20.134,3.969-39.549,28.641-39.549c24.8,0,26.637,22.961,26.637,40.962v74.986h46.216V286.9   C371.526,278.962,371.098,271.593,370.254,264.787L370.254,264.787z M167.409,140.472c-14.884,0-26.935,12.049-26.935,26.935   s12.051,26.933,26.935,26.933c14.883,0,26.93-12.047,26.93-26.933S182.292,140.472,167.409,140.472L167.409,140.472z" fill="#FFFFFF" fill-rule="evenodd"/></g></svg>