<?xml version="1.0" encoding="UTF-8"?>
<svg id="Layer_1" data-name="Layer 1" xmlns="http://www.w3.org/2000/svg" viewBox="0 0 276.99 292.31">
  <defs>
    <style>
      .cls-1, .cls-2, .cls-3, .cls-4, .cls-5, .cls-6, .cls-7, .cls-8, .cls-9, .cls-10, .cls-11, .cls-12, .cls-13 {
        stroke-linecap: round;
        stroke-linejoin: round;
      }

      .cls-1, .cls-2, .cls-3, .cls-4, .cls-6, .cls-7, .cls-8, .cls-9, .cls-10, .cls-11, .cls-12, .cls-13 {
        stroke: #263238;
      }

      .cls-1, .cls-14 {
        fill: #c30e59;
      }

      .cls-2 {
        stroke-width: 1px;
      }

      .cls-2, .cls-6, .cls-7, .cls-13 {
        fill: #fff;
      }

      .cls-15 {
        isolation: isolate;
        opacity: .31;
      }

      .cls-3 {
        fill: #ccc;
      }

      .cls-4 {
        fill: #a1a1a1;
      }

      .cls-5 {
        stroke: #828282;
      }

      .cls-5, .cls-10, .cls-11 {
        fill: none;
      }

      .cls-6 {
        stroke-width: 1px;
      }

      .cls-8 {
        fill: #5a3d5c;
      }

      .cls-9 {
        fill: #f638dc;
      }

      .cls-10 {
        stroke-width: 2px;
      }

      .cls-12, .cls-16 {
        fill: #263238;
      }

      .cls-13 {
        stroke-width: 1px;
      }
    </style>
  </defs>
  <ellipse id="Ellipse_11" data-name="Ellipse 11" class="cls-15" cx="138.5" cy="275.35" rx="138.5" ry="16.95"/>
  <g id="Group_75" data-name="Group 75">
    <path id="Path_175" data-name="Path 175" class="cls-7" d="m96.03,259.77s8.78,10.38,9.38,11.97-2.2,6.18-3.39,7.18-5.79,4.59-8.19,6.58-3.79,3.99-.4,4.79,11.97,1,15.57-.4,4.99-3.59,5.99-7.18c.96-2.96,2.16-5.83,3.59-8.58.8-1.8,4.19-2.79,2.6-7.38s-6.79-6.39-7.58-7.18c-1.38-1.6-2.58-3.34-3.59-5.19-.4-1-13.97,5.39-13.97,5.39h0Z"/>
    <path id="Path_176" data-name="Path 176" class="cls-7" d="m117.56,262.1c-.04,1.5-.23,3-.58,4.46-.8,2.99-6.39,13.97-8.38,13.97s-6.58-1.6-6.58-1.6c-1.2,1-5.79,4.59-8.19,6.58s-3.79,3.99-.4,4.79,11.97,1,15.57-.4,4.99-3.59,5.99-7.18c.96-2.96,2.16-5.83,3.59-8.58.8-1.8,4.19-2.79,2.6-7.38-.71-1.88-1.97-3.5-3.61-4.66h0Z"/>
  </g>
  <g id="Group_76" data-name="Group 76">
    <path id="Path_177" data-name="Path 177" class="cls-7" d="m205.49,242.71c-.6-2.39-2.39-4.79-4.19-3.79s-15.36,13.73-15.36,13.73l10.77,6.03s-.2,3.19-.4,4.19c-.1.53.04.97-.17,2.41-.27.02-.81,1.05-.87,1.11-.5.62-2.35,2.23-2.23,4.45s3.95,2.35,6.55,2.35,6.92-1.48,7.54-2.47c.14-.25.24-.53.29-.82.14-.26.23-.55.25-.85.2-2.79-1.6-23.95-2.2-26.34h.01Z"/>
    <path id="Path_178" data-name="Path 178" class="cls-7" d="m201.3,238.92c-1.39,1.01-2.72,2.11-3.98,3.29,1.16-.13,3.86-.22,5.01,1.31,1.48,1.98,1.48,8.65,1.48,13.6s.24,7.66-1.24,8.28-6.43-.13-6.43-.13c-.27.02-.81,1.05-.87,1.11-.5.62-2.35,2.23-2.23,4.45s3.95,2.35,6.55,2.35,6.92-1.48,7.54-2.47c.14-.25.24-.53.29-.82.14-.26.23-.55.25-.85.2-2.79-1.6-23.95-2.2-26.34s-2.39-4.79-4.19-3.79h.01Z"/>
    <line id="Line_93" data-name="Line 93" class="cls-11" x1="196.71" y1="258.68" x2="200.49" y2="251.3"/>
  </g>
  <path id="Path_179" data-name="Path 179" class="cls-8" d="m118.95,184.48l-5.02,10.4s-19.63-6.16-32.19-6.16-22.38.45-23.97,7.99,5.71,18.49,10.5,26.48,23.97,33.55,23.97,33.55c0,0,8.22-4.11,11.19-6.16l2.97-2.06-9.13-21.23s12.1,7.76,24.43,6.39,17.12-3.2,17.12-3.2c0,0,8.45,49.77,10.5,52.51s5.93,5.02,9.13,4.34c2.22-.53,4.39-1.26,6.47-2.2,0,0,12.38-.58,21.82-12.9,3.72-4.86,7.64-11.37,7.64-11.37l-8.45-8.22-17.49,8.56s9.26-26.78,9.87-30.95c2.39-16.47.92-23.29-2.28-34.93-2.1-7.33-5.4-14.26-9.75-20.52l-44.81,5.45-2.51,4.21.02.02Z"/>
  <line id="Line_94" data-name="Line 94" class="cls-5" x1="97.49" y1="225.24" x2="89.04" y2="201.95"/>
  <path id="Path_180" data-name="Path 180" class="cls-7" d="m104.57,243.96c-2.03,2.76-4.8,4.9-7.99,6.16-2.85,1.08-5.86,1.69-8.91,1.83-.39.89-.31,1.93.23,2.74.92,1.37,3.88,5.02,5.48,5.93s7.3.23,10.96-1.37,6.85-5.48,6.85-6.85-4.57-8.91-4.57-8.91c0,0-.69-1.6-2.06.45h0Z"/>
  <line id="Line_95" data-name="Line 95" class="cls-5" x1="167.97" y1="263.56" x2="161.89" y2="282.32"/>
  <path id="Path_181" data-name="Path 181" class="cls-5" d="m138.14,228.24s-1.8-9.78-5.79-16.17-6.18-8.38-6.18-8.38"/>
  <path id="Path_182" data-name="Path 182" class="cls-7" d="m179.93,255.34s6.57,3.28,8.21,5.63c1.19,1.91,2.14,3.96,2.81,6.1,0,0,0,1.17,2.11-1.88s4.7-3.52,5.39-6.33-3.28-6.1-6.33-8.21-3.99-1.88-5.16-.94-6.33,3.75-7.04,5.63h0Z"/>
  <path id="Path_183" data-name="Path 183" class="cls-1" d="m166.43,118.32c-1.8-.93-3.67-1.72-5.59-2.38-6.88-2.34-14.68-2.67-21.91-2.45l-44.99,4c-5.41.49-11.15,2.79-16.64,3.71-5.7.96-12.88-.58-18.53.55l-16.09-16.77s-3.6,5.42-7.59,5.21c2.73,4.62,4.18,8.04,6.96,12.64,1.93,3.19,3.88,6.39,5.88,9.54,2.04,3.21,2.69,4.52,6.68,5.3,7.55,1.48,12.78,3.81,20.47,3.97,8.2.17,16.34-1.2,24.52-1.48,0,0,5.67,6.67,5.67,8.33s-2.04,13.76-1,17.33c1.26,4.33,2.91,6.35,5.58,7.35,2.2.73,4.47,1.28,6.76,1.64l2.33,9.66c9.24,3.5,19.2,4.65,28.99,3.33,15.66-2.33,18.33-13,18.33-13,0,0-8.68-3.46-6.02-31.07.7.04,15.43,4.98,16.11,4.95,5.32-.27,3.84-2.81,3.84-2.81,0,0,1.32-16.74,1.33-16.75.31-.66-8.19-6.6-9.19-7.28-1.89-1.29-3.86-2.47-5.89-3.52h0Z"/>
  <path id="Path_184" data-name="Path 184" class="cls-9" d="m58.8,121.76s-4.09,1.04-3.62,8.02"/>
  <path id="Path_185" data-name="Path 185" class="cls-9" d="m52.34,126.87s.67,4.21,2.48,6.26"/>
  <path id="Path_186" data-name="Path 186" class="cls-14" d="m153.86,167.13c-2.15,6.47-8.19,7.33-12.29,6.69s-9.06-2.81-13.37-2.59c-2.64.15-5.22.89-7.55,2.15,0,0,7.54-.86,11.15.94s11.42,4.53,16.27,2.73,5.8-9.93,5.8-9.93h0Z"/>
  <path id="Path_187" data-name="Path 187" class="cls-9" d="m99.62,140.15l-4.62-3.96,1.1,4.02,3.51-.06Z"/>
  <path id="Path_188" data-name="Path 188" class="cls-11" d="m151.73,135.77s3.32,6.82,7.55,7.91"/>
  <path id="Path_189" data-name="Path 189" class="cls-11" d="m151.2,141.35s2.9,3.52,5.85,4.25"/>
  <g id="Group_78" data-name="Group 78">
    <path id="Path_190" data-name="Path 190" class="cls-7" d="m35.11,110.19l-4.51-9s-9.25-5.66-13.13-7.57-2.25-.74-4.02-1.45c-2.23-.9-5.95-7.66-5.7-8.83.13-.64.15-1.01,4.01,3.34,1.27,1.43,7.12,3.02,7.12,3.02,0,0-5.33-4.35-6.77-6.45s-2.59-4.47-.9-4.09c.46.1,2.31,1.9,4.6,4.26,1.17.97,2.47,1.78,3.85,2.41,0,0-5.47-7.7-5.29-8.63s2.18.6,4,2.32,5.58,6.23,6.03,6.37,6.55,2.92,6.55,2.92c0,0-1.92-3.27-2.12-5.33s.93-2.82,1.88-2.64.38,3.39,1.85,5c1.47,1.61,2.95,3.98,2.95,5.86s.05,3.02.05,3.02l7.14,10.27s-2.48,6.4-7.59,5.21v-.02Z"/>
    <path id="Path_191" data-name="Path 191" class="cls-7" d="m28.77,98.47s-10.42-2.57-11.82-3.65-3.4-6.01-4.38-7.21-.98-1.95.26-1.54c1.58.8,2.95,1.94,4.03,3.34.98,1.2,3.28,3.34,3.28,3.34,0,0,4.86-1.24,7.49-.5"/>
  </g>
  <path id="Path_192" data-name="Path 192" class="cls-1" d="m171.51,146.13c1.04,1.65,2.88,2.62,4.83,2.55,6.53.31,11.85-4.07,14.48-7.14,1.6-1.86,13.76-18.32,19.53-26.56l-7.29-6.02c-4.75,3.53-9.95,6.7-14.18,9.87-6.14,4.6-13.96,12.68-16.62,17.38"/>
  <g id="Group_79" data-name="Group 79">
    <path id="Path_193" data-name="Path 193" class="cls-7" d="m209.66,116.18l5.83-7.55s10.73-1.55,15.05-1.77,2.36.21,4.27.26c2.41.06,8.49-4.7,8.72-5.86.13-.64.26-.99-5,1.49-1.72.81-7.74-.04-7.74-.04,0,0,6.61-1.89,8.76-3.26s4.14-3.09,2.44-3.41c-.46-.08-2.87.83-5.9,2.1-1.46.42-2.97.66-4.48.7,0,0,8.07-4.91,8.27-5.85s-2.24-.32-4.58.55-7.58,3.52-8.06,3.48-7.17.09-7.17.09c0,0,3.06-2.24,4.05-4.07s.26-2.96-.68-3.16-1.69,2.96-3.68,3.85-4.27,2.49-5.02,4.22-1.24,2.76-1.24,2.76l-10.42,8.26s1.43,6.28,6.6,7.21h0Z"/>
    <path id="Path_194" data-name="Path 194" class="cls-7" d="m218.25,106.86s10.59,1.76,12.3,1.31,5.5-4.18,6.87-4.89,1.67-1.41.37-1.52c-1.76.11-3.48.62-5.02,1.48-1.38.71-4.33,1.77-4.33,1.77,0,0-3.97-3.06-6.69-3.41"/>
  </g>
  <g id="Group_80" data-name="Group 80">
    <path id="Path_195" data-name="Path 195" class="cls-12" d="m131.51,113.62c-21.98.11-43.92-1.79-65.55-5.68-39.01-7.24-58.82-18.65-59.65-19.13l2.83-4.84c.2.11,20.02,11.49,58.19,18.52,35.25,6.5,93.8,10.52,172.54-7.21l1.23,5.46c-42.45,9.56-79.14,12.87-109.58,12.87h-.01Z"/>
    <path id="Path_196" data-name="Path 196" class="cls-4" d="m249.58,82.11c-74.76,16.84-130.35,13.01-163.82,6.84-36.24-6.68-55.06-17.48-55.25-17.59l-21.38,12.62c.2.11,20.02,11.49,58.19,18.52,35.25,6.5,93.8,10.52,172.54-7.21l4.62-6.63c2.08-.44,4.16-.9,6.28-1.36l-1.17-5.18h0Z"/>
    <path id="Path_197" data-name="Path 197" class="cls-3" d="m239.86,95.3l9.73-13.19,1.17,5.18-9.66,13.46-1.23-5.46Z"/>
  </g>
  <g id="Group_82" data-name="Group 82">
    <g id="Group_81" data-name="Group 81">
      <path id="Path_198" data-name="Path 198" class="cls-7" d="m46.88,29.8l2.17,3.36c.52-.4,1.06-.77,1.62-1.11l-2.34-3.19c.28-.38.64-1.08.42-1.4-.34-.49-1.32-.4-2.2.2s-1.32,1.5-.98,1.99c.2.29.91.23,1.31.15h0Z"/>
      <path id="Path_199" data-name="Path 199" class="cls-7" d="m37.63,38.05l5.57,2.85c.28-.7.6-1.39.96-2.05l-5.67-2.5c.06-.51.02-1.39-.37-1.57-.6-.28-1.48.35-1.99,1.41s-.43,2.15.16,2.43c.35.17.99-.28,1.33-.57h0Z"/>
      <path id="Path_200" data-name="Path 200" class="cls-7" d="m38.03,50.45l4-.2c-.04-.32-.1-.64-.13-.97s-.02-.65-.03-.98l-3.94.43c-.19-.43-.62-1.1-1-1.06-.6.05-1.01.94-.92,2.01s.64,1.89,1.23,1.84c.35-.03.66-.67.78-1.06h0Z"/>
      <path id="Path_201" data-name="Path 201" class="cls-7" d="m57.43,23.25l.32,6.25c.37-.06.74-.12,1.13-.15s.76-.03,1.13-.04l-.68-6.17c.48-.2,1.21-.67,1.18-1.11-.05-.66-1.04-1.11-2.21-1.01s-2.07.7-2.02,1.36c.03.39.74.72,1.16.86h0Z"/>
      <path id="Path_202" data-name="Path 202" class="cls-7" d="m67.38,30.7c.6.25,1.2.53,1.77.84l1.59-3.62c.47.06,1.26.02,1.43-.34.26-.54-.32-1.35-1.28-1.81s-1.95-.39-2.21.15c-.15.32.25.9.52,1.2l-1.82,3.56h0Z"/>
      <path id="Path_203" data-name="Path 203" class="cls-7" d="m74.9,36.39c.46.6.88,1.22,1.27,1.87l5-3.67c.41.31,1.19.71,1.54.46.54-.37.44-1.46-.22-2.42s-1.64-1.45-2.18-1.07c-.32.22-.26,1-.17,1.43l-5.24,3.39h0Z"/>
      <path id="Path_204" data-name="Path 204" class="cls-7" d="m83.45,44.09c-.35.03-.66.67-.78,1.06l-4,.2c.04.32.1.64.13.97s.02.65.03.98l3.94-.43c.19.43.62,1.1,1,1.06.6-.05,1.01-.95.92-2.01s-.64-1.89-1.23-1.84h0Z"/>
      <path id="Path_205" data-name="Path 205" class="cls-7" d="m83.06,57.54l-5.57-2.85c-.28.7-.6,1.39-.96,2.05l5.67,2.5c-.06.51-.02,1.39.37,1.57.6.28,1.48-.35,1.99-1.41s.43-2.15-.16-2.43c-.35-.17-.99.28-1.33.57h0Z"/>
      <path id="Path_206" data-name="Path 206" class="cls-7" d="m73.81,65.8l-2.17-3.36c-.52.4-1.06.77-1.62,1.11l2.34,3.19c-.28.38-.64,1.08-.42,1.4.34.49,1.32.4,2.2-.2s1.32-1.5.98-1.99c-.2-.29-.91-.23-1.31-.15h0Z"/>
      <path id="Path_207" data-name="Path 207" class="cls-7" d="m45.78,59.21c-.46-.6-.88-1.22-1.27-1.87l-5,3.67c-.41-.31-1.19-.71-1.54-.46-.54.37-.44,1.46.22,2.42s1.64,1.45,2.18,1.07c.32-.22.26-1,.17-1.43l5.24-3.39h0Z"/>
      <path id="Path_208" data-name="Path 208" class="cls-7" d="m63.26,72.35l-.32-6.26c-.37.06-.74.12-1.13.15s-.76.03-1.13.04l.68,6.17c-.48.2-1.21.67-1.18,1.1.05.66,1.04,1.11,2.21,1.01s2.08-.7,2.02-1.36c-.03-.38-.74-.72-1.16-.86h0Z"/>
      <path id="Path_209" data-name="Path 209" class="cls-7" d="m53.31,64.89c-.6-.25-1.2-.53-1.77-.84l-1.59,3.62c-.47-.06-1.26-.02-1.43.34-.26.54.32,1.35,1.28,1.8s1.95.39,2.21-.15c.15-.32-.25-.9-.52-1.2l1.82-3.56h0Z"/>
    </g>
    <path id="Path_210" data-name="Path 210" class="cls-7" d="m78.79,46.32c-.82-10.18-9.73-17.78-19.92-16.96-10.18.82-17.78,9.73-16.96,19.92.82,10.18,9.73,17.78,19.91,16.96,10.18-.81,17.78-9.73,16.97-19.92,0,0,0,0,0,0Z"/>
    <path id="Path_211" data-name="Path 211" class="cls-7" d="m60.65,33.6c.13,1.05-.6,2-1.65,2.14-1.05.13-2-.6-2.14-1.65-.13-1.05.6-2,1.65-2.14.03,0,.06,0,.09,0,1.02-.11,1.94.64,2.04,1.66Z"/>
    <path id="Path_212" data-name="Path 212" class="cls-7" d="m50.35,49.14c.13,1.05-.6,2-1.65,2.14-1.05.13-2-.6-2.14-1.65-.13-1.05.6-2,1.65-2.14.03,0,.06,0,.09,0,1.02-.11,1.94.64,2.04,1.66Z"/>
    <path id="Path_213" data-name="Path 213" class="cls-7" d="m58.48,43.76c.13,1.05-.6,2-1.65,2.14-1.05.13-2-.6-2.14-1.65-.13-1.05.6-2,1.65-2.14.03,0,.06,0,.09,0,1.02-.11,1.94.64,2.04,1.66Z"/>
    <path id="Path_214" data-name="Path 214" class="cls-7" d="m55.31,59.85c.13,1.05-.6,2-1.65,2.14-1.05.13-2-.6-2.14-1.65-.13-1.05.6-2,1.65-2.14.03,0,.06,0,.09,0,1.02-.11,1.94.64,2.04,1.66Z"/>
    <path id="Path_215" data-name="Path 215" class="cls-7" d="m75.4,50.6c.13,1.05-.6,2-1.65,2.14-1.05.13-2-.6-2.14-1.65s.6-2,1.65-2.14c.03,0,.06,0,.09,0,1.02-.11,1.94.64,2.04,1.66Z"/>
    <path id="Path_216" data-name="Path 216" class="cls-7" d="m62.01,54.15c.13,1.05-.6,2-1.65,2.14-1.05.13-2-.6-2.14-1.65-.13-1.05.6-2,1.65-2.14.03,0,.06,0,.09,0,1.02-.11,1.94.64,2.04,1.66Z"/>
    <path id="Path_217" data-name="Path 217" class="cls-7" d="m67.58,46.43c.13,1.05-.6,2-1.65,2.14-1.05.13-2-.6-2.14-1.65-.13-1.05.6-2,1.65-2.14.03,0,.06,0,.09,0,1.02-.11,1.94.64,2.04,1.66Z"/>
    <path id="Path_218" data-name="Path 218" class="cls-7" d="m71.49,37.64c.13,1.05-.6,2-1.65,2.14-1.05.13-2-.6-2.14-1.65-.13-1.05.6-2,1.65-2.14.03,0,.06,0,.09,0,1.02-.11,1.94.64,2.04,1.66Z"/>
    <path id="Path_219" data-name="Path 219" class="cls-7" d="m68.85,59.67c.13,1.05-.6,2-1.65,2.14-1.05.13-2-.6-2.14-1.65-.13-1.05.6-2,1.65-2.14.03,0,.06,0,.09,0,1.02-.11,1.94.64,2.04,1.66Z"/>
    <path id="Path_220" data-name="Path 220" class="cls-7" d="m51.43,37.59c.13,1.05-.6,2-1.65,2.14-1.05.13-2-.6-2.14-1.65-.13-1.05.6-2,1.65-2.14.03,0,.06,0,.09,0,1.02-.11,1.94.64,2.04,1.66Z"/>
  </g>
  <g id="Group_84" data-name="Group 84">
    <circle id="Ellipse_12" data-name="Ellipse 12" class="cls-16" cx="110.81" cy="40.57" r="40.57"/>
    <path id="Path_221" data-name="Path 221" class="cls-7" d="m143.67,37.95c-1.45-18.15-17.34-31.68-35.49-30.22-18.15,1.45-31.68,17.34-30.22,35.49,1.45,18.15,17.34,31.68,35.49,30.22,18.15-1.45,31.68-17.34,30.23-35.49,0,0,0,0,0,0Z"/>
    <g id="Group_83" data-name="Group 83">
      <path id="Path_222" data-name="Path 222" class="cls-16" d="m108.66,37.97l-14.73-9.89-1.08,1.61,14.73,9.89c.19-.63.57-1.19,1.08-1.61h0Z"/>
      <path id="Path_223" data-name="Path 223" class="cls-16" d="m108.37,42.9l-13.6,23.82,1.69.96,13.6-23.82c-.64-.15-1.23-.49-1.69-.97h0Z"/>
    </g>
    <path id="Path_224" data-name="Path 224" class="cls-11" d="m114.18,40.31c-.15-1.86-1.78-3.25-3.64-3.1s-3.25,1.78-3.1,3.64,1.78,3.25,3.64,3.1h0c1.86-.15,3.25-1.78,3.1-3.64,0,0,0,0,0,0Z"/>
  </g>
  <g id="Group_86" data-name="Group 86">
    <path id="Path_225" data-name="Path 225" class="cls-7" d="m17.42,77.6s4.95,10.87,14.94,14.94c9.99,4.07,23.86,3.62,26.78,15.47l17.32-36.06s-3.97-7.69-10.96-8.4-12.82-.27-18.3-6.18-9.9-11.4-9.9-11.4l-19.88,31.65h0Z"/>
    <line id="Line_96" data-name="Line 96" class="cls-11" x1="45.24" y1="90.85" x2="57.2" y2="67.88"/>
    <line id="Line_97" data-name="Line 97" class="cls-11" x1="49.14" y1="93.44" x2="62.75" y2="68.82"/>
    <line id="Line_98" data-name="Line 98" class="cls-11" x1="54.31" y1="95.45" x2="67.28" y2="69.89"/>
    <g id="Group_85" data-name="Group 85">
      <path id="Path_226" data-name="Path 226" class="cls-16" d="m33.31,76.74c.78.53,1.36,1.32,1.64,2.23,1.05-.07,2.09.26,2.92.91.04.03.2.12.25.15.78.41,1.45.99,1.98,1.69.4.7.22,1.05-.08,1.69s-.8,1.26-1.13,1.9c-3.48-2.48-6.91-4.95-10.3-7.57.38-.53.71-1.2,1.13-1.67s.64-.75,1.34-.66c.73.2,1.41.58,1.96,1.1.06.04.24.2.29.24h0Zm.25,3.14c.07-.19.21-.22.27-.45s.18-.3-.06-.6c-.3-.35-.64-.67-1.01-.95-.11-.08-.41-.34-.6-.5-.24-.22-.52-.39-.82-.51-.18-.05-.37.03-.48.18-.13.13-.17.24-.28.38,1,.8,1.97,1.63,2.97,2.44h0Zm4.88,3.24c.08-.19.2-.24.28-.46s.18-.38-.06-.65c-.31-.31-.66-.58-1.04-.8-.32-.19-.5-.31-.82-.5-.36-.23-.73-.43-1.13-.6-.21-.1-.46-.03-.6.16-.18.17-.19.33-.34.5,1.21.83,2.43,1.62,3.7,2.34h0Z"/>
      <path id="Path_227" data-name="Path 227" class="cls-16" d="m41.71,80.96c-3.62-2.16-7.06-4.62-10.29-7.34.25-.36.49-.74.73-1.1,3.17,2.79,6.61,5.26,10.28,7.36-.23.36-.48.72-.72,1.08h0Z"/>
      <path id="Path_228" data-name="Path 228" class="cls-16" d="m43.18,78.71c-3.74-2.01-7.19-4.49-10.28-7.4.25-.41.49-.83.74-1.24,3.04,2.66,5.23,4.92,8.89,6.64.33-.56.66-1.13.97-1.7.47.25.94.51,1.41.76-.56.99-1.13,1.96-1.72,2.93h0Z"/>
      <path id="Path_229" data-name="Path 229" class="cls-16" d="m45.35,74.99c-3.67-2.12-7.13-4.6-10.32-7.4l.76-1.41c2.81,2.41,5.81,4.6,8.95,6.56l.99-1.87c.46.29.92.57,1.38.86-.57,1.09-1.16,2.17-1.75,3.26Z"/>
      <path id="Path_230" data-name="Path 230" class="cls-16" d="m44.39,69.22c-.19-.11-.66-.44-.88-.6.22-.48.48-.94.73-1.39.34.24.67.45,1.02.69.39.28.82.49,1.27.64.24.11.53,0,.64-.23,0,0,0-.01,0-.02.17-.2.15-.49-.05-.66-.25-.29-.55-.53-.89-.72-.38-.25-.8-.43-1.24-.55-.44-.09-.9-.11-1.35-.07-.43.04-.74.1-1.2.13-.51.05-1.02.01-1.53-.1-.54-.16-1.04-.42-1.48-.77-.68-.48-1.24-1.12-1.62-1.87-.28-.62-.22-1.35.16-1.92.23-.62.86-1,1.52-.9.85.18,1.63.58,2.28,1.15.11.09.59.32.57.46-.05.38-.48.83-.63,1.22-.27-.2-.45-.34-.73-.57-.33-.28-.7-.51-1.09-.69-.33-.1-.43-.03-.59.2-.15.2-.15.47,0,.67.16.28.38.51.64.69.25.21.54.36.85.44.34.06.69.07,1.04.04.36,0,.94-.04,1.27-.05.63-.01,1.26.05,1.88.2.6.17,1.17.44,1.68.8.77.46,1.43,1.09,1.93,1.83.38.58.35,1.32-.06,1.88-.25.67-.92,1.09-1.63,1.03-.91-.13-1.78-.47-2.53-1v.03Z"/>
    </g>
  </g>
  <g id="Group_88" data-name="Group 88">
    <path id="Path_231" data-name="Path 231" class="cls-7" d="m39.57,57.88s-.97,11.91,5.78,20.32c6.75,8.41,19.09,14.78,15.87,26.54l32.67-23.07s.27-8.65-5.49-12.66-11.07-6.46-12.97-14.31-3.1-14.78-3.1-14.78l-32.76,17.97h0Z"/>
    <line id="Line_99" data-name="Line 99" class="cls-11" x1="57.44" y1="82.99" x2="79.06" y2="68.74"/>
    <line id="Line_100" data-name="Line 100" class="cls-11" x1="59.58" y1="87.15" x2="83.44" y2="72.26"/>
    <line id="Line_101" data-name="Line 101" class="cls-11" x1="63.12" y1="91.42" x2="86.88" y2="75.4"/>
    <g id="Group_87" data-name="Group 87">
      <path id="Path_232" data-name="Path 232" class="cls-16" d="m53.87,64.85c.43.85.55,1.82.35,2.74,1.05.34,1.54,1.28,2.11,2.22.03.04.12.2.15.25.48.74.79,1.57.91,2.44,0,.8-.32,1.02-.89,1.43s-1.32.71-1.91,1.12c-1.83-3.86-3.62-7.69-5.32-11.62.59-.28,1.2-.7,1.8-.91s.92-.35,1.49.06c.55.53.95,1.18,1.18,1.91.03.06.11.29.13.35h0Zm-1.31,2.87c.15-.13.29-.1.46-.26s.3-.18.24-.55c-.09-.45-.23-.9-.42-1.32-.06-.13-.2-.5-.29-.73-.11-.31-.26-.59-.47-.85-.13-.13-.34-.16-.5-.07-.18.05-.27.13-.43.19.48,1.19.93,2.39,1.41,3.58h0Zm2.69,5.21c.17-.13.29-.11.47-.27s.34-.24.27-.6c-.12-.42-.29-.83-.53-1.2-.19-.32-.29-.51-.47-.83-.2-.38-.43-.74-.7-1.07-.14-.19-.39-.25-.6-.15-.23.06-.33.2-.54.27.65,1.31,1.34,2.6,2.1,3.85h0Z"/>
      <path id="Path_233" data-name="Path 233" class="cls-16" d="m59.16,72.63c-2.12-3.65-3.93-7.47-5.42-11.42.39-.2.78-.4,1.18-.61,1.41,3.98,3.22,7.81,5.4,11.43-.39.2-.77.4-1.15.6h0Z"/>
      <path id="Path_234" data-name="Path 234" class="cls-16" d="m61.54,71.38c-2.29-3.57-4.1-7.42-5.38-11.47.42-.24.83-.48,1.25-.73,1.36,3.81,2.18,6.84,4.53,10.13.56-.33,1.12-.66,1.68-1.01.29.45.57.9.85,1.35-.97.6-1.94,1.17-2.93,1.73Z"/>
      <path id="Path_235" data-name="Path 235" class="cls-16" d="m65.24,69.18c-2.18-3.64-3.99-7.49-5.42-11.49.45-.29.9-.57,1.35-.86,1.29,3.47,2.83,6.84,4.62,10.08.59-.39,1.18-.77,1.77-1.15.27.48.52.95.78,1.42-1.04.67-2.07,1.34-3.11,1.99h0Z"/>
      <path id="Path_236" data-name="Path 236" class="cls-16" d="m67.22,63.67c-.11-.19-.36-.71-.48-.94.43-.31.87-.59,1.32-.87.18.38.36.72.56,1.1.21.43.48.83.8,1.19.16.22.46.26.67.11,0,0,.02-.01.02-.02.24-.09.37-.35.28-.59,0,0,0,0,0,0-.08-.37-.22-.73-.43-1.06-.21-.4-.49-.77-.82-1.08-.35-.29-.73-.54-1.15-.72-.4-.18-.69-.27-1.11-.48-.47-.21-.9-.49-1.29-.83-.4-.4-.71-.87-.92-1.39-.36-.75-.54-1.58-.51-2.42.06-.68.46-1.29,1.07-1.6.5-.43,1.24-.45,1.76-.05.65.57,1.15,1.3,1.43,2.12.06.13.36.56.27.69-.23.31-.83.49-1.14.76-.13-.31-.22-.52-.36-.85-.15-.41-.36-.79-.62-1.13-.24-.25-.36-.24-.61-.11-.22.1-.36.33-.33.57.01.32.09.63.23.92.12.3.3.58.53.8.27.21.57.4.88.54.32.17.84.42,1.13.58.56.29,1.08.66,1.54,1.09.44.44.81.96,1.08,1.52.45.78.72,1.65.8,2.55.05.69-.33,1.33-.96,1.62-.55.46-1.33.5-1.92.1-.73-.56-1.33-1.28-1.73-2.11h-.02Z"/>
    </g>
  </g>
  <g id="Group_90" data-name="Group 90">
    <path id="Path_237" data-name="Path 237" class="cls-7" d="m62.4,74s5,10.85,15,14.88,23.88,3.52,26.85,15.35l17.17-36.13s-4.01-7.68-10.99-8.35-12.82-.21-18.32-6.11-9.95-11.35-9.95-11.35l-19.75,31.72h0Z"/>
    <line id="Line_102" data-name="Line 102" class="cls-11" x1="90.28" y1="87.13" x2="102.14" y2="64.11"/>
    <line id="Line_103" data-name="Line 103" class="cls-11" x1="94.19" y1="89.69" x2="107.68" y2="65.02"/>
    <line id="Line_104" data-name="Line 104" class="cls-11" x1="99.37" y1="91.69" x2="112.23" y2="66.07"/>
    <g id="Group_89" data-name="Group 89">
      <path id="Path_238" data-name="Path 238" class="cls-16" d="m78.28,73.06c.79.53,1.37,1.31,1.65,2.22,1.05-.08,2.1.24,2.93.9.05.03.21.12.25.15.78.41,1.46.98,1.99,1.68.4.7.22,1.05-.07,1.69s-.8,1.27-1.12,1.91c-3.49-2.47-6.93-4.93-10.33-7.52.37-.53.71-1.2,1.12-1.68s.63-.76,1.33-.67c.73.19,1.41.57,1.97,1.08.06.04.24.2.29.24h0Zm.27,3.14c.07-.19.2-.22.27-.45s.18-.3-.06-.6c-.3-.35-.64-.67-1.01-.95-.11-.08-.41-.34-.6-.5-.24-.22-.52-.39-.83-.51-.18-.05-.37.03-.48.18-.13.13-.17.24-.28.38,1.01.8,1.98,1.62,2.99,2.43h0Zm4.9,3.22c.08-.19.2-.24.27-.46s.17-.38-.06-.65c-.31-.31-.66-.58-1.05-.79-.32-.18-.51-.3-.82-.49-.36-.23-.74-.43-1.13-.6-.21-.1-.47-.03-.6.17-.18.17-.19.33-.34.5,1.21.82,2.44,1.61,3.71,2.32h0Z"/>
      <path id="Path_239" data-name="Path 239" class="cls-16" d="m86.7,77.26c-3.63-2.15-7.09-4.59-10.32-7.3.24-.36.49-.74.72-1.1,3.18,2.78,6.64,5.23,10.31,7.32-.23.36-.48.72-.71,1.08h0Z"/>
      <path id="Path_240" data-name="Path 240" class="cls-16" d="m88.16,74.99c-3.75-1.99-7.21-4.46-10.31-7.35.24-.41.49-.83.73-1.24,3.06,2.65,5.25,4.9,8.92,6.6.33-.57.65-1.13.97-1.71l1.41.76c-.55.99-1.13,1.97-1.71,2.94h0Z"/>
      <path id="Path_241" data-name="Path 241" class="cls-16" d="m90.31,71.27c-3.68-2.11-7.15-4.57-10.35-7.35.25-.47.5-.94.76-1.41,2.83,2.39,5.83,4.57,8.98,6.52.33-.62.65-1.24.98-1.88.46.29.92.57,1.38.85-.57,1.09-1.15,2.18-1.74,3.27h0Z"/>
      <path id="Path_242" data-name="Path 242" class="cls-16" d="m89.33,65.5c-.19-.11-.66-.43-.88-.59.22-.48.47-.94.72-1.4.34.24.67.45,1.02.69.39.28.82.49,1.28.64.37.09.49,0,.64-.26.17-.2.15-.49-.05-.67-.25-.29-.55-.53-.89-.71-.38-.24-.8-.43-1.24-.54-.44-.09-.9-.11-1.35-.06-.43.04-.74.1-1.2.13-.51.04-1.03,0-1.53-.1-.54-.15-1.04-.41-1.48-.76-.69-.48-1.25-1.12-1.63-1.86-.28-.62-.23-1.35.15-1.92.22-.62.86-1,1.51-.9.85.18,1.64.58,2.29,1.15.11.09.6.31.57.46-.05.38-.48.83-.62,1.22-.27-.2-.45-.34-.73-.56-.33-.28-.7-.51-1.09-.69-.33-.1-.43-.03-.59.2-.14.2-.14.47,0,.67.16.27.39.51.65.69.25.21.55.36.86.44.34.05.69.07,1.04.04.36-.01.94-.05,1.27-.05.63-.02,1.26.05,1.88.2.6.17,1.17.44,1.69.79.77.46,1.43,1.08,1.94,1.83.38.57.36,1.32-.05,1.88-.25.67-.91,1.09-1.62,1.04-.91-.12-1.78-.46-2.53-.99h-.01Z"/>
    </g>
  </g>
  <g id="Group_92" data-name="Group 92">
    <g id="Group_91" data-name="Group 91">
      <path id="Path_243" data-name="Path 243" class="cls-7" d="m154.33,15.28l3.34,5.16c.8-.61,1.63-1.18,2.48-1.71l-3.6-4.9c.43-.58.99-1.66.65-2.15-.52-.76-2.04-.62-3.39.31s-2.02,2.3-1.5,3.06c.31.45,1.4.36,2.01.23h0Z"/>
      <path id="Path_244" data-name="Path 244" class="cls-7" d="m140.09,27.98l8.56,4.38c.43-1.08.92-2.13,1.48-3.15l-8.72-3.83c.09-.79.03-2.13-.57-2.41-.91-.43-2.28.54-3.05,2.16s-.66,3.3.25,3.74c.54.26,1.52-.43,2.04-.88h0Z"/>
      <path id="Path_245" data-name="Path 245" class="cls-7" d="m140.7,47.05l6.16-.32c-.06-.5-.15-.99-.2-1.5s-.03-1.01-.04-1.51l-6.06.67c-.29-.66-.95-1.69-1.54-1.64-.92.07-1.55,1.46-1.42,3.09s.98,2.9,1.9,2.83c.54-.04,1.01-1.03,1.2-1.62h0Z"/>
      <path id="Path_246" data-name="Path 246" class="cls-7" d="m170.54,5.22l.49,9.61c.57-.08,1.14-.18,1.73-.22s1.16-.04,1.74-.05l-1.04-9.49c.73-.31,1.85-1.03,1.8-1.69-.08-1.01-1.6-1.71-3.4-1.56s-3.19,1.08-3.11,2.08c.05.6,1.13,1.11,1.78,1.33h0Z"/>
      <path id="Path_247" data-name="Path 247" class="cls-7" d="m185.85,16.68c.93.38,1.84.81,2.73,1.29l2.45-5.56c.71.08,1.93.03,2.19-.51.39-.83-.49-2.07-1.97-2.78s-3-.6-3.39.22c-.23.49.39,1.39.8,1.85l-2.8,5.48h0Z"/>
      <path id="Path_248" data-name="Path 248" class="cls-7" d="m197.42,25.42c.71.92,1.37,1.88,1.96,2.88l7.7-5.64c.64.47,1.83,1.09,2.37.71.83-.57.68-2.24-.35-3.73s-2.53-2.22-3.36-1.65c-.49.34-.4,1.54-.26,2.21l-8.06,5.22h0Z"/>
      <path id="Path_249" data-name="Path 249" class="cls-7" d="m210.55,37.26c-.54.04-1.01,1.03-1.2,1.62l-6.16.32c.06.5.15.99.2,1.5s.03,1.01.04,1.51l6.06-.67c.29.66.95,1.69,1.54,1.64.92-.07,1.55-1.46,1.42-3.09s-.99-2.91-1.9-2.83Z"/>
      <path id="Path_250" data-name="Path 250" class="cls-7" d="m209.97,57.95l-8.56-4.38c-.43,1.08-.92,2.13-1.48,3.15l8.72,3.83c-.09.79-.03,2.13.57,2.41.91.43,2.28-.54,3.05-2.16s.67-3.3-.25-3.74c-.54-.26-1.52.43-2.04.88Z"/>
      <path id="Path_251" data-name="Path 251" class="cls-7" d="m195.72,70.65l-3.34-5.16c-.8.61-1.63,1.18-2.48,1.71l3.6,4.9c-.43.58-.99,1.66-.65,2.15.52.76,2.04.62,3.39-.32s2.02-2.29,1.5-3.06c-.31-.45-1.4-.36-2.01-.23h0Z"/>
      <path id="Path_252" data-name="Path 252" class="cls-7" d="m152.64,60.51c-.71-.92-1.37-1.88-1.96-2.88l-7.7,5.64c-.64-.47-1.83-1.09-2.37-.71-.83.57-.68,2.24.35,3.73s2.53,2.23,3.36,1.65c.49-.34.4-1.54.26-2.21l8.06-5.22Z"/>
      <path id="Path_253" data-name="Path 253" class="cls-7" d="m179.52,80.72l-.49-9.61c-.57.08-1.14.18-1.73.22s-1.16.04-1.74.05l1.04,9.49c-.73.32-1.85,1.04-1.8,1.69.08,1.01,1.6,1.71,3.4,1.56s3.19-1.08,3.11-2.09c-.05-.6-1.13-1.11-1.78-1.33h0Z"/>
      <path id="Path_254" data-name="Path 254" class="cls-7" d="m164.2,69.26c-.93-.38-1.84-.81-2.73-1.29l-2.45,5.55c-.71-.08-1.93-.03-2.19.51-.39.83.49,2.07,1.97,2.78s3,.6,3.39-.22c.23-.49-.39-1.39-.8-1.85l2.8-5.48h0Z"/>
    </g>
    <path id="Path_255" data-name="Path 255" class="cls-7" d="m203.39,40.7c-1.25-15.66-14.97-27.34-30.63-26.09-15.66,1.25-27.34,14.97-26.09,30.63,1.25,15.66,14.97,27.34,30.63,26.09,15.66-1.25,27.34-14.96,26.09-30.63h0Z"/>
    <path id="Path_256" data-name="Path 256" class="cls-7" d="m175.5,21.13c.21,1.6-.93,3.07-2.53,3.28-1.6.21-3.07-.93-3.28-2.53-.21-1.6.93-3.07,2.53-3.28.05,0,.09-.01.14-.01,1.57-.16,2.97.98,3.14,2.55Z"/>
    <path id="Path_257" data-name="Path 257" class="cls-7" d="m159.66,45.03c.21,1.6-.93,3.07-2.53,3.28-1.6.21-3.07-.93-3.28-2.53s.93-3.07,2.53-3.28c.05,0,.09-.01.14-.01,1.57-.16,2.97.98,3.14,2.55Z"/>
    <path id="Path_258" data-name="Path 258" class="cls-7" d="m172.15,36.76c.21,1.6-.92,3.07-2.53,3.28s-3.07-.92-3.28-2.53.92-3.07,2.53-3.28c.05,0,.09-.01.14-.01,1.57-.16,2.97.98,3.14,2.54Z"/>
    <path id="Path_259" data-name="Path 259" class="cls-7" d="m167.27,61.49c.21,1.6-.93,3.07-2.53,3.28-1.61.21-3.07-.93-3.28-2.53-.21-1.6.93-3.07,2.53-3.28.05,0,.09-.01.14-.01,1.57-.16,2.97.98,3.14,2.55Z"/>
    <path id="Path_260" data-name="Path 260" class="cls-7" d="m198.18,47.27c.21,1.6-.93,3.07-2.53,3.28-1.61.21-3.07-.93-3.28-2.53-.21-1.6.93-3.07,2.53-3.28.05,0,.09-.01.14-.01,1.57-.16,2.97.98,3.14,2.55Z"/>
    <path id="Path_261" data-name="Path 261" class="cls-7" d="m177.59,52.74c.21,1.6-.93,3.07-2.53,3.28-1.61.21-3.07-.93-3.28-2.53-.21-1.6.93-3.07,2.53-3.28.05,0,.09-.01.14-.01,1.57-.16,2.97.98,3.14,2.55Z"/>
    <path id="Path_262" data-name="Path 262" class="cls-7" d="m186.15,40.86c.21,1.6-.93,3.07-2.53,3.28-1.61.21-3.07-.93-3.28-2.53-.21-1.6.93-3.07,2.53-3.28.05,0,.09-.01.14-.01,1.57-.16,2.98.98,3.14,2.55Z"/>
    <path id="Path_263" data-name="Path 263" class="cls-7" d="m192.17,27.35c.21,1.6-.93,3.07-2.53,3.28-1.61.21-3.07-.93-3.28-2.53-.21-1.6.93-3.07,2.53-3.28.05,0,.09-.01.14-.01,1.57-.16,2.97.98,3.14,2.55Z"/>
    <path id="Path_264" data-name="Path 264" class="cls-7" d="m188.1,61.22c.21,1.6-.93,3.07-2.53,3.28-1.61.21-3.07-.93-3.28-2.53-.21-1.6.93-3.07,2.53-3.28.05,0,.09-.01.14-.01,1.57-.16,2.97.98,3.14,2.55Z"/>
    <path id="Path_265" data-name="Path 265" class="cls-7" d="m161.32,27.28c.21,1.6-.93,3.07-2.53,3.28-1.6.21-3.07-.93-3.28-2.53s.93-3.07,2.53-3.28c.05,0,.09-.01.14-.01,1.57-.16,2.97.98,3.14,2.55Z"/>
  </g>
  <g id="Group_95" data-name="Group 95">
    <g id="Group_93" data-name="Group 93">
      <rect id="Rectangle_52" data-name="Rectangle 52" class="cls-2" x="142.1" y="58.09" width="62.57" height="38.73" rx="6.78" ry="6.78" transform="translate(-7.64 20.08) rotate(-6.49)"/>
      <rect id="Rectangle_53" data-name="Rectangle 53" class="cls-16" x="142.49" y="74.19" width="62.57" height="13.11" transform="translate(-8.01 20.15) rotate(-6.49)"/>
      <path id="Path_266" data-name="Path 266" class="cls-7" d="m158.84,65.96c.11.98,1,1.69,1.98,1.57.98-.11,1.69-1,1.57-1.98-.11-.98-1-1.69-1.98-1.57,0,0,0,0,0,0-.98.11-1.68,1-1.57,1.98Z"/>
      <path id="Path_267" data-name="Path 267" class="cls-7" d="m151.93,66.75c.11.98,1,1.69,1.98,1.57.98-.11,1.69-1,1.57-1.98-.11-.98-1-1.69-1.98-1.57,0,0,0,0,0,0-.98.11-1.68,1-1.57,1.98Z"/>
      <path id="Path_268" data-name="Path 268" class="cls-7" d="m145.03,67.53c.11.98,1,1.69,1.98,1.57.98-.11,1.69-1,1.57-1.98s-1-1.69-1.98-1.57c0,0,0,0,0,0-.98.11-1.68,1-1.57,1.98Z"/>
    </g>
    <g id="Group_94" data-name="Group 94">
      <rect id="Rectangle_54" data-name="Rectangle 54" class="cls-6" x="197.99" y="29.9" width="38.71" height="62.53" rx="7.97" ry="7.97" transform="translate(6.08 140.82) rotate(-36.38)"/>
      <rect id="Rectangle_55" data-name="Rectangle 55" class="cls-16" x="208.17" y="31.8" width="13.1" height="62.53" transform="translate(4.44 139.64) rotate(-36.38)"/>
      <path id="Path_269" data-name="Path 269" class="cls-11" d="m220.1,42.79c-.79.59-.96,1.7-.38,2.5.59.79,1.7.96,2.5.38.79-.59.96-1.7.38-2.49-.58-.79-1.7-.97-2.49-.38,0,0,0,0,0,0Z"/>
      <path id="Path_270" data-name="Path 270" class="cls-11" d="m215.98,37.2c-.79.59-.96,1.7-.38,2.5.59.79,1.7.96,2.5.38.79-.59.96-1.7.38-2.49-.58-.79-1.7-.97-2.49-.38,0,0,0,0,0,0Z"/>
      <path id="Path_271" data-name="Path 271" class="cls-11" d="m211.86,31.6c-.79.59-.96,1.7-.38,2.5.59.79,1.7.96,2.5.38.79-.59.96-1.7.38-2.49-.58-.79-1.7-.97-2.49-.39,0,0,0,0-.01,0Z"/>
    </g>
  </g>
  <g id="Group_97" data-name="Group 97">
    <path id="Path_272" data-name="Path 272" class="cls-16" d="m159.23,61.58l2.85,39.09-9.08-1.24"/>
    <path id="Path_273" data-name="Path 273" class="cls-7" d="m101.6,60.86l57.62.72s-1.48,34.09-9.72,43.46l-57.54-6.63s10.61-11.24,9.63-37.56h0Z"/>
    <g id="Group_96" data-name="Group 96">
      <path id="Path_274" data-name="Path 274" class="cls-11" d="m106.61,70.84l46.76,1.88s-1.64,18.11-5.87,24.9l-47.57-4.9s6.94-11.51,6.68-21.88h0Z"/>
      <path id="Path_275" data-name="Path 275" class="cls-11" d="m111.12,71.05s-1.86,15.32-6.65,22.16"/>
      <path id="Path_276" data-name="Path 276" class="cls-11" d="m117.35,71.67s-1.86,15.32-6.65,22.16"/>
      <path id="Path_277" data-name="Path 277" class="cls-11" d="m122.98,71.78s-1.86,15.32-6.65,22.16"/>
      <path id="Path_278" data-name="Path 278" class="cls-11" d="m128.04,71.94s-1.86,15.32-6.65,22.16"/>
      <path id="Path_279" data-name="Path 279" class="cls-11" d="m133.42,72.36s-1.86,15.32-6.65,22.16"/>
      <path id="Path_280" data-name="Path 280" class="cls-11" d="m131.92,95.78c4.79-6.84,6.58-22.99,6.58-22.99"/>
      <path id="Path_281" data-name="Path 281" class="cls-11" d="m143.27,72.68s-2.05,16.45-6.84,23.29"/>
      <path id="Path_282" data-name="Path 282" class="cls-11" d="m148.08,73.15s-1.22,16.39-6,23.23"/>
      <line id="Line_105" data-name="Line 105" class="cls-11" x1="106.4" y1="75.08" x2="152.43" y2="78.41"/>
      <line id="Line_106" data-name="Line 106" class="cls-11" x1="105.35" y1="79.65" x2="151.72" y2="83.52"/>
      <line id="Line_107" data-name="Line 107" class="cls-11" x1="104.04" y1="84.25" x2="150.45" y2="88.68"/>
      <line id="Line_108" data-name="Line 108" class="cls-11" x1="102.42" y1="88.59" x2="148.85" y2="93.3"/>
    </g>
    <path id="Path_283" data-name="Path 283" class="cls-11" d="m110.99,64.04c-1.83.4-3.63-.76-4.03-2.59-.4-1.83.76-3.63,2.59-4.03,1.83-.4,3.63.76,4.03,2.59.03.15.05.3.07.45"/>
    <path id="Path_284" data-name="Path 284" class="cls-11" d="m117.75,64.34c-1.83.4-3.63-.76-4.03-2.59-.4-1.83.76-3.63,2.59-4.03,1.83-.4,3.63.76,4.03,2.59.03.15.05.3.07.45"/>
    <path id="Path_285" data-name="Path 285" class="cls-11" d="m124.51,64.64c-1.83.4-3.63-.76-4.03-2.59-.4-1.83.76-3.63,2.59-4.03,1.83-.4,3.63.76,4.03,2.59.03.15.05.3.07.45"/>
    <path id="Path_286" data-name="Path 286" class="cls-11" d="m131.28,64.94c-1.83.4-3.63-.76-4.03-2.59-.4-1.83.76-3.63,2.59-4.03,1.83-.4,3.63.76,4.03,2.59.03.15.05.3.07.45"/>
    <path id="Path_287" data-name="Path 287" class="cls-11" d="m138.04,65.24c-1.83.4-3.63-.76-4.03-2.59-.4-1.83.76-3.63,2.59-4.03,1.83-.4,3.63.76,4.03,2.59.03.15.05.3.07.45"/>
    <path id="Path_288" data-name="Path 288" class="cls-11" d="m144.81,65.54c-1.83.4-3.63-.76-4.03-2.59-.4-1.83.76-3.63,2.59-4.03,1.83-.4,3.63.76,4.03,2.59.03.15.05.3.07.45"/>
    <path id="Path_289" data-name="Path 289" class="cls-11" d="m151.57,65.84c-1.83.4-3.63-.76-4.03-2.59-.4-1.83.76-3.63,2.59-4.03,1.83-.4,3.63.76,4.03,2.59.03.15.05.3.07.45"/>
  </g>
  <g id="Group_99" data-name="Group 99">
    <g id="Group_98" data-name="Group 98">
      <path id="Path_290" data-name="Path 290" class="cls-7" d="m179.09,60.29l2.3,3.54c.55-.42,1.12-.81,1.71-1.17l-2.46-3.36c.29-.4.68-1.14.45-1.48-.36-.52-1.4-.42-2.32.22s-1.39,1.57-1.03,2.1c.21.31.96.25,1.38.16h-.01Z"/>
      <path id="Path_291" data-name="Path 291" class="cls-7" d="m169.31,69l5.88,3.01c.29-.74.63-1.46,1.01-2.16l-5.98-2.63c.06-.54.02-1.46-.39-1.65-.62-.3-1.57.37-2.1,1.48s-.45,2.27.17,2.56c.37.18,1.05-.29,1.4-.6h0Z"/>
      <path id="Path_292" data-name="Path 292" class="cls-7" d="m169.74,82.09l4.23-.22c-.05-.34-.1-.68-.13-1.03s-.02-.69-.03-1.04l-4.16.46c-.2-.46-.64-1.16-1.06-1.13-.63.05-1.06,1-.97,2.12s.67,1.99,1.3,1.94c.37-.03.69-.71.83-1.11h0Z"/>
      <path id="Path_293" data-name="Path 293" class="cls-7" d="m190.21,53.38l.34,6.6c.39-.06.78-.13,1.19-.15s.8-.03,1.2-.04l-.71-6.51c.5-.22,1.27-.71,1.24-1.16-.06-.69-1.1-1.17-2.34-1.07s-2.19.74-2.13,1.43c.03.4.77.76,1.22.91Z"/>
      <path id="Path_294" data-name="Path 294" class="cls-7" d="m200.72,61.25c.64.26,1.26.56,1.87.89l1.68-3.81c.49.06,1.33.02,1.5-.35.27-.57-.34-1.42-1.35-1.9s-2.06-.41-2.33.15c-.16.34.27.95.55,1.27l-1.92,3.76h0Z"/>
      <path id="Path_295" data-name="Path 295" class="cls-7" d="m208.66,67.25c.49.63.94,1.29,1.34,1.97l5.28-3.87c.43.32,1.25.75,1.62.49.57-.39.46-1.54-.24-2.56s-1.73-1.53-2.3-1.13c-.34.23-.27,1.06-.17,1.52l-5.54,3.58Z"/>
      <path id="Path_296" data-name="Path 296" class="cls-7" d="m217.68,75.38c-.37.03-.69.71-.83,1.11l-4.23.22c.05.34.1.68.13,1.03s.02.69.03,1.04l4.16-.46c.2.46.64,1.16,1.06,1.13.63-.05,1.06-1,.97-2.12s-.67-1.99-1.3-1.94h0Z"/>
      <path id="Path_297" data-name="Path 297" class="cls-7" d="m217.27,89.58l-5.88-3.01c-.29.74-.63,1.46-1.01,2.16l5.98,2.63c-.06.54-.02,1.46.39,1.65.62.3,1.57-.37,2.1-1.48s.45-2.27-.17-2.56c-.37-.18-1.05.29-1.4.6h0Z"/>
      <path id="Path_298" data-name="Path 298" class="cls-7" d="m207.5,98.29l-2.3-3.54c-.55.42-1.12.81-1.71,1.17l2.46,3.37c-.29.4-.68,1.14-.45,1.48.36.52,1.4.42,2.32-.22s1.39-1.57,1.03-2.1c-.21-.31-.96-.24-1.38-.16h.01Z"/>
      <path id="Path_299" data-name="Path 299" class="cls-7" d="m177.92,91.33c-.49-.63-.94-1.29-1.34-1.97l-5.28,3.87c-.44-.32-1.25-.75-1.62-.49-.57.39-.46,1.54.24,2.56s1.73,1.52,2.31,1.13c.34-.23.27-1.06.17-1.52l5.53-3.58h0Z"/>
      <path id="Path_300" data-name="Path 300" class="cls-7" d="m196.37,105.2l-.34-6.6c-.39.06-.78.13-1.19.15s-.8.03-1.2.04l.71,6.51c-.5.22-1.27.71-1.24,1.16.06.69,1.1,1.17,2.34,1.07s2.19-.74,2.13-1.43c-.04-.41-.78-.76-1.22-.91h0Z"/>
      <path id="Path_301" data-name="Path 301" class="cls-7" d="m185.86,97.33c-.64-.26-1.26-.56-1.87-.89l-1.68,3.81c-.49-.06-1.33-.02-1.5.35-.27.57.34,1.42,1.35,1.9s2.06.41,2.33-.15c.16-.34-.27-.95-.55-1.27l1.92-3.76h0Z"/>
    </g>
    <circle id="Ellipse_13" data-name="Ellipse 13" class="cls-13" cx="193.31" cy="79.3" r="19.54"/>
    <path id="Path_302" data-name="Path 302" class="cls-7" d="m193.62,64.31c.14,1.1-.64,2.11-1.74,2.25s-2.11-.64-2.25-1.74c-.14-1.1.64-2.11,1.74-2.25.03,0,.07,0,.1-.01,1.08-.11,2.04.67,2.15,1.75Z"/>
    <path id="Path_303" data-name="Path 303" class="cls-7" d="m182.75,80.71c.14,1.1-.64,2.11-1.74,2.25s-2.11-.64-2.25-1.74.64-2.11,1.74-2.25c.03,0,.07,0,.1-.01,1.08-.11,2.04.67,2.15,1.75Z"/>
    <path id="Path_304" data-name="Path 304" class="cls-7" d="m191.32,75.04c.14,1.1-.64,2.11-1.74,2.25s-2.11-.64-2.25-1.74.64-2.11,1.74-2.25c.03,0,.07,0,.1-.01,1.08-.11,2.04.67,2.15,1.75Z"/>
    <path id="Path_305" data-name="Path 305" class="cls-7" d="m187.97,92.01c.14,1.1-.64,2.11-1.74,2.25s-2.11-.64-2.25-1.74.64-2.11,1.74-2.25c.03,0,.07,0,.1-.01,1.08-.11,2.04.67,2.15,1.75Z"/>
    <path id="Path_306" data-name="Path 306" class="cls-7" d="m209.18,82.25c.14,1.1-.64,2.11-1.74,2.25s-2.11-.64-2.25-1.74.64-2.11,1.74-2.25c.03,0,.07,0,.1-.01,1.08-.11,2.04.67,2.15,1.75Z"/>
    <path id="Path_307" data-name="Path 307" class="cls-7" d="m195.05,86c.14,1.1-.64,2.11-1.74,2.25s-2.11-.64-2.25-1.74.64-2.11,1.74-2.25c.03,0,.07,0,.1-.01,1.08-.11,2.04.67,2.15,1.75Z"/>
    <path id="Path_308" data-name="Path 308" class="cls-7" d="m200.93,77.85c.14,1.1-.64,2.11-1.74,2.25s-2.11-.64-2.25-1.74.64-2.11,1.74-2.25c.03,0,.07,0,.1-.01,1.08-.11,2.04.67,2.15,1.75Z"/>
    <path id="Path_309" data-name="Path 309" class="cls-7" d="m205.06,68.57c.14,1.1-.64,2.11-1.74,2.25s-2.11-.64-2.25-1.74.64-2.11,1.74-2.25c.03,0,.07,0,.1-.01,1.08-.11,2.04.67,2.15,1.75Z"/>
    <path id="Path_310" data-name="Path 310" class="cls-7" d="m202.27,91.83c.14,1.1-.64,2.11-1.74,2.25s-2.11-.64-2.25-1.74.64-2.11,1.74-2.25c.03,0,.07,0,.1-.01,1.08-.11,2.04.67,2.15,1.75Z"/>
    <path id="Path_311" data-name="Path 311" class="cls-7" d="m183.88,68.52c.14,1.1-.64,2.11-1.74,2.25s-2.11-.64-2.25-1.74.64-2.11,1.74-2.25c.03,0,.07,0,.1-.01,1.08-.11,2.04.67,2.15,1.75Z"/>
  </g>
  <path id="Path_312" data-name="Path 312" class="cls-12" d="m102.04,87.38s-6.86-.52-8.98,1.32-8.72,13.2-9.77,19.02,6.6,10.03,7.92,11.35,3.43,9.51,2.11,11.09-4.23,1.58-4.23,1.58c0,0,.52,2.64,7.66,3.69s10.67-1.64,10.67-1.64c0,0-11.99-24.51-3.27-32.44s2.9-15.06-2.11-14h0Z"/>
  <path id="Path_313" data-name="Path 313" class="cls-7" d="m115.21,136.3s3.28,11.35,8.33,11.35,7.82-9.09,7.82-17.41-7.82-6.56-11.86-4.29-4.29,10.35-4.29,10.35Z"/>
  <path id="Path_314" data-name="Path 314" class="cls-12" d="m121.21,130.2l-3.69,11.62-2.31-5.51,6-6.11Z"/>
  <g id="Group_101" data-name="Group 101">
    <path id="Path_315" data-name="Path 315" class="cls-7" d="m99.22,97.94s-4.65,3.61-6.42,11.82,4.93,22.26,5.79,23.62,7.16,6.23,8.27,6.65c1.83.57,3.8.5,5.58-.19,1.73-.85,12.96-14.55,13.08-15.44s-9.2-18.67-9.82-19.12-13.61-3.11-16.49-7.35h0Z"/>
    <path id="Path_316" data-name="Path 316" class="cls-10" d="m101.76,118.57c-2.31-1.65-4.76.55-4.76.55"/>
    <path id="Path_317" data-name="Path 317" class="cls-10" d="m108.89,117.14c1.16-1.25,3.02-1.54,4.5-.69"/>
    <path id="Path_318" data-name="Path 318" class="cls-12" d="m102.47,116.01l-3.88-2.41c-1.34-.83-3.17.99-3.17.99.89-.32,1.87-.18,2.65.35,1.03.92,4.09,3.18,4.4,1.06h0Z"/>
    <path id="Path_319" data-name="Path 319" class="cls-12" d="m106.74,114.91s1.8-2.39,2.75-3.65,3.31-.22,3.31-.22c-.94.03-1.81.5-2.34,1.28-.63,1.22-2.67,4.45-3.72,2.58h0Z"/>
    <path id="Path_320" data-name="Path 320" class="cls-11" d="m103.93,125.28s2.15,1.48,3.39.81c.86-.57,1.55-1.36,1.99-2.29"/>
    <g id="Group_100" data-name="Group 100">
      <path id="Path_321" data-name="Path 321" class="cls-11" d="m112.95,130.03c-.76-1.08-2.05-1.68-3.37-1.55-1.35.08-2.68.4-3.92.93-2.39,1.13-2.88,2.62-2.66,3.21s1,2.45,3.1,1.24c1.65-.96,2.65-1.34,4.7-.64s2.74-.8,2.55-2.2c-.06-.36-.2-.69-.4-.99Z"/>
      <path id="Path_322" data-name="Path 322" class="cls-11" d="m103.01,132.62c1.04-.31,2.09-.56,3.15-.76"/>
      <line id="Line_109" data-name="Line 109" class="cls-11" x1="113.36" y1="131.01" x2="109.91" y2="131.21"/>
    </g>
  </g>
  <path id="Path_323" data-name="Path 323" class="cls-12" d="m98.87,102.43s11.89,8.72,17.69,10.03,6.86,10.3,5.55,13.47c-.66,1.8-2.32,3.04-4.23,3.17,0,0-2.9,1.85,6.34,3.69s10.57-3.17,13.47-6.6,5.28-8.98,3.69-14.79-14.16-18.69-17.33-22.39-11.46-5.35-18.32-3.76-7.4,3.69-9.51,9.24c-1.36,2.92-.2,6.4,2.64,7.92h0Z"/>
  <path id="Path_325" data-name="Path 325" class="cls-11" d="m31.29,30.01c-3.73,3.25-6.98,7.01-9.65,11.17"/>
  <line id="Line_110" data-name="Line 110" class="cls-11" x1="253.65" y1="64.25" x2="255.47" y2="66.72"/>
  <line id="Line_111" data-name="Line 111" class="cls-11" x1="242.58" y1="49.36" x2="251.4" y2="61.24"/>
  <line id="Line_112" data-name="Line 112" class="cls-11" x1="245.06" y1="43.9" x2="257.96" y2="61.26"/>
  <path id="Path_327" data-name="Path 327" class="cls-11" d="m205.93,132.48c-2.93,4.05-6.09,7.93-9.47,11.61"/>
  <path id="Path_328" data-name="Path 328" class="cls-11" d="m215.79,118.79s-3.71,5.35-8.09,11.3"/>
  <path id="Path_329" data-name="Path 329" class="cls-11" d="m213.32,129.71s-10.42,14.88-15.87,18.85"/>
  <path id="Path_330" data-name="Path 330" class="cls-11" d="m33.27,128.71s10.42,11.9,19.35,14.88"/>
  <path id="Path_331" data-name="Path 331" class="cls-11" d="m48.5,147.91c1.02.44,2.06.82,3.13,1.14"/>
  <path id="Path_332" data-name="Path 332" class="cls-11" d="m35.26,139.13c3.32,2.99,6.98,5.57,10.92,7.68"/>
</svg>