<?xml version="1.0" encoding="UTF-8"?>
<svg id="Layer_1" data-name="Layer 1" xmlns="http://www.w3.org/2000/svg" viewBox="0 0 320.51 293.03">
  <defs>
    <style>
      .cls-1 {
        fill: #595959;
      }

      .cls-1, .cls-2, .cls-3, .cls-4, .cls-5, .cls-6, .cls-7, .cls-8, .cls-9, .cls-10, .cls-11, .cls-12, .cls-13, .cls-14, .cls-15 {
        stroke: #263238;
      }

      .cls-1, .cls-2, .cls-6, .cls-7, .cls-8, .cls-9, .cls-11, .cls-12, .cls-13, .cls-14, .cls-15 {
        stroke-linecap: round;
        stroke-linejoin: round;
      }

      .cls-2 {
        fill: #e8e7ab;
      }

      .cls-3, .cls-4, .cls-5, .cls-10 {
        stroke-miterlimit: 10;
      }

      .cls-3, .cls-11, .cls-16 {
        fill: #263238;
      }

      .cls-4, .cls-5, .cls-9 {
        fill: none;
      }

      .cls-4, .cls-14 {
        stroke-width: .5px;
      }

      .cls-5 {
        stroke-width: 2px;
      }

      .cls-17 {
        fill: #c30e59;
      }

      .cls-18, .cls-15 {
        fill: #f2ae66;
      }

      .cls-19 {
        fill: #382039;
      }

      .cls-6 {
        fill: #fff;
      }

      .cls-7 {
        fill: #9c9c9c;
      }

      .cls-8 {
        fill: #f638dc;
      }

      .cls-10, .cls-12, .cls-14 {
        fill: #e82561;
      }

      .cls-13 {
        fill: #7d7d7d;
      }
    </style>
  </defs>
  <g id="Window">
    <rect id="Rectangle_2" data-name="Rectangle 2" class="cls-9" x="148.73" y=".5" width="127.25" height="176.18"/>
    <line id="Line_1" data-name="Line 1" class="cls-9" x1="212.36" y1=".6" x2="212.36" y2="177.3"/>
    <line id="Line_2" data-name="Line 2" class="cls-9" x1="276.08" y1="88.95" x2="148.62" y2="88.95"/>
    <line id="Line_3" data-name="Line 3" class="cls-9" x1="276.08" y1="44.71" x2="148.62" y2="44.71"/>
    <line id="Line_4" data-name="Line 4" class="cls-9" x1="276.08" y1="133.2" x2="148.62" y2="133.2"/>
    <g id="Group_1" data-name="Group 1">
      <line id="Line_5" data-name="Line 5" class="cls-9" x1="252.89" y1="65.13" x2="240.49" y2="77.05"/>
      <line id="Line_6" data-name="Line 6" class="cls-9" x1="271.34" y1="47.39" x2="256.52" y2="61.64"/>
      <line id="Line_7" data-name="Line 7" class="cls-9" x1="239.59" y1="71.37" x2="235.65" y2="75.16"/>
      <line id="Line_8" data-name="Line 8" class="cls-9" x1="256.51" y1="55.1" x2="242.31" y2="68.76"/>
    </g>
    <line id="Line_9" data-name="Line 9" class="cls-9" x1="184.08" y1="24.79" x2="171.67" y2="36.71"/>
    <line id="Line_10" data-name="Line 10" class="cls-9" x1="202.52" y1="7.05" x2="187.7" y2="21.3"/>
    <line id="Line_11" data-name="Line 11" class="cls-9" x1="170.77" y1="31.03" x2="166.84" y2="34.82"/>
    <line id="Line_12" data-name="Line 12" class="cls-9" x1="187.69" y1="14.77" x2="173.49" y2="28.42"/>
    <g id="Group_2" data-name="Group 2">
      <line id="Line_13" data-name="Line 13" class="cls-9" x1="249.93" y1="111.99" x2="237.53" y2="123.92"/>
      <line id="Line_14" data-name="Line 14" class="cls-9" x1="268.37" y1="94.26" x2="253.56" y2="108.51"/>
      <line id="Line_15" data-name="Line 15" class="cls-9" x1="236.63" y1="118.24" x2="232.69" y2="122.02"/>
      <line id="Line_16" data-name="Line 16" class="cls-9" x1="253.54" y1="101.97" x2="239.34" y2="115.62"/>
    </g>
  </g>
  <g id="Group_3" data-name="Group 3">
    <path id="Path_3" data-name="Path 3" class="cls-12" d="m255.52,160.08l-.54-4.58c-1.42.06-2.74-.71-3.38-1.98-.57-1.28-1.15-3.88-.31-5.16.69-1.14,2.17-1.5,3.31-.81.52.31.9.81,1.07,1.4.65,1.87.97,2.66.97,2.66-.16-2.7-2.19-13.55,3.92-11.9,2.48.67,3.16,3.07,3.27,4.97s-.15,6.8-.15,6.8c0,0,1.64.18,1.76-2.54s2.76-3.96,3.92-2.67,1.7,5.87.42,7.3-5.32,1.93-5.32,1.93l.27,4.6h-9.23,0Z"/>
    <path id="Path_4" data-name="Path 4" class="cls-14" d="m259.03,140.45s-1.01.92-.73,4.04.27,8.73.27,8.73"/>
    <path id="Path_5" data-name="Path 5" class="cls-14" d="m261.7,142.56s1.19-.18.83,2.66c-.2,2.39-.2,4.78,0,7.17"/>
    <path id="Path_6" data-name="Path 6" class="cls-14" d="m253.06,148.63s-1.19.27-.64,2.2.73,3.4,2.02,3.68c.57.14,1.15.23,1.74.27l.18,2.02"/>
    <path id="Path_7" data-name="Path 7" class="cls-14" d="m264.64,154.42s3.77.09,4.5-1.47c.43-1.37.53-2.82.27-4.23"/>
    <path id="Path_8" data-name="Path 8" class="cls-14" d="m254.63,149.13c0,.18-.14.32-.32.32s-.32-.14-.32-.32c0-.18.14-.32.32-.32h0c.18,0,.32.14.32.32Z"/>
    <circle id="Ellipse_1" data-name="Ellipse 1" class="cls-14" cx="255.4" cy="152.85" r=".32"/>
    <circle id="Ellipse_2" data-name="Ellipse 2" class="cls-14" cx="253.8" cy="151.34" r=".32"/>
    <circle id="Ellipse_3" data-name="Ellipse 3" class="cls-14" cx="260.32" cy="147.53" r=".32"/>
    <circle id="Ellipse_4" data-name="Ellipse 4" class="cls-14" cx="257.29" cy="144.4" r=".32"/>
    <path id="Path_9" data-name="Path 9" class="cls-14" d="m261.7,155.61c0,.18-.14.32-.32.32s-.32-.14-.32-.32c0-.18.14-.32.32-.32h0c.18,0,.32.14.32.32Z"/>
    <path id="Path_10" data-name="Path 10" class="cls-14" d="m258.21,155.15c0,.18-.14.32-.32.32s-.32-.14-.32-.32c0-.18.14-.32.32-.32h0c.18,0,.32.14.32.32Z"/>
    <circle id="Ellipse_5" data-name="Ellipse 5" class="cls-14" cx="260.87" cy="141.46" r=".32"/>
    <path id="Path_11" data-name="Path 11" class="cls-14" d="m267.71,147.57c0,.18-.14.32-.32.32s-.32-.14-.32-.32c0-.18.14-.32.32-.32h0c.18,0,.32.14.32.32Z"/>
    <circle id="Ellipse_6" data-name="Ellipse 6" class="cls-14" cx="266.57" cy="151.94" r=".32"/>
    <circle id="Ellipse_7" data-name="Ellipse 7" class="cls-14" cx="260.87" cy="151.84" r=".32"/>
  </g>
  <path id="Path_12" data-name="Path 12" class="cls-15" d="m268.19,157.11h-16.54l1.65,13.55h13.23l1.65-13.55Z"/>
  <line id="Line_17" data-name="Line 17" class="cls-5" x1="22.1" y1="132.12" x2="34.76" y2="253.35"/>
  <g id="Group_4" data-name="Group 4">
    <line id="Line_18" data-name="Line 18" class="cls-5" x1="32.72" y1="230.15" x2="26.99" y2="224.09"/>
    <path id="Path_13" data-name="Path 13" class="cls-10" d="m28.73,225.9c-.02-1.88-.86-3.65-2.28-4.86-1.47-1.32-9.22-4.58-9.95-1.85-.8,2.97,7.13,8.79,12.24,6.71h0Z"/>
    <line id="Line_19" data-name="Line 19" class="cls-4" x1="28.73" y1="225.9" x2="21.35" y2="221.31"/>
  </g>
  <g id="Group_5" data-name="Group 5">
    <line id="Line_20" data-name="Line 20" class="cls-5" x1="34.15" y1="243.94" x2="28.42" y2="237.88"/>
    <path id="Path_14" data-name="Path 14" class="cls-10" d="m30.16,239.69c-.02-1.88-.86-3.65-2.28-4.86-1.47-1.32-9.22-4.58-9.95-1.85-.8,2.97,7.13,8.79,12.24,6.71Z"/>
    <line id="Line_21" data-name="Line 21" class="cls-4" x1="30.16" y1="239.69" x2="22.79" y2="235.1"/>
  </g>
  <g id="Group_6" data-name="Group 6">
    <line id="Line_22" data-name="Line 22" class="cls-5" x1="29.21" y1="196.51" x2="23.47" y2="190.45"/>
    <path id="Path_15" data-name="Path 15" class="cls-10" d="m25.22,192.27c-.02-1.88-.86-3.65-2.28-4.86-1.47-1.32-9.22-4.58-9.95-1.85-.81,2.97,7.13,8.79,12.24,6.71Z"/>
    <line id="Line_23" data-name="Line 23" class="cls-4" x1="25.21" y1="192.27" x2="17.83" y2="187.67"/>
  </g>
  <g id="Group_7" data-name="Group 7">
    <line id="Line_24" data-name="Line 24" class="cls-5" x1="30.65" y1="210.29" x2="24.91" y2="204.24"/>
    <path id="Path_16" data-name="Path 16" class="cls-10" d="m26.65,206.05c-.02-1.88-.86-3.65-2.28-4.86-1.47-1.32-9.22-4.58-9.95-1.85-.8,2.97,7.13,8.79,12.24,6.71h0Z"/>
    <line id="Line_25" data-name="Line 25" class="cls-4" x1="26.65" y1="206.05" x2="19.27" y2="201.46"/>
  </g>
  <g id="Group_8" data-name="Group 8">
    <line id="Line_26" data-name="Line 26" class="cls-5" x1="26.87" y1="174.11" x2="21.13" y2="168.05"/>
    <path id="Path_17" data-name="Path 17" class="cls-10" d="m22.88,169.87c-.02-1.88-.86-3.65-2.28-4.86-1.48-1.32-9.22-4.57-9.95-1.85-.8,2.97,7.13,8.79,12.24,6.71h0Z"/>
    <line id="Line_27" data-name="Line 27" class="cls-4" x1="22.88" y1="169.87" x2="15.5" y2="165.27"/>
  </g>
  <g id="Group_9" data-name="Group 9">
    <line id="Line_28" data-name="Line 28" class="cls-5" x1="24.52" y1="151.62" x2="18.79" y2="145.56"/>
    <path id="Path_18" data-name="Path 18" class="cls-10" d="m20.53,147.37c-.02-1.88-.86-3.65-2.28-4.86-1.48-1.32-9.22-4.57-9.95-1.85-.8,2.97,7.13,8.79,12.24,6.71h0Z"/>
    <line id="Line_29" data-name="Line 29" class="cls-4" x1="20.53" y1="147.37" x2="13.15" y2="142.77"/>
  </g>
  <g id="Group_10" data-name="Group 10">
    <line id="Line_30" data-name="Line 30" class="cls-5" x1="31.75" y1="221.99" x2="36.12" y2="214.88"/>
    <path id="Path_19" data-name="Path 19" class="cls-10" d="m34.78,217.01c-.37-1.84.08-3.75,1.23-5.23,1.17-1.59,8.08-6.38,9.36-3.86,1.39,2.74-5.16,10.08-10.59,9.1Z"/>
    <line id="Line_31" data-name="Line 31" class="cls-4" x1="34.78" y1="217.02" x2="41.42" y2="210.67"/>
  </g>
  <g id="Group_11" data-name="Group 11">
    <line id="Line_32" data-name="Line 32" class="cls-5" x1="27.97" y1="185.71" x2="32.33" y2="178.6"/>
    <path id="Path_20" data-name="Path 20" class="cls-10" d="m31,180.74c-.37-1.84.08-3.75,1.23-5.23,1.17-1.59,8.08-6.38,9.36-3.86,1.39,2.74-5.16,10.08-10.59,9.1Z"/>
    <line id="Line_33" data-name="Line 33" class="cls-4" x1="31" y1="180.74" x2="37.64" y2="174.39"/>
  </g>
  <g id="Group_12" data-name="Group 12">
    <line id="Line_34" data-name="Line 34" class="cls-5" x1="26.31" y1="169.77" x2="30.66" y2="162.65"/>
    <path id="Path_21" data-name="Path 21" class="cls-10" d="m29.33,164.79c-.37-1.84.08-3.75,1.23-5.23,1.17-1.59,8.08-6.38,9.36-3.86,1.39,2.74-5.16,10.08-10.59,9.1h0Z"/>
    <line id="Line_35" data-name="Line 35" class="cls-4" x1="29.33" y1="164.79" x2="35.98" y2="158.44"/>
  </g>
  <line id="Line_36" data-name="Line 36" class="cls-5" x1="23.86" y1="146.39" x2="28.23" y2="139.28"/>
  <path id="Path_22" data-name="Path 22" class="cls-10" d="m26.89,141.42c-.37-1.84.08-3.75,1.23-5.23,1.17-1.59,8.08-6.38,9.36-3.86,1.39,2.74-5.16,10.08-10.59,9.1h0Z"/>
  <line id="Line_37" data-name="Line 37" class="cls-4" x1="26.9" y1="141.42" x2="33.54" y2="135.06"/>
  <path id="Path_23" data-name="Path 23" class="cls-10" d="m22,131.45c-.37-1.84.08-3.75,1.23-5.23,1.17-1.59,8.08-6.38,9.36-3.86,1.39,2.74-5.16,10.08-10.59,9.1h0Z"/>
  <line id="Line_38" data-name="Line 38" class="cls-4" x1="22" y1="131.45" x2="28.64" y2="125.1"/>
  <path id="Path_24" data-name="Path 24" class="cls-10" d="m22.38,131.72c-1.87.17-3.72-.48-5.08-1.77-1.46-1.33-5.49-8.7-2.86-9.71,2.87-1.1,9.48,6.19,7.93,11.48h0Z"/>
  <line id="Line_39" data-name="Line 39" class="cls-4" x1="22.38" y1="131.72" x2="16.76" y2="124.45"/>
  <line id="Line_40" data-name="Line 40" class="cls-5" x1="55.47" y1="148.82" x2="42.89" y2="270.05"/>
  <g id="Group_16" data-name="Group 16">
    <line id="Line_41" data-name="Line 41" class="cls-5" x1="45.68" y1="246.93" x2="41.31" y2="239.82"/>
    <path id="Path_25" data-name="Path 25" class="cls-10" d="m42.64,241.96c.36-1.84-.09-3.75-1.24-5.23-1.17-1.59-8.08-6.37-9.36-3.86-1.39,2.74,5.17,10.08,10.59,9.09h0Z"/>
    <line id="Line_42" data-name="Line 42" class="cls-4" x1="42.64" y1="241.96" x2="36.37" y2="235.94"/>
  </g>
  <g id="Group_17" data-name="Group 17">
    <line id="Line_43" data-name="Line 43" class="cls-5" x1="49.17" y1="213.28" x2="44.8" y2="206.18"/>
    <path id="Path_26" data-name="Path 26" class="cls-10" d="m46.13,208.31c.36-1.84-.09-3.75-1.24-5.23-1.17-1.59-8.08-6.37-9.36-3.86-1.39,2.74,5.17,10.08,10.59,9.09h0Z"/>
    <line id="Line_44" data-name="Line 44" class="cls-4" x1="46.13" y1="208.31" x2="39.86" y2="202.3"/>
  </g>
  <g id="Group_18" data-name="Group 18">
    <line id="Line_45" data-name="Line 45" class="cls-5" x1="47.74" y1="227.07" x2="43.37" y2="219.96"/>
    <path id="Path_27" data-name="Path 27" class="cls-10" d="m44.7,222.1c.36-1.84-.09-3.75-1.24-5.23-1.17-1.59-8.08-6.37-9.36-3.86-1.39,2.74,5.17,10.08,10.59,9.09h0Z"/>
    <line id="Line_46" data-name="Line 46" class="cls-4" x1="44.7" y1="222.1" x2="38.43" y2="216.08"/>
  </g>
  <g id="Group_19" data-name="Group 19">
    <line id="Line_47" data-name="Line 47" class="cls-5" x1="51.49" y1="190.89" x2="47.12" y2="183.78"/>
    <path id="Path_28" data-name="Path 28" class="cls-10" d="m48.46,185.91c.36-1.84-.09-3.75-1.24-5.23-1.17-1.59-8.08-6.37-9.36-3.86-1.39,2.74,5.17,10.08,10.59,9.09h0Z"/>
    <line id="Line_48" data-name="Line 48" class="cls-4" x1="48.46" y1="185.91" x2="42.19" y2="179.9"/>
  </g>
  <g id="Group_20" data-name="Group 20">
    <line id="Line_49" data-name="Line 49" class="cls-5" x1="53.83" y1="168.39" x2="49.46" y2="161.28"/>
    <path id="Path_29" data-name="Path 29" class="cls-10" d="m50.79,163.41c.36-1.84-.09-3.75-1.24-5.23-1.17-1.59-8.08-6.37-9.36-3.85-1.39,2.74,5.17,10.08,10.59,9.09h0Z"/>
    <line id="Line_50" data-name="Line 50" class="cls-4" x1="50.79" y1="163.41" x2="44.52" y2="157.4"/>
  </g>
  <g id="Group_21" data-name="Group 21">
    <line id="Line_51" data-name="Line 51" class="cls-5" x1="46.41" y1="238.75" x2="52.15" y2="232.69"/>
    <path id="Path_30" data-name="Path 30" class="cls-10" d="m50.4,234.51c.02-1.87.85-3.65,2.28-4.86,1.47-1.32,9.22-4.58,9.95-1.85.8,2.97-7.13,8.8-12.24,6.72h0Z"/>
    <line id="Line_52" data-name="Line 52" class="cls-4" x1="50.4" y1="234.51" x2="58.21" y2="229.66"/>
  </g>
  <g id="Group_22" data-name="Group 22">
    <line id="Line_53" data-name="Line 53" class="cls-5" x1="50.18" y1="202.47" x2="55.91" y2="196.4"/>
    <path id="Path_31" data-name="Path 31" class="cls-10" d="m54.17,198.22c.02-1.87.85-3.65,2.28-4.86,1.47-1.32,9.22-4.58,9.95-1.85.8,2.97-7.13,8.8-12.24,6.72h0Z"/>
    <line id="Line_54" data-name="Line 54" class="cls-4" x1="54.17" y1="198.22" x2="61.97" y2="193.38"/>
  </g>
  <g id="Group_23" data-name="Group 23">
    <line id="Line_55" data-name="Line 55" class="cls-5" x1="51.83" y1="186.52" x2="57.57" y2="180.46"/>
    <path id="Path_32" data-name="Path 32" class="cls-10" d="m55.82,182.27c.02-1.87.85-3.65,2.28-4.86,1.47-1.32,9.22-4.58,9.95-1.85.8,2.97-7.13,8.8-12.24,6.72h0Z"/>
    <line id="Line_56" data-name="Line 56" class="cls-4" x1="55.82" y1="182.27" x2="63.63" y2="177.43"/>
  </g>
  <line id="Line_57" data-name="Line 57" class="cls-5" x1="54.26" y1="163.14" x2="59.99" y2="157.08"/>
  <path id="Path_33" data-name="Path 33" class="cls-10" d="m58.25,158.9c.02-1.87.85-3.65,2.27-4.86,1.47-1.32,9.22-4.58,9.95-1.85.8,2.97-7.13,8.8-12.24,6.71h.01Z"/>
  <line id="Line_58" data-name="Line 58" class="cls-4" x1="58.25" y1="158.9" x2="66.06" y2="154.05"/>
  <path id="Path_34" data-name="Path 34" class="cls-10" d="m55.51,148.13c.02-1.87.85-3.65,2.27-4.86,1.47-1.32,9.22-4.58,9.95-1.85.8,2.97-7.13,8.8-12.24,6.71h.01Z"/>
  <line id="Line_59" data-name="Line 59" class="cls-4" x1="55.51" y1="148.13" x2="63.31" y2="143.29"/>
  <path id="Path_35" data-name="Path 35" class="cls-10" d="m55.83,148.48c-1.86-.22-3.54-1.23-4.6-2.78-1.15-1.6-3.59-9.65-.8-10.1,3.03-.49,8,8.01,5.4,12.87h0Z"/>
  <line id="Line_60" data-name="Line 60" class="cls-4" x1="55.83" y1="148.48" x2="51.83" y2="140.21"/>
  <line id="Line_61" data-name="Line 61" class="cls-5" x1="41.06" y1="99.45" x2="41.06" y2="252.76"/>
  <g id="Group_26" data-name="Group 26">
    <line id="Line_62" data-name="Line 62" class="cls-5" x1="41.18" y1="229.71" x2="36.1" y2="223.09"/>
    <path id="Path_36" data-name="Path 36" class="cls-10" d="m37.65,225.07c.17-1.87-.47-3.72-1.76-5.08-1.33-1.46-8.7-5.51-9.71-2.87-1.1,2.87,6.18,9.49,11.48,7.94Z"/>
    <line id="Line_63" data-name="Line 63" class="cls-4" x1="37.65" y1="225.08" x2="30.79" y2="219.74"/>
  </g>
  <g id="Group_27" data-name="Group 27">
    <line id="Line_64" data-name="Line 64" class="cls-5" x1="41.18" y1="200.89" x2="36.1" y2="194.28"/>
    <path id="Path_37" data-name="Path 37" class="cls-10" d="m37.65,196.26c.17-1.87-.47-3.72-1.76-5.08-1.33-1.46-8.7-5.51-9.71-2.87-1.1,2.87,6.18,9.49,11.48,7.94Z"/>
    <line id="Line_65" data-name="Line 65" class="cls-4" x1="37.65" y1="196.27" x2="30.79" y2="190.93"/>
  </g>
  <g id="Group_28" data-name="Group 28">
    <line id="Line_66" data-name="Line 66" class="cls-5" x1="41.18" y1="167.07" x2="36.1" y2="160.45"/>
    <path id="Path_38" data-name="Path 38" class="cls-10" d="m37.65,162.43c.17-1.87-.47-3.72-1.76-5.08-1.33-1.46-8.7-5.51-9.71-2.87-1.1,2.87,6.18,9.49,11.48,7.94Z"/>
    <line id="Line_67" data-name="Line 67" class="cls-4" x1="37.65" y1="162.43" x2="30.79" y2="157.1"/>
  </g>
  <g id="Group_29" data-name="Group 29">
    <line id="Line_68" data-name="Line 68" class="cls-5" x1="41.18" y1="144.55" x2="36.1" y2="137.93"/>
    <path id="Path_39" data-name="Path 39" class="cls-10" d="m37.65,139.91c.17-1.87-.47-3.72-1.76-5.08-1.33-1.46-8.7-5.51-9.71-2.87-1.1,2.87,6.18,9.49,11.48,7.94h0Z"/>
    <line id="Line_69" data-name="Line 69" class="cls-4" x1="37.65" y1="139.91" x2="30.79" y2="134.58"/>
  </g>
  <g id="Group_30" data-name="Group 30">
    <line id="Line_70" data-name="Line 70" class="cls-5" x1="41.18" y1="121.93" x2="36.1" y2="115.32"/>
    <path id="Path_40" data-name="Path 40" class="cls-10" d="m37.65,117.3c.17-1.87-.47-3.72-1.76-5.08-1.33-1.46-8.7-5.51-9.71-2.87-1.1,2.87,6.18,9.49,11.48,7.94Z"/>
    <line id="Line_71" data-name="Line 71" class="cls-4" x1="37.65" y1="117.3" x2="30.79" y2="111.96"/>
  </g>
  <g id="Group_31" data-name="Group 31">
    <line id="Line_72" data-name="Line 72" class="cls-5" x1="41.07" y1="238.5" x2="46.14" y2="231.89"/>
    <path id="Path_41" data-name="Path 41" class="cls-10" d="m44.6,233.88c-.17-1.87.47-3.72,1.76-5.08,1.33-1.46,8.7-5.51,9.71-2.87,1.1,2.87-6.18,9.49-11.48,7.94Z"/>
    <line id="Line_73" data-name="Line 73" class="cls-4" x1="44.6" y1="233.88" x2="51.87" y2="228.25"/>
  </g>
  <g id="Group_32" data-name="Group 32">
    <line id="Line_74" data-name="Line 74" class="cls-5" x1="41.07" y1="192.68" x2="46.14" y2="186.06"/>
    <path id="Path_42" data-name="Path 42" class="cls-10" d="m44.6,188.05c-.17-1.87.47-3.72,1.76-5.08,1.33-1.46,8.7-5.51,9.71-2.87,1.1,2.87-6.18,9.49-11.48,7.94Z"/>
    <line id="Line_75" data-name="Line 75" class="cls-4" x1="44.6" y1="188.05" x2="51.87" y2="182.42"/>
  </g>
  <g id="Group_33" data-name="Group 33">
    <line id="Line_76" data-name="Line 76" class="cls-5" x1="41.07" y1="170.07" x2="46.14" y2="163.45"/>
    <path id="Path_43" data-name="Path 43" class="cls-10" d="m44.6,165.43c-.17-1.87.47-3.72,1.76-5.08,1.33-1.46,8.7-5.51,9.71-2.87,1.1,2.87-6.18,9.49-11.48,7.94Z"/>
    <line id="Line_77" data-name="Line 77" class="cls-4" x1="44.6" y1="165.43" x2="51.87" y2="159.81"/>
  </g>
  <g id="Group_34" data-name="Group 34">
    <line id="Line_78" data-name="Line 78" class="cls-5" x1="41.07" y1="140.17" x2="46.14" y2="133.56"/>
    <path id="Path_44" data-name="Path 44" class="cls-10" d="m44.6,135.54c-.17-1.87.47-3.72,1.76-5.08,1.33-1.46,8.7-5.51,9.71-2.87,1.1,2.87-6.18,9.49-11.48,7.94Z"/>
    <line id="Line_79" data-name="Line 79" class="cls-4" x1="44.6" y1="135.54" x2="51.87" y2="129.91"/>
  </g>
  <line id="Line_80" data-name="Line 80" class="cls-5" x1="41.07" y1="116.67" x2="46.14" y2="110.05"/>
  <path id="Path_45" data-name="Path 45" class="cls-10" d="m44.6,112.04c-.17-1.87.47-3.72,1.76-5.08,1.33-1.46,8.7-5.51,9.71-2.87,1.1,2.87-6.18,9.49-11.48,7.94Z"/>
  <line id="Line_81" data-name="Line 81" class="cls-4" x1="44.6" y1="112.04" x2="51.86" y2="106.41"/>
  <path id="Path_46" data-name="Path 46" class="cls-10" d="m40.77,101.61c-.17-1.87.47-3.72,1.76-5.08,1.33-1.46,8.7-5.51,9.71-2.87,1.1,2.87-6.18,9.49-11.48,7.94h0Z"/>
  <line id="Line_82" data-name="Line 82" class="cls-4" x1="40.77" y1="101.61" x2="48.03" y2="95.99"/>
  <path id="Path_47" data-name="Path 47" class="cls-10" d="m41.12,101.93c-1.88-.02-3.65-.86-4.86-2.29-1.31-1.48-4.56-9.23-1.83-9.96,2.97-.8,8.79,7.14,6.69,12.24h0Z"/>
  <line id="Line_83" data-name="Line 83" class="cls-4" x1="41.12" y1="101.92" x2="36.29" y2="94.11"/>
  <path id="Path_48" data-name="Path 48" class="cls-3" d="m47.37,292.52h-16.24l-2.03-41.01h20.3l-2.03,41.01Z"/>
  <path id="Path_49" data-name="Path 49" class="cls-13" d="m194.07,125.89h50.07l-11.66,42.96h-50.07l11.66-42.96Z"/>
  <path id="Path_50" data-name="Path 50" class="cls-2" d="m195.5,127.48h46.34l-10.79,39.76h-46.34l10.79-39.76Z"/>
  <rect id="Rectangle_3" data-name="Rectangle 3" class="cls-13" x="162.29" y="166.56" width="70.19" height="2.28"/>
  <rect id="Rectangle_4" data-name="Rectangle 4" class="cls-1" x="200.22" y="166.56" width="32.25" height="2.28"/>
  <g id="Table">
    <rect id="Rectangle_5" data-name="Rectangle 5" class="cls-15" x="139.84" y="172.48" width="3.77" height="119.78"/>
    <rect id="Rectangle_6" data-name="Rectangle 6" class="cls-15" x="136.61" y="172.48" width="3.22" height="119.78"/>
    <g id="Group_39" data-name="Group 39">
      <rect id="Rectangle_7" data-name="Rectangle 7" class="cls-15" x="236.48" y="235.15" width="3.77" height="57.11"/>
      <rect id="Rectangle_8" data-name="Rectangle 8" class="cls-15" x="233.26" y="235.16" width="3.22" height="57.11"/>
    </g>
    <g id="Group_40" data-name="Group 40">
      <rect id="Rectangle_9" data-name="Rectangle 9" class="cls-15" x="276.89" y="235.15" width="3.77" height="57.11"/>
      <rect id="Rectangle_10" data-name="Rectangle 10" class="cls-15" x="273.66" y="235.16" width="3.22" height="57.11"/>
    </g>
    <g id="Group_44" data-name="Group 44">
      <rect id="Rectangle_11" data-name="Rectangle 11" class="cls-15" x="199.09" y="173.64" width="36.81" height="64.77"/>
      <rect id="Rectangle_12" data-name="Rectangle 12" class="cls-15" x="235.9" y="173.65" width="48.5" height="64.77"/>
      <path id="Path_60" data-name="Path 60" class="cls-15" d="m235.9,173.65h-36.81v3.15h85.31v-3.15h-48.5Z"/>
      <g id="Group_41" data-name="Group 41">
        <rect id="Rectangle_13" data-name="Rectangle 13" class="cls-15" x="202.23" y="177.36" width="31.38" height="15.12"/>
        <rect id="Rectangle_14" data-name="Rectangle 14" class="cls-18" x="213.78" y="183.49" width="8.27" height="2.85"/>
      </g>
      <g id="Group_42" data-name="Group 42">
        <rect id="Rectangle_15" data-name="Rectangle 15" class="cls-15" x="202.23" y="198.19" width="31.38" height="15.12"/>
        <rect id="Rectangle_16" data-name="Rectangle 16" class="cls-18" x="213.78" y="204.04" width="8.27" height="2.85"/>
      </g>
      <g id="Group_43" data-name="Group 43">
        <rect id="Rectangle_17" data-name="Rectangle 17" class="cls-15" x="202.23" y="219.01" width="31.38" height="15.12"/>
        <rect id="Rectangle_18" data-name="Rectangle 18" class="cls-18" x="213.78" y="224.57" width="8.27" height="2.85"/>
      </g>
    </g>
    <g id="Group_45" data-name="Group 45">
      <rect id="Rectangle_19" data-name="Rectangle 19" class="cls-15" x="131.41" y="170.8" width="158" height="3.77"/>
      <rect id="Rectangle_20" data-name="Rectangle 20" class="cls-15" x="241.7" y="170.8" width="47.71" height="3.77"/>
    </g>
  </g>
  <path id="Path_61" data-name="Path 61" class="cls-6" d="m144.81,209.13s4.71,3.26,11.69,23.39c2.32,6.7,15.36,42.8,16.04,45.31s2.06,5.49,4.12,5.49,9.6-9.6,8.69-10.75-5.26-5.71-5.26-5.71c0,0-2.59-29.22-3.05-37.45s1.41-18.15-2.93-24.78-23.55.23-23.55.23l-5.74,4.27h0Z"/>
  <path id="Path_62" data-name="Path 62" class="cls-12" d="m182.14,266.86c-1.08.58-1.72,1.75-1.6,2.97.23,2.06,2.28,4.8,2.28,4.8,0,0-4.34,3.43-6.63,3.66s-4.8.69-4.8,1.37,1.83,1.83,2.97,4.34c1.26,2.55,2.71,4.99,4.34,7.32.69.91,1.15,1.6,3.66.91s8.01-5.71,10.98-7.77,11.89-3.43,13.49-4.58,6.63-8.46,4.34-9.83-2.97.23-5.71.91-10.75-.23-15.09-1.15-5.71-1.15-5.71-1.15l-2.52-1.83v.02Z"/>
  <path id="Path_63" data-name="Path 63" class="cls-6" d="m178.34,290.81c.15.22.27.4.37.52.69.91,1.15,1.6,3.66.91s8.01-5.71,10.98-7.77,11.89-3.43,13.49-4.58,6.63-8.46,4.34-9.83c-.32-.2-.67-.35-1.04-.45.04.15.08.29.12.45.69,2.74-1.6,5.49-3.66,7.55s-8.92,1.6-16.46,5.49c-4.17,2.19-8.12,4.77-11.8,7.71Z"/>
  <path id="Path_64" data-name="Path 64" class="cls-11" d="m178.13,243.99c-.49-6.01-.93-11.63-1.09-14.58-.46-8.23,1.41-18.15-2.93-24.78s-23.55.23-23.55.23l-5.74,4.27s4.71,3.26,11.69,23.39c.88,2.57,3.34,9.42,6.08,17.07l15.56-5.6h-.01Z"/>
  <path id="Path_65" data-name="Path 65" class="cls-6" d="m166.94,91.85c.59,1.59.88,3.28.83,4.98-.21,2.28-2.28,3.32-2.49,2.7-.18-1.03-.25-2.07-.21-3.11v-.83c-.51.85-1.14,1.62-1.87,2.28-.68.88-1.81,1.28-2.9,1.04-.62,0-.83-2.07.21-3.53s4.36-4.77,6.43-3.53h0Z"/>
  <path id="Path_66" data-name="Path 66" class="cls-6" d="m171.7,97.24c-2.07-1.24-5.19,3.11-9.96,2.07-.61-.13-.83-1.04.21-3.11s4.36-3.73,6.02-4.98,2.9-2.28,2.9-3.73-3.73.83-4.77,1.66c-1.26.78-2.57,1.48-3.92,2.09-.25,0-.56.02-.89.04-1.85.12-4.69.45-5.78,1.39-1.41,1.24-2.22,5.45-2.56,7.08-.92,1.33-1.74,2.55-2.22,3.29-1.45,2.28-30.7,23.65-30.7,23.65l2.07,18.25,33.19-37.76c.92-.75,1.98-1.32,3.11-1.66,2.28-.83,5.39-1.45,8.09-2.9,2-1.07,3.94-2.25,5.81-3.53,1.41-.9.5-1.19-.62-1.87h.01Z"/>
  <path id="Path_67" data-name="Path 67" class="cls-12" d="m136.81,114.25c-8.12,6.13-16.77,12.44-16.77,12.44l2.07,18.25,20.39-23.19-5.69-7.51h0Z"/>
  <path id="Path_68" data-name="Path 68" class="cls-6" d="m126.6,183.28s14.63-.69,35.9,2.74,29.22,7.08,28.58,11.2c-2.59,16.7-41.58,71.66-41.58,71.66l.69,7.77s-1.37,1.83-6.17,2.06-10.75-6.63-10.75-6.63c0,0,5.36-5.55,7.42-12.18s18.6-49.42,18.6-49.42c-15.1,2.86-30.58,3.01-45.73.46-24.01-4.34,13.03-27.67,13.03-27.67h0Z"/>
  <path id="Path_69" data-name="Path 69" class="cls-11" d="m162.51,186.02c-21.26-3.43-35.9-2.74-35.9-2.74,0,0-37.04,23.32-13.03,27.67,15.15,2.55,30.64,2.4,45.73-.46,0,0-6.89,17.81-12.33,32.23l16.13,6.2c11.52-17.47,26.42-41.58,27.98-51.69.64-4.12-7.32-7.77-28.58-11.2h0Z"/>
  <path id="Path_70" data-name="Path 70" class="cls-12" d="m149.51,268.89c-.93.38-1.67,1.13-2.06,2.06-.44,1.04-.82,2.11-1.15,3.2-2.5-.54-4.95-1.3-7.32-2.28-1.74-.8-3.42-1.71-5.03-2.74,0,0-2.06.23-2.06,1.6-.01,2.11-.4,4.2-1.15,6.17-.59,1.48-1.84,4.75-2.66,6.89-.37.96.12,2.04,1.08,2.4.09.03.17.06.26.08,3.62.8,11.25,2.57,17.78,4.58,8.92,2.74,18.75,1.37,19.89,1.15s5.71-2.97,3.66-4.8-14.18-6.63-16.69-9.83c-1.86-2.63-3.39-5.47-4.57-8.46h.01Z"/>
  <path id="Path_71" data-name="Path 71" class="cls-6" d="m169.86,286.54c-.01,2.27-1.17,4.53-4.8,4.53s-10.06-.46-19.21-4.12c-5.52-2.16-11.19-3.91-16.96-5.24-.28.74-.56,1.45-.79,2.07-.37.96.12,2.04,1.08,2.4.09.03.17.06.26.08,3.62.8,11.25,2.57,17.78,4.58,8.92,2.74,18.75,1.37,19.89,1.15s5.71-2.97,3.66-4.8c-.29-.24-.6-.46-.92-.64h0Z"/>
  <path id="Path_72" data-name="Path 72" class="cls-12" d="m80.42,130.01s-2.49,19.71-2.28,23.45,2.9,35.89,3.53,42.95,3.53,13.28,8.71,14.52,18.67,3.11,24.48,1.66,12.03-14.52,14.11-19.5,3.53-8.09,2.9-9.13c-1-1.21-2.11-2.32-3.32-3.32,0,0-5.19-37.76-6.43-47.51s-.62-10.58-5.19-14.32-28.21-6.85-36.51,11.2h0Z"/>
  <path id="Path_73" data-name="Path 73" class="cls-8" d="m113.61,198.81c-.75.57-1.53,1.11-2.32,1.62"/>
  <path id="Path_74" data-name="Path 74" class="cls-8" d="m127.29,182.13c-3.03,5.63-6.99,10.72-11.7,15.05"/>
  <path id="Path_75" data-name="Path 75" class="cls-8" d="m124.1,182.59c-4.37,4.03-9.12,7.63-14.18,10.75"/>
  <path id="Path_76" data-name="Path 76" class="cls-6" d="m129.79,67.99c1.14,2.4,2.04,4.9,2.7,7.47.62,3.11.83,6.02,2.28,6.64s4.15.83,3.73,2.49-3.11,4.36-3.11,4.36c0,0,.62,9.96.41,11.83s-11.2,1.87-11.83,1.87-6.85,14.73-6.85,14.73l-17.43-8.71,3.32-10.79s-5.39-10.37-5.81-14.94,10.17-12.86,16.18-14.73,16.39-.21,16.39-.21h0Z"/>
  <path id="Path_77" data-name="Path 77" class="cls-11" d="m123.99,102.63l-5.54-1.58,2.07,8.1,3.46-6.52Z"/>
  <path id="Path_78" data-name="Path 78" class="cls-16" d="m131.85,79.72c.28,1.17.14,2.2-.3,2.31s-1.04-.76-1.32-1.93-.14-2.2.3-2.31,1.04.75,1.32,1.93Z"/>
  <path id="Path_79" data-name="Path 79" class="cls-9" d="m128.34,90.81s2.49,1.87,4.77,1.04"/>
  <path id="Path_80" data-name="Path 80" class="cls-11" d="m128.76,64.05s2.9,5.19.83,8.51-7.05,4.77-9.75,7.88-4.15,8.51-5.19,8.92-4.15-5.81-6.02-5.39-4.98,4.77-2.28,9.34c1.52,2.65,4.43,4.18,7.47,3.94,0,0-7.47,3.94-8.92,3.94s-5.81-2.49-7.88-4.77-9.54-9.13-9.96-14.73,7.05-12.66,7.05-12.66c0,0-8.92-.62-6.64-3.94s10.37-5.39,10.37-5.39c0,0-1.45-5.19.62-6.22s14.73,3.11,14.73,3.11c0,0-3.53-4.56,1.45-4.77s13.49,6.02,14.11,12.24h0Z"/>
  <line id="Line_84" data-name="Line 84" class="cls-9" x1="112.25" y1="86.57" x2="138.71" y2="75.87"/>
  <path id="Path_81" data-name="Path 81" class="cls-9" d="m131.81,74.37c2.37-1.01,5.12.1,6.13,2.47.94,2.2.06,4.75-2.03,5.91"/>
  <path id="Path_82" data-name="Path 82" class="cls-12" d="m122.12,123.17s-.21-6.02-1.87-7.68-13.9-8.51-19.5-9.96-11.41.62-15.15,1.87-6.22,4.77-7.68,12.45-1.66,12.45,1.45,12.86,7.47-8.92,17.22-10.79,18.67-.21,20.74.83c1.51.61,3.18.76,4.77.41h0Z"/>
  <path id="Path_83" data-name="Path 83" class="cls-9" d="m90.61,116.8c-1.87.66-3.13,1.18-3.13,1.18"/>
  <path id="Path_84" data-name="Path 84" class="cls-9" d="m122.12,123.17s-13.07-7.26-17.84-8.71c-2.49-.76-6.96.24-10.67,1.37"/>
  <path id="Path_85" data-name="Path 85" class="cls-6" d="m183.73,156.89s-.68,4.32-1.48,4.8-.74-4.01-.74-4.01c-.41,1.13-.94,2.2-1.6,3.2-.61.62-.25-2.65-.25-2.65l.68-3.08,3.39,1.72h0Z"/>
  <path id="Path_86" data-name="Path 86" class="cls-6" d="m174.94,152.62l6.37.1s1.68.24,1.92,1.2c.34,1.06.74,2.1,1.2,3.12l-9.84-2.88.36-1.54h0Z"/>
  <path id="Path_87" data-name="Path 87" class="cls-6" d="m177.22,154.64s8.88-1.2,9.12-.48c.18.54.87,5.43,1.02,7,.01.14-.09.26-.22.27-.09,0-.17-.03-.22-.1l-2.49-4.29-6.72.48s-1.92-1.68-.48-2.88h0Z"/>
  <path id="Path_88" data-name="Path 88" class="cls-12" d="m103.5,127.75s-5.52,4.08-3.6,14.17,15.37,37.7,16.57,40.11,6.48,2.64,8.88,1.92,45.15-17.78,45.15-17.78c0,0,4.56-1.2,5.28-2.16s5.28-6,5.28-6c0,0,7.2.96,8.88.48s-1.68-.96-3.36-1.44c-1.3-.37-8.44-3.16-11.65-4.42-.94-.37-2.02-.14-2.73.58-2.25,2.3-7.04,7.2-7.96,7.92-1.2.96-35.06,6.72-35.06,6.72,0,0-7.92-37.22-11.04-40.35s-8.64-2.4-8.64-2.4"/>
  <path id="Path_89" data-name="Path 89" class="cls-6" d="m148.16,175.06c11.21-4.45,22.33-8.88,22.33-8.88,0,0,4.56-1.2,5.28-2.16s5.28-6,5.28-6c0,0,7.2.96,8.88.48s-1.68-.96-3.36-1.44c-1.3-.37-8.44-3.16-11.65-4.42-.94-.37-2.02-.14-2.73.58-2.25,2.3-7.04,7.2-7.96,7.92-.62.5-10.08,2.3-19.02,3.91l2.93,10.01h0Z"/>
  <path id="Path_90" data-name="Path 90" class="cls-7" d="m73.1,222.32l-10.46,69.52c-.04.31.17.6.49.64.27.04.52-.12.61-.37l15.76-68.65-6.4-1.15h0Z"/>
  <path id="Path_91" data-name="Path 91" class="cls-7" d="m88.71,222.78l4.55,68.93c.03.31.31.55.62.52.28-.03.51-.26.52-.54l.79-69.48-6.48.57h0Z"/>
  <path id="Path_92" data-name="Path 92" class="cls-7" d="m104.06,223.82l12.48,67.72c.07.31.37.5.68.43.28-.06.47-.32.44-.61l-7.27-69.02-6.33,1.48Z"/>
  <path id="Path_93" data-name="Path 93" class="cls-7" d="m128.19,223.24l10.21,68.19c.05.31.34.52.65.47.29-.05.5-.31.48-.61l-4.95-69.27-6.39,1.21h0Z"/>
  <path id="Path_94" data-name="Path 94" class="cls-18" d="m118.43,209.37s-12-4-17.61-18.41-14.81-39.22-21.21-42.43-18.81,2.8-19.61,26.02,1.08,40.49,6.25,46.18c4.57,5.03,12.35,11.43,39.33,11.89,24.09.41,33.93-8.77,37.27-11.89,3.43-3.2,8.81-9.75,4.4-9.75s-23.21,0-28.82-1.6h0Z"/>
  <g id="Butterfly">
    <path id="Path_95" data-name="Path 95" class="cls-6" d="m173.9,66.86s-4.68-5.47-11.2-6.51-6.95,8.47,1.39,12.64c2.33,1.07,4.92,1.48,7.47,1.17,0,0-6.64,7.85-2.35,9.11,9.64,2.82,7.55-11.98,7.55-11.98l-2.86-4.42h0Z"/>
    <path id="Path_96" data-name="Path 96" class="cls-6" d="m175.47,66.52s-2.74-6.66-.7-12.93,10.21-2.01,10.13,7.3c-.03,2.41-.68,4.77-1.87,6.86,0,0,10.47-2.23,9.18,2.07-2.93,9.75-14.1,1.27-14.1,1.27l-2.64-4.56Z"/>
    <path id="Path_97" data-name="Path 97" class="cls-16" d="m179.1,74.84c-.24,0-.47-.13-.59-.34l-6.51-10.93c-.19-.33-.08-.75.24-.94.33-.19.74-.09.94.24l6.51,10.93c.19.32.09.74-.24.94,0,0,0,0,0,0-.1.07-.23.1-.35.1h0Z"/>
    <path id="Path_98" data-name="Path 98" class="cls-9" d="m173.11,64.52s-2.35-4.95-6.51-5.47"/>
    <path id="Path_99" data-name="Path 99" class="cls-9" d="m173.18,62.87s-1.37-4.07-.33-6.68"/>
    <path id="Path_100" data-name="Path 100" class="cls-8" d="m169.03,67.49c-.25,1.21-2.04,1.87-4.02,1.47s-3.38-1.71-3.13-2.92,2.04-1.87,4.02-1.47,3.38,1.71,3.13,2.92Z"/>
    <path id="Path_101" data-name="Path 101" class="cls-8" d="m173.9,76c.7.46.66,1.76-.09,2.9s-1.92,1.69-2.62,1.24-.66-1.76.09-2.9,1.92-1.7,2.62-1.24Z"/>
    <path id="Path_102" data-name="Path 102" class="cls-8" d="m188.2,70.26c.01.84-1.08,1.53-2.45,1.54s-2.48-.64-2.49-1.48,1.08-1.53,2.45-1.54,2.48.65,2.49,1.48Z"/>
    <path id="Path_103" data-name="Path 103" class="cls-8" d="m179.75,63.09c-1.23.14-2.4-1.38-2.63-3.38s.6-3.74,1.83-3.88,2.4,1.38,2.63,3.38-.6,3.74-1.82,3.88h0Z"/>
  </g>
  <g id="Floor">
    <line id="Line_85" data-name="Line 85" class="cls-9" x1=".5" y1="292.52" x2="320.01" y2="292.52"/>
  </g>
  <g id="Group_114" data-name="Group 114">
    <path id="Path_339" data-name="Path 339" class="cls-18" d="m227.94,146.85c1.24,3.04-.61,7.54-2.92,8.23-1.25.38-2.28-.49-3.18.22-.97.76-.23,2.13-.89,3.57-1.06,2.34-5,3.15-7.81,2.77-.45-.06-4.77-.71-6.44-4.01-1.47-2.92.68-4.85-.78-7.09-1.83-2.83-6.14-1.12-7.57-3.69-1.32-2.37.53-7.07,3.39-8.44,1.55-.74,3.02-.33,4.01-1.62.81-1.05.25-1.89.88-2.97,1.02-1.74,4.22-2.55,6.51-1.75,3.51,1.22,2.28,5.35,6.45,9.31,3.77,3.59,7.08,2.39,8.34,5.48h0Z"/>
    <path id="Path_340" data-name="Path 340" class="cls-17" d="m216.46,141.62c-.48,0-1.23-.04-2.23-.12-.98-.08-1.72-.11-2.23-.1h-.69c.02.95.11,2.48.26,4.6.14,1.98.22,3.52.21,4.61,0,.24.02.6.07,1.09s.07.85.07,1.1c.01.41-.06.82-.22,1.2-.1.39-.45.66-.85.68-.26,0-.51-.1-.7-.29-.21-.19-.32-.46-.31-.74,0-.16.02-.31.05-.46s.04-.31.05-.46c0-.33-.02-.84-.07-1.51s-.07-1.18-.07-1.52c0-.98-.07-2.36-.22-4.13-.16-1.92-.24-3.29-.26-4.13h-.89c-1.13.04-2.26-.07-3.36-.32-.48-.09-.82-.52-.79-1.01,0-.27.09-.53.25-.74.18-.23.46-.36.75-.33.23.01.75.08,1.56.19.52.07,1.05.11,1.58.12.4,0,.98,0,1.78-.03s1.39-.03,1.78-.03c.5,0,1.24.04,2.23.11s1.73.11,2.23.11c.27,0,.52.1.7.3.19.2.29.48.28.76,0,.28-.09.55-.28.75-.18.2-.43.31-.7.3h0Z"/>
    <path id="Path_341" data-name="Path 341" class="cls-19" d="m219.44,155.05c-1.12.66-2.41.96-3.7.88-.47,0-.94-.07-1.39-.19-.51-.1-.99-.3-1.41-.58h-.08c-.23,0-.44-.09-.6-.25-.16-.16-.24-.38-.24-.61,0-.58.03-1.45.08-2.62.05-1.16.08-2.03.08-2.62,0-.65-.01-1.62-.04-2.91s-.04-2.26-.04-2.91c.02-.27.15-.53.35-.71.17-.22.42-.35.7-.38.46.13.91.32,1.33.56.85.41,1.35.65,1.48.69,1.52.5,2.9,1.35,4.03,2.48,1.21,1.12,1.92,2.68,1.95,4.33,0,.95-.23,1.89-.67,2.73-.42.84-1.05,1.57-1.83,2.1Zm-1.75-8.8c-1.26-.72-2.57-1.36-3.92-1.92l.04,2.39.03,2.39-.13,4.54c.06.03.12.07.17.11.55.35,1.2.52,1.85.49.96.07,1.92-.13,2.76-.58.55-.38.99-.88,1.28-1.48.31-.6.48-1.26.48-1.93-.08-1.7-1.05-3.23-2.56-4.02h0Z"/>
  </g>
</svg>