<?xml version="1.0" encoding="UTF-8"?>
<svg id="Layer_1" data-name="Layer 1" xmlns="http://www.w3.org/2000/svg" viewBox="0 0 327.26 287.72">
  <defs>
    <style>
      .cls-1 {
        fill: #c30e59;
      }

      .cls-1, .cls-2, .cls-3, .cls-4, .cls-5, .cls-6, .cls-7, .cls-8, .cls-9, .cls-10, .cls-11, .cls-12, .cls-13 {
        stroke-linecap: round;
        stroke-linejoin: round;
      }

      .cls-1, .cls-4, .cls-5, .cls-8, .cls-10, .cls-11, .cls-12, .cls-13 {
        stroke: #263238;
      }

      .cls-14, .cls-7, .cls-8 {
        fill: #fff;
      }

      .cls-2, .cls-3, .cls-6, .cls-7 {
        stroke: #a8a8a8;
      }

      .cls-2, .cls-3, .cls-9, .cls-11, .cls-12 {
        fill: none;
      }

      .cls-3 {
        stroke-width: 3px;
      }

      .cls-4 {
        fill: #f8e9af;
      }

      .cls-5 {
        fill: #200f21;
      }

      .cls-6, .cls-13, .cls-15 {
        fill: #a8a8a8;
      }

      .cls-9 {
        stroke: #7a7a7a;
      }

      .cls-10 {
        fill: #eea064;
      }

      .cls-11 {
        stroke-width: 2px;
      }
    </style>
  </defs>
  <g id="Clock">
    <circle id="Ellipse_8" data-name="Ellipse 8" class="cls-7" cx="255.11" cy="27.96" r="27.46"/>
    <circle id="Ellipse_9" data-name="Ellipse 9" class="cls-7" cx="255.11" cy="27.96" r="24.98"/>
    <path id="Path_109" data-name="Path 109" class="cls-2" d="m246.62,36.63l8.48-8.67,21.03,7.75"/>
    <path id="Path_110" data-name="Path 110" class="cls-6" d="m256.76,27.96c0,.92-.74,1.66-1.66,1.66s-1.66-.74-1.66-1.66.74-1.66,1.66-1.66h0c.92,0,1.66.74,1.66,1.66Z"/>
  </g>
  <g id="Group_46" data-name="Group 46">
    <path id="Path_111" data-name="Path 111" class="cls-6" d="m17.39,22.02c1.13.3,2.29.43,3.45.38.03,0-.53-1.6-.57-1.7-.54-1.12-2.24-2.98-3.62-2.8-.9.15-1.51,1-1.36,1.9,0,.06.02.12.04.18.35.95,1.11,1.7,2.07,2.05Z"/>
    <path id="Path_112" data-name="Path 112" class="cls-6" d="m49.49,13.68c-1.39-.15-3.04,1.75-3.54,2.89-.04.1-.55,1.71-.53,1.71h.03c-.26.3-.54.62-.84.98-.54.67-1.15,1.42-1.76,2.29-.66.93-1.27,1.9-1.82,2.9-.62,1.12-1.14,2.29-1.56,3.5,0,.01,0,.03-.01.04,0-.41-.01-1.56-.02-1.64-.16-1.23-1.2-3.53-2.57-3.79-.9-.14-1.74.48-1.88,1.38,0,.06-.01.12-.02.18.04,1.02.52,1.96,1.33,2.59.97.63,2.02,1.11,3.13,1.43-.39,1.24-.7,2.51-.92,3.79-.13.75-.24,1.51-.35,2.27,0-.36-.01-.67-.02-.71-.16-1.23-1.2-3.53-2.57-3.79-.9-.14-1.74.48-1.88,1.38,0,.06-.01.12-.02.18.04,1.02.52,1.96,1.33,2.59.93.62,1.96,1.09,3.03,1.4-.03.29-.08.59-.11.87-.17,1.4-.33,2.8-.53,4.17-.07.48-.16.96-.24,1.43,0-.31-.01-.58-.01-.62-.16-1.23-1.2-3.53-2.57-3.79-.9-.14-1.75.47-1.89,1.37-.01.06-.02.13-.02.19.04,1.02.52,1.96,1.33,2.59.91.61,1.9,1.07,2.95,1.37-.1.48-.2.96-.32,1.42-.09.31-.15.62-.26.93l-.29.92c-.21.58-.42,1.17-.64,1.73-.15.39-.3.75-.45,1.13.08-.48.2-1.42.2-1.5-.01-1.1-.31-2.17-.85-3.13,0-.12,0-.24-.02-.36-.11-.9-.94-1.55-1.84-1.43-.06,0-.12.02-.18.03-1.35.36-2.2,2.73-2.27,3.97,0,.08.04.87.08,1.38-.07-.29-.13-.58-.2-.88-.14-.6-.3-1.18-.47-1.83-.09-.31-.19-.61-.28-.92s-.22-.63-.33-.94c-.26-.73-.57-1.46-.9-2.18,1.09-.22,2.14-.62,3.11-1.16.85-.56,1.4-1.47,1.51-2.48.02-.91-.7-1.67-1.61-1.7-.06,0-.12,0-.17,0-1.39.15-2.59,2.36-2.85,3.58-.01.08-.1.97-.13,1.46-.2-.43-.4-.87-.61-1.3-.62-1.25-1.29-2.5-1.94-3.74-.2-.38-.4-.77-.6-1.14,1.13-.23,2.22-.64,3.23-1.19.85-.56,1.4-1.47,1.51-2.48.02-.91-.7-1.67-1.61-1.7-.06,0-.12,0-.17,0-1.39.15-2.59,2.36-2.84,3.58-.02.09-.13,1.38-.15,1.71-.44-.84-.86-1.69-1.25-2.53-.53-1.14-.98-2.32-1.36-3.52,1.14-.24,2.23-.64,3.25-1.2.85-.56,1.4-1.47,1.51-2.48.03-.91-.69-1.67-1.61-1.7-.06,0-.12,0-.18,0-1.39.15-2.59,2.36-2.84,3.58-.02.1-.15,1.49-.15,1.74-.02-.07-.05-.14-.07-.21-.34-1.22-.58-2.46-.7-3.72-.08-.69-.11-1.36-.13-2.01,1.13-.11,2.23-.38,3.28-.82.9-.47,1.55-1.31,1.78-2.3.12-.9-.51-1.74-1.41-1.86-.06,0-.12-.01-.18-.01-1.39,0-2.84,2.06-3.22,3.25-.02.06-.16.75-.26,1.24,0-.29-.01-.59-.01-.88,0-1.05.07-2.02.13-2.88.04-.49.09-.93.14-1.33.95-.61,1.79-1.37,2.51-2.24.59-.83.77-1.88.52-2.86-.31-.86-1.25-1.31-2.11-1-.06.02-.11.04-.16.07-1.24.64-1.57,3.14-1.36,4.36.02.1.49,1.74.51,1.72h.02c-.06.38-.11.8-.16,1.26-.08.86-.17,1.83-.2,2.89-.04,1.14-.01,2.28.08,3.42.1,1.28.31,2.54.63,3.78,0,.01,0,.03.01.04-.22-.34-.86-1.29-.92-1.35-.82-.94-2.94-2.29-4.23-1.74-.83.38-1.2,1.36-.82,2.19.03.06.05.11.09.16.59.82,1.52,1.34,2.53,1.42,1.15,0,2.3-.19,3.4-.54.36,1.25.8,2.48,1.33,3.67.3.7.63,1.39.96,2.08-.2-.29-.38-.55-.41-.59-.82-.94-2.95-2.29-4.23-1.74-.83.38-1.2,1.36-.82,2.19.03.06.05.11.09.16.59.82,1.52,1.34,2.53,1.42,1.12,0,2.23-.17,3.3-.51.13.26.26.53.39.79.63,1.26,1.27,2.52,1.85,3.76.21.44.4.89.59,1.32-.17-.26-.33-.47-.36-.51-.82-.94-2.94-2.29-4.23-1.74-.83.38-1.2,1.36-.82,2.19.03.06.05.11.09.16.59.82,1.52,1.34,2.53,1.42,1.09,0,2.17-.16,3.21-.48.18.46.36.91.52,1.37.1.31.22.6.29.92s.17.62.26.93c.14.6.29,1.21.42,1.8.09.4.17.79.25,1.18-.2-.44-.61-1.3-.65-1.37-.66-1.05-2.57-2.71-3.92-2.36-.88.25-1.39,1.17-1.14,2.05.02.06.03.11.06.16.46.9,1.3,1.56,2.29,1.79,1.13.17,2.29.17,3.42,0,.13.65.25,1.28.36,1.88.36,2.07.59,3.81.73,5.03h-6.36v20.28h14.68v-20.28h-5.85c.52-1.09,1.18-2.54,1.89-4.29.26-.62.52-1.29.78-1.98,1.12.26,2.27.35,3.41.26,1-.16,1.89-.75,2.41-1.62.4-.81.07-1.8-.74-2.21-.06-.03-.11-.05-.17-.07-1.33-.45-3.34,1.06-4.09,2.06-.04.06-.45.75-.69,1.2.1-.28.21-.56.31-.84.21-.58.4-1.16.61-1.78.09-.31.18-.61.28-.93s.17-.64.25-.97c.18-.75.33-1.53.45-2.32,1.03.41,2.13.66,3.24.75,1.02,0,1.98-.45,2.63-1.23.52-.74.35-1.77-.39-2.29-.05-.04-.11-.07-.16-.1-1.24-.64-3.47.54-4.35,1.42-.06.06-.62.76-.92,1.15.08-.47.15-.94.21-1.42.17-1.39.3-2.79.44-4.19.04-.43.09-.86.13-1.28,1.07.43,2.2.69,3.35.79,1.02,0,1.98-.45,2.63-1.23.52-.74.35-1.77-.39-2.29-.05-.04-.11-.07-.16-.1-1.24-.64-3.47.54-4.35,1.42-.07.07-.88,1.08-1.07,1.35.1-.94.21-1.88.35-2.8.19-1.25.45-2.48.8-3.69,1.08.43,2.21.7,3.37.79,1.02,0,1.98-.45,2.63-1.23.52-.74.35-1.77-.39-2.29-.05-.04-.11-.07-.16-.1-1.24-.64-3.47.54-4.35,1.42-.07.07-.94,1.16-1.08,1.37.02-.07.03-.15.06-.22.38-1.2.87-2.37,1.46-3.49.32-.62.65-1.2,1-1.75,1,.53,2.07.91,3.19,1.12,1.01.11,2.02-.24,2.75-.93.6-.68.54-1.73-.15-2.33-.04-.04-.09-.08-.14-.11-1.16-.77-3.5.15-4.48.93-.06.04-.54.53-.9.89.16-.24.31-.5.47-.74.59-.88,1.17-1.64,1.7-2.33.3-.38.59-.72.85-1.04,1.13.01,2.25-.15,3.33-.47.95-.37,1.68-1.14,2.01-2.1.22-.89-.33-1.79-1.21-2-.05-.01-.11-.02-.17-.03l.04-.03Zm-15.37,37.29c-.84,1.93-1.61,3.51-2.17,4.6h0s-.47,0-.47,0c0-.04-.01-.08-.01-.13-.17-1.23-.43-2.98-.85-5.07-.13-.66-.28-1.36-.45-2.08.65-.26,1.29-.56,1.91-.9.84.72,1.78,1.33,2.78,1.79-.25.61-.5,1.21-.74,1.76h0Z"/>
    <path id="Path_113" data-name="Path 113" class="cls-6" d="m42.17,22.56s.45-1.63.46-1.74c.17-1.23-.22-3.72-1.48-4.33-.83-.37-1.81,0-2.18.83-.03.06-.05.11-.07.17-.23.99,0,2.03.6,2.85.77.87,1.67,1.62,2.67,2.22h0Z"/>
  </g>
  <rect id="Rectangle_21" data-name="Rectangle 21" class="cls-7" x="19.54" y="76.22" width="78.52" height="210.77"/>
  <g id="Group_47" data-name="Group 47">
    <rect id="Rectangle_22" data-name="Rectangle 22" class="cls-7" x="23.63" y="82.08" width="69.65" height="42.19"/>
    <rect id="Rectangle_23" data-name="Rectangle 23" class="cls-6" x="50.88" y="89.1" width="12.72" height="4.96"/>
  </g>
  <g id="Group_48" data-name="Group 48">
    <rect id="Rectangle_24" data-name="Rectangle 24" class="cls-7" x="23.63" y="132.55" width="69.65" height="42.19"/>
    <rect id="Rectangle_25" data-name="Rectangle 25" class="cls-6" x="50.88" y="139.57" width="12.72" height="4.96"/>
  </g>
  <g id="Group_49" data-name="Group 49">
    <rect id="Rectangle_26" data-name="Rectangle 26" class="cls-7" x="23.63" y="183.03" width="69.65" height="42.19"/>
    <rect id="Rectangle_27" data-name="Rectangle 27" class="cls-6" x="50.88" y="190.04" width="12.72" height="4.96"/>
  </g>
  <g id="Group_50" data-name="Group 50">
    <rect id="Rectangle_28" data-name="Rectangle 28" class="cls-7" x="23.63" y="233.5" width="69.65" height="42.19"/>
    <rect id="Rectangle_29" data-name="Rectangle 29" class="cls-6" x="50.88" y="240.51" width="12.72" height="4.96"/>
  </g>
  <g id="Group_52" data-name="Group 52">
    <rect id="Rectangle_30" data-name="Rectangle 30" class="cls-7" x="52.46" y="37.36" width="39.18" height="32.02"/>
    <path id="Path_114" data-name="Path 114" class="cls-6" d="m93.15,76.15v-19.21l-19.58-21.1h-22.6v40.31h42.19Z"/>
  </g>
  <g id="Group_56" data-name="Group 56">
    <g id="Group_55" data-name="Group 55">
      <rect id="Rectangle_31" data-name="Rectangle 31" class="cls-7" x="233.23" y="106.89" width="20.32" height="54.51"/>
      <rect id="Rectangle_32" data-name="Rectangle 32" class="cls-6" x="206.44" y="99.97" width="73.91" height="52.66"/>
      <rect id="Rectangle_33" data-name="Rectangle 33" class="cls-7" x="209.67" y="103.19" width="67.44" height="46.19"/>
      <g id="Group_53" data-name="Group 53">
        <circle id="Ellipse_10" data-name="Ellipse 10" class="cls-15" cx="266.93" cy="131.11" r="7.61"/>
        <path id="Path_115" data-name="Path 115" class="cls-14" d="m266.36,126.13v-.78h1.35v.78c1.16.24,1.76,1.14,1.76,2.56v.33h-1.55v-.43c0-.75-.3-1.03-.82-1.03s-.82.29-.82,1.03c0,2.15,3.22,2.26,3.22,5.26.17,1.19-.6,2.31-1.78,2.57v.77h-1.35v-.77c-1.18-.24-1.79-1.15-1.79-2.57v-.72h1.55v.82c0,.75.33,1.02.85,1.02s.85-.27.85-1.02c0-2.15-3.22-2.26-3.22-5.26,0-1.41.59-2.31,1.74-2.56h0Z"/>
      </g>
      <g id="Group_54" data-name="Group 54">
        <path id="Path_116" data-name="Path 116" class="cls-3" d="m220.14,133.42l9.22-9.91,7.38,4.38,6.92-8.3,10.14,4.15,13.6-11.07"/>
        <path id="Path_117" data-name="Path 117" class="cls-15" d="m271.15,109.62l-8.84,1.39,5.63,6.96,3.21-8.36Z"/>
      </g>
    </g>
    <rect id="Rectangle_34" data-name="Rectangle 34" class="cls-7" x="227.69" y="160.94" width="31.87" height="2.78"/>
    <rect id="Rectangle_35" data-name="Rectangle 35" class="cls-7" x="151.01" y="160.94" width="60.97" height="2.78"/>
  </g>
  <g id="Group_60" data-name="Group 60">
    <rect id="Rectangle_36" data-name="Rectangle 36" class="cls-7" x="303.9" y="173.12" width="5.54" height="114.09"/>
    <rect id="Rectangle_37" data-name="Rectangle 37" class="cls-7" x="149.16" y="173.12" width="157.48" height="17.56"/>
    <rect id="Rectangle_38" data-name="Rectangle 38" class="cls-7" x="147.31" y="173.12" width="5.54" height="114.09"/>
    <rect id="Rectangle_39" data-name="Rectangle 39" class="cls-7" x="249.86" y="173.12" width="59.58" height="97"/>
    <rect id="Rectangle_40" data-name="Rectangle 40" class="cls-6" x="143.24" y="167.16" width="169.91" height="7.81"/>
    <rect id="Rectangle_41" data-name="Rectangle 41" class="cls-7" x="138.15" y="163.94" width="180.08" height="5"/>
    <g id="Group_57" data-name="Group 57">
      <rect id="Rectangle_42" data-name="Rectangle 42" class="cls-7" x="253.09" y="179.59" width="53.12" height="23.56"/>
      <rect id="Rectangle_43" data-name="Rectangle 43" class="cls-6" x="273.88" y="189.75" width="9.7" height="2.78"/>
    </g>
    <g id="Group_58" data-name="Group 58">
      <rect id="Rectangle_44" data-name="Rectangle 44" class="cls-7" x="253.09" y="211" width="53.12" height="23.56"/>
      <rect id="Rectangle_45" data-name="Rectangle 45" class="cls-6" x="273.88" y="221.16" width="9.7" height="2.78"/>
    </g>
    <g id="Group_59" data-name="Group 59">
      <rect id="Rectangle_46" data-name="Rectangle 46" class="cls-7" x="253.09" y="242.41" width="53.12" height="23.56"/>
      <rect id="Rectangle_47" data-name="Rectangle 47" class="cls-6" x="273.88" y="252.57" width="9.7" height="2.78"/>
    </g>
  </g>
  <g id="Group_61" data-name="Group 61">
    <rect id="Rectangle_48" data-name="Rectangle 48" class="cls-6" x="202.07" y="212.91" width="7.66" height="29.21"/>
    <rect id="Rectangle_49" data-name="Rectangle 49" class="cls-6" x="200.12" y="237.52" width="11.54" height="36.93"/>
    <path id="Path_118" data-name="Path 118" class="cls-6" d="m211.43,273.49l-5.35-1.44v-.27l-.49.13-.48-.13v.27l-5.35,1.44-36.45,6.8v2.67h84.56v-2.67l-36.44-6.8Z"/>
    <path id="Path_119" data-name="Path 119" class="cls-6" d="m169.02,284.66c0,1.41-1.14,2.55-2.55,2.55s-2.55-1.14-2.55-2.55c0-1.41,1.14-2.55,2.55-2.55,1.41,0,2.55,1.14,2.55,2.55Z"/>
    <path id="Path_120" data-name="Path 120" class="cls-6" d="m208.14,284.66c0,1.41-1.14,2.55-2.55,2.55s-2.55-1.14-2.55-2.55,1.14-2.55,2.55-2.55c1.41,0,2.55,1.14,2.55,2.55Z"/>
    <path id="Path_121" data-name="Path 121" class="cls-6" d="m247.51,284.66c0,1.41-1.14,2.55-2.55,2.55s-2.55-1.14-2.55-2.55,1.14-2.55,2.55-2.55c1.41,0,2.55,1.14,2.55,2.55Z"/>
  </g>
  <g id="Group_62" data-name="Group 62">
    <path id="Path_122" data-name="Path 122" class="cls-7" d="m168.97,184.91h7.57v32.81h-2.7c-2.69,0-4.87-2.18-4.87-4.87v-27.94h0Z"/>
    <rect id="Rectangle_50" data-name="Rectangle 50" class="cls-7" x="164.64" y="178.06" width="11.9" height="6.13"/>
  </g>
  <g id="Group_63" data-name="Group 63">
    <path id="Path_123" data-name="Path 123" class="cls-7" d="m235.51,217.72h0c4.18,0,7.57-3.39,7.57-7.57h0v-25.24h-7.57v32.81Z"/>
    <rect id="Rectangle_51" data-name="Rectangle 51" class="cls-7" x="235.51" y="178.06" width="11.9" height="6.13"/>
  </g>
  <path id="Path_124" data-name="Path 124" class="cls-7" d="m229.35,222.14h-46.91c-5.48,0-9.93-4.44-9.93-9.93h0l5.56-70.13c0-4.57,3.71-8.28,8.28-8.28h39.09c4.57,0,8.28,3.71,8.28,8.28l5.56,70.13c0,5.48-4.44,9.93-9.93,9.93h0Z"/>
  <path id="Path_125" data-name="Path 125" class="cls-7" d="m229.35,225.84h-46.91c-5.48,0-9.93-4.44-9.93-9.93h0l5.56-70.13c0-4.57,3.71-8.28,8.28-8.28h39.09c4.57,0,8.28,3.71,8.28,8.28l5.56,70.13c0,5.48-4.44,9.93-9.93,9.93h0Z"/>
  <path id="Path_126" data-name="Path 126" class="cls-5" d="m117.47,147.87l-3.83,10.6s-21.06,30.78-26.95,40.2-5.2,8.25-4.91,11.48,13.99,48.19,14.29,52.9c.19,2.55.19,5.11,0,7.66l5.59-.89c-.81,2.1-1.89,4.08-3.24,5.89-2.06,2.65-2.36,3.83-5.88,6.48s-6.18,2.65-4.12,3.83,10.89,1.18,13.54-.59,4.41-5.01,5.88-6.48l2.36-2.37.88,2.65s2.94-3.23,4.12-3.83c.88-.59,1.59-1.4,2.06-2.36,0,0-.88-2.36-1.76-4.12s-4.41-4.41-4.41-4.41c0,0-2.55-24.41-4.9-35.89s-.84-11.71-1.44-13.48c-.42-1.21-.91-2.39-1.47-3.54l24.76-31.91c.22-.22.48-.39.78-.47h0c.95-.29,1.96.25,2.24,1.2.06.21.09.42.07.64-.63,9.29-1.66,36.34-.41,40.1,1.47,4.41,12.13,20.78,12.95,22.37,2.11,4.1,11.97,16.88,13.74,20.71s3.54,7.95,3.54,7.95l5.3-3.23s1.47,2.06,0,3.83-5.88,8.53-9.13,10.6-2.06,3.83-2.06,3.83c0,0,11.78-.29,13.83-.59s3.54-2.65,5.01-4.71c1.3-1.99,2.48-4.06,3.54-6.18l2.36,2.06s1.47-2.94,2.36-5.3c.54-1.51.84-3.1.88-4.71,0,0-3.54-3.23-5.88-4.12s-4.41-1.76-4.41-1.76l-2.95-4.41s-7.95-27.67-11.48-34.44c-1.9-3.8-4.39-7.28-7.36-10.3,0,0,9.52-34.83,11.29-42.49,1.06-4.56,1.84-9.18,2.36-13.83-7.37-5.25-15.82-8.77-24.73-10.3-15.01-2.65-22.37,1.76-22.37,1.76h-.02Z"/>
  <g id="Group_65" data-name="Group 65">
    <path id="Path_127" data-name="Path 127" class="cls-9" d="m132.83,151.57v3.33s-5.19,5.19-4.64,6.86,1.85,9.08,1.85,9.08"/>
    <path id="Path_128" data-name="Path 128" class="cls-9" d="m136.54,151.76l.37,3.71s-4.82,6.11-5.01,7.04c-.07.99,0,1.99.19,2.96"/>
    <path id="Path_129" data-name="Path 129" class="cls-9" d="m141.73,154.54c4.43,1.22,8.71,2.89,12.79,5.01"/>
    <path id="Path_130" data-name="Path 130" class="cls-9" d="m154.73,162.07c-3.16-1.27-6.38-2.37-9.66-3.27"/>
    <path id="Path_131" data-name="Path 131" class="cls-9" d="m159.15,163.81s-.82-.33-2.08-.82"/>
    <path id="Path_132" data-name="Path 132" class="cls-9" d="m141.39,171.89c3.56-1.26,8.23-2.53,12.2-2.34"/>
    <path id="Path_133" data-name="Path 133" class="cls-9" d="m135.8,174.19s1.07-.52,2.77-1.22"/>
    <line id="Line_87" data-name="Line 87" class="cls-9" x1="122.53" y1="162.81" x2="123.75" y2="163.99"/>
    <line id="Line_88" data-name="Line 88" class="cls-9" x1="116.71" y1="157.14" x2="120.75" y2="161.07"/>
    <line id="Line_89" data-name="Line 89" class="cls-9" x1="117.45" y1="153.43" x2="124.12" y2="154.18"/>
  </g>
  <g id="Group_67" data-name="Group 67">
    <path id="Path_134" data-name="Path 134" class="cls-1" d="m155.67,82.19s-11.68,1.39-15.05,2.18-5.74.79-6.54,1.79-7.92,7.33-11.29,9.11-13.47,4.55-13.67,5.15,1.39,10.5.99,13.67-.79,5.15-.79,5.15l18.82-7.33s-4.76,18.23-6.54,22.78-2.18,7.53-3.56,8.52-2.57.79-2.57,2.57,1.18,4.16,1.79,4.36,12.88-1.39,17.63-.59,22.78,8.52,26.54,11.09,3.96,1.39,5.35-1.39,1.39-8.52,1.39-9.11,14.86-33.28,14.86-33.28c0,0,2.18,16.44,4.36,17.63,3.72,1.56,8.01-.1,9.71-3.76,2.38-4.76,7.33-11.89,4.95-17.43s-5.55-12.48-7.33-16.44-3.37-4.36-7.92-6.14-16.64-7.53-17.83-7.73-13.27-.79-13.27-.79h0Z"/>
    <g id="Group_66" data-name="Group 66">
      <path id="Path_135" data-name="Path 135" class="cls-12" d="m147.48,136.51c4.04,5.42,10.29,14.27,11.82,19.19"/>
      <path id="Path_136" data-name="Path 136" class="cls-12" d="m143.93,131.88s.55.69,1.45,1.86"/>
      <path id="Path_137" data-name="Path 137" class="cls-12" d="m163.41,154.41c.17.35.34.7.5,1.03"/>
      <path id="Path_138" data-name="Path 138" class="cls-12" d="m159.81,148.01s1.23,1.97,2.49,4.27"/>
      <path id="Path_139" data-name="Path 139" class="cls-12" d="m125.49,148.27s12.81-.77,15.62-.26"/>
      <path id="Path_140" data-name="Path 140" class="cls-12" d="m138.55,149.29s7.68.77,10.76,2.05"/>
    </g>
    <path id="Path_141" data-name="Path 141" class="cls-1" d="m183.01,116.85l-2.1-6.9-.38,6.08-8.36-.38,8.74,5.13,2.1-3.93Z"/>
    <line id="Line_90" data-name="Line 90" class="cls-12" x1="128.14" y1="112.5" x2="134.08" y2="91.3"/>
    <path id="Path_142" data-name="Path 142" class="cls-1" d="m131.11,101.4l-2.25-5.7-.38,13.11-2.85.38,2.51,2.71,2.97-10.5Z"/>
  </g>
  <path id="Path_143" data-name="Path 143" class="cls-1" d="m111.1,98.82s4.76,4.55,5.55,8.12-1.98,9.11-3.37,11.29-2.97,2.77-6.93,3.17-8.32-2.97-8.52-6.34,4.76-17.03,13.27-16.24h0Z"/>
  <path id="Path_144" data-name="Path 144" class="cls-5" d="m146.37,105.36s-10.1,12.29-18.03,16.84-12.88,7.73-12.88,7.73l-2.77,13.27s11.09-1.58,14.46-2.77c1.45-.43,2.85-1.02,4.16-1.79,0,0,6.93-14.66,11.68-22.78s5.35-9.31,5.35-9.31l-1.98-1.18h0Z"/>
  <path id="Path_145" data-name="Path 145" class="cls-5" d="m147.75,90.9c0,.59-1.39,14.46-1.39,14.46l1.98,1.18,13.07-9.71s.59-2.38-.2-2.38-7.13,4.55-7.13,4.55l-5.55-2.18.59-5.74-1.39-.2h.01Z"/>
  <path id="Path_146" data-name="Path 146" class="cls-5" d="m154.68,98.6c-.37.26-.59.42-.59.42l-.75-.29-6.39.61c-.15,1.58-.3,3.07-.41,4.18l6.75-.64,6.4-4.75-5.01.48h0Z"/>
  <g id="Group_68" data-name="Group 68">
    <path id="Path_147" data-name="Path 147" class="cls-10" d="m142.22,117.21l-8.12.77c-1.79,1.58-3.72,2.99-5.77,4.22-.34.2-.65.38-.98.57l12.48-1.18c.82-1.53,1.62-3.01,2.38-4.37h0Z"/>
    <path id="Path_148" data-name="Path 148" class="cls-10" d="m114.51,134.48l19.73-1.88c.65-1.33,1.39-2.81,2.16-4.34l-21,2-.88,4.23h0Z"/>
    <path id="Path_149" data-name="Path 149" class="cls-10" d="m144.02,108.07c-1.12,1.26-2.58,2.85-4.23,4.55l5.4-.52c1.28-2.2,2.05-3.56,2.51-4.38l-3.68.35Z"/>
  </g>
  <path id="Path_150" data-name="Path 150" class="cls-1" d="m157.06,78.62s-5.94,2.97-6.74,4.36-2.18,6.14-5.15,9.91-6.34,6.34-3.37,5.15,7.13-5.55,7.13-5.55l1.79,5.55c.94.22,1.93.08,2.77-.4,1.79-.79,5.74-3.56,5.74-1.98s-1.18,9.31,0,8.12,1.79-5.15,6.54-8.92,8.92-5.94,9.11-10.3-1.18-5.35-5.15-6.34-12.29-.4-12.68.4h0Z"/>
  <g id="Group_69" data-name="Group 69">
    <path id="Path_151" data-name="Path 151" class="cls-4" d="m155.08,74.85s.59,3.17-1.18,8.32-5.94,16.44-2.38,15.26,17.43-12.48,18.62-14.06,4.16-13.47,4.16-13.47c0,0-11.68,3.17-15.05,3.56s-4.16.4-4.16.4h0Z"/>
    <path id="Path_152" data-name="Path 152" class="cls-4" d="m155.08,74.85c.22,1.87.08,3.77-.4,5.59,16.89-3.24,19.62-9.55,19.62-9.55,0,0-11.69,3.17-15.05,3.56s-4.16.4-4.16.4h0Z"/>
  </g>
  <path id="Path_153" data-name="Path 153" class="cls-5" d="m180.24,66.14s-1.79-2.18,5.74-4.55,11.89-4.75,10.9-9.31-6.34-5.75-6.34-5.75c0,0,4.55-8.52,1.58-10.3s-6.54.79-6.54.79c0,0,.79-6.34-2.38-6.54s-6.34,2.57-6.34,2.57c0,0-.2-6.54-5.74-5.35s-3.56,6.93-3.56,6.93c0,0-6.34-2.57-8.52,1.39s-.4,5.55-.4,5.55c-1.25.47-2.11,1.64-2.18,2.97,0,2.18,1.98,4.36,3.56,4.55s3.96-.99,5.94-.59,9.51,4.75,7.33,11.68.4,8.12,1.39,8.72,4.76-1.18,5.55-2.78h0Z"/>
  <g id="Group_71" data-name="Group 71">
    <path id="Path_154" data-name="Path 154" class="cls-4" d="m178.26,54.85s2.77-3.37,2.77-5.55-7.53-7.53-12.08-7.53-11.09,5.55-11.09,6.93,0,2.18-.99,3.17-4.76,2.97-5.74,5.15-4.36,16.44-3.56,17.24,5.29,1.65,6.54,1.58c4.16-.2,12.48,0,15.26-.99,1.73-.64,3.34-1.58,4.76-2.77,1.9.09,3.8-.25,5.55-.99,2.38-1.18,5.15-4.95,2.57-6.54s-6.34-.79-6.34-.79c0,0-.59-.79.4-2.18s.99-1.18.99-2.18-.59-2.97.99-4.55l-.02.02Z"/>
    <path id="Path_155" data-name="Path 155" class="cls-12" d="m163.6,49.7c-.55,1.17-1.45,2.14-2.57,2.78-1.98,1.18-5.94,1.98-4.95,3.56s3.37,1.79,4.95,1.79c.91,0,1.67-.68,1.79-1.58"/>
    <path id="Path_156" data-name="Path 156" class="cls-4" d="m155.48,60.39c2.22.45,4.47.71,6.74.8,2.5.12,4.99-.29,7.33-1.18,0,0-3.76,5.15-5.94,6.74-2.24,1.75-5.12,2.47-7.92,1.98-2.97-.59-3.76-2.18-2.97-3.37s2.77-4.95,2.77-4.95h0Z"/>
    <g id="Group_70" data-name="Group 70">
      <path id="Path_157" data-name="Path 157" class="cls-4" d="m167.39,62.77c1.21-1.49,2.15-2.78,2.15-2.78-2.33.9-4.83,1.31-7.33,1.19-2.26-.08-4.52-.35-6.74-.79,0,0-.36.67-.82,1.53,4.07,1.53,8.5,1.83,12.73.84h0Z"/>
      <path id="Path_158" data-name="Path 158" class="cls-4" d="m152.54,65.66c-.48,1.14.41,2.52,3.13,3.06,2.38.44,4.84-.03,6.9-1.31.61-.4,1.03-.68,1.03-.68-3.69,1.05-7.64.66-11.06-1.08h0Z"/>
    </g>
    <path id="Path_159" data-name="Path 159" class="cls-12" d="m167.56,53.66c1.6-.56,3.38,0,4.36,1.39"/>
    <path id="Path_160" data-name="Path 160" class="cls-12" d="m161.02,51.68s-.79-1.18-2.57,0"/>
    <path id="Path_161" data-name="Path 161" class="cls-11" d="m170.93,47.91s2.57,1.18,2.77,5.15"/>
    <path id="Path_162" data-name="Path 162" class="cls-11" d="m163.2,47.12c-1.59-.28-3.22.24-4.36,1.39"/>
  </g>
  <path id="Path_163" data-name="Path 163" class="cls-8" d="m191.93,116.65s-7.13,4.95-7.92,6.74.4,10.9,1.18,13.67,3.56,2.97,7.33,3.17,7.92.2,10.1-3.56,1.58-7.92-1.98-12.29c-2.55-2.95-5.48-5.55-8.71-7.72Z"/>
  <path id="Path_164" data-name="Path 164" class="cls-13" d="m197.28,70.3s-2.38-2.18-3.37-1.79-6.14,1.79-5.35,3.96,4.76,1.18,6.14.79c1.4-.34,2.44-1.53,2.57-2.97Z"/>
  <path id="Path_165" data-name="Path 165" class="cls-4" d="m203.02,70.3s-2.77-3.76-4.76-2.97-2.57,3.76-2.57,3.76c0,0-2.97.59-3.56,1.79l-.59,1.18s-2.57.2-2.97,1.39c-.25.77-.38,1.57-.4,2.38-.89.31-1.57,1.06-1.79,1.98-.4,1.58,0,2.18.8,4.16s3.37,4.76,4.16,5.74,3.77,1.79,3.96,2.38.2,1.98-.59,6.34-2.97,15.65-4.76,21.79-3.77,8.12-1.58,13.47,4.55,6.14,7.53,5.35c4.62-1.28,8.23-4.89,9.51-9.51,1.58-5.94-.2-16.04-.2-22.78s.2-18.03,0-22.98-2.18-13.47-2.18-13.47h0Z"/>
  <path id="Path_166" data-name="Path 166" class="cls-13" d="m136.06,72.47s-5.35,1.18-7.73,1.58-4.16-.79-4.55-1.98-3.17-2.57-3.17-2.57c0,0,.99-1.18,6.74-2.77,3.15-1.02,6.59-.5,9.31,1.39l-.59,4.36h0Z"/>
  <path id="Path_167" data-name="Path 167" class="cls-4" d="m117.29,74.82s2.68-.81,4.66-1.4,3.21-3.31,3.21-3.31c0,0,.2,1.39,1.39,1.18s6.54-.59,7.73-.59,5.94-1.39,5.94-3.17-4.36-6.54-5.15-7.92-3.17-1.98-4.76-1.98-3.17.99-7.92,3.96-7.92,4.55-8.92,5.94-15.85,27.14-16.84,30.11-3.56,8.91-2.97,11.29c.73,2.93,3.56,5.85,5.65,7.89,2.93,2.85,9.2,1.64,11.05-2.01,1.58-3.11,2.13-7.58,2.13-11.02,0-4.55-.99-7.73,0-14.06s4.8-14.9,4.8-14.9h0Z"/>
  <path id="Path_168" data-name="Path 168" class="cls-13" d="m133.09,71.29s0,1.79.59,1.98,4.55.4,4.76-.79,0-1.79-.99-2.18-3.96-.2-4.36.99h0Z"/>
  <path id="Path_169" data-name="Path 169" class="cls-12" d="m125.17,70.1l1.78-1.38-1.39-1.39"/>
  <path id="Path_170" data-name="Path 170" class="cls-12" d="m129.33,60.2s2.97,5.94,3.56,7.13.2.99-.59,1.58-3.76,2.18-3.76,2.18"/>
  <path id="Path_171" data-name="Path 171" class="cls-12" d="m132.9,59.8s4.16,7.53,3.76,8.32-3.56,3.17-3.56,3.17"/>
  <path id="Path_172" data-name="Path 172" class="cls-12" d="m136.26,61.58s2.97,4.95,2.57,6.34c-.41.98-1.12,1.81-2.04,2.34"/>
  <g id="Floor">
    <line id="Line_91" data-name="Line 91" class="cls-12" x1="326.76" y1="287.21" x2=".5" y2="287.21"/>
  </g>
</svg>