<?xml version="1.0" encoding="UTF-8"?>
<svg id="Layer_1" data-name="Layer 1" xmlns="http://www.w3.org/2000/svg" viewBox="0 0 508.49 479.01">
  <defs>
    <style>
      .cls-1 {
        fill: #595959;
      }

      .cls-1, .cls-2, .cls-3, .cls-4, .cls-5, .cls-6, .cls-7, .cls-8, .cls-9, .cls-10, .cls-11, .cls-12, .cls-13, .cls-14, .cls-15 {
        stroke: #263238;
      }

      .cls-1, .cls-2, .cls-6, .cls-7, .cls-8, .cls-9, .cls-11, .cls-12, .cls-13, .cls-14, .cls-15 {
        stroke-linecap: round;
        stroke-linejoin: round;
      }

      .cls-2 {
        fill: #e8e7ab;
      }

      .cls-3, .cls-4, .cls-5, .cls-10 {
        stroke-miterlimit: 10;
      }

      .cls-3, .cls-11, .cls-16 {
        fill: #263238;
      }

      .cls-4, .cls-5, .cls-9 {
        fill: none;
      }

      .cls-4, .cls-14 {
        stroke-width: .5px;
      }

      .cls-5 {
        stroke-width: 2px;
      }

      .cls-17 {
        fill: #c30e59;
      }

      .cls-18, .cls-15 {
        fill: #f2ae66;
      }

      .cls-19 {
        fill: #382039;
      }

      .cls-6 {
        fill: #fff;
      }

      .cls-7 {
        fill: #9c9c9c;
      }

      .cls-8 {
        fill: #f638dc;
      }

      .cls-10, .cls-12, .cls-14 {
        fill: #e82561;
      }

      .cls-20 {
        isolation: isolate;
        opacity: .7;
      }

      .cls-20, .cls-21 {
        fill: #fd5264;
      }

      .cls-13 {
        fill: #7d7d7d;
      }
    </style>
  </defs>
  <g id="Background_Simple" data-name="Background Simple">
    <path id="Path_1" data-name="Path 1" class="cls-21" d="m479.65,207.87S410.41,38.99,283.85,6.38C157.28-26.24,104.19,73.48,84.8,142.65S-6.07,303.38.42,366.28c6.17,59.78,58.56,88.05,107.49,100.18,62.19,15.42,132.87,16.58,195.28,3.73,14.84-3.14,29.49-7.1,43.89-11.88,29.33-9.56,58.11-16.97,87.83-24.9,56.51-15.08,78.91-75.78,72.53-133.86-3.59-32.68-15.57-61.93-27.78-91.68h-.01Z"/>
    <path id="Path_2" data-name="Path 2" class="cls-20" d="m479.65,207.87S410.41,38.99,283.85,6.38C157.28-26.24,104.19,73.48,84.8,142.65S-6.07,303.38.42,366.28c6.17,59.78,58.56,88.05,107.49,100.18,62.19,15.42,132.87,16.58,195.28,3.73,14.84-3.14,29.49-7.1,43.89-11.88,29.33-9.56,58.11-16.97,87.83-24.9,56.51-15.08,78.91-75.78,72.53-133.86-3.59-32.68-15.57-61.93-27.78-91.68h-.01Z"/>
  </g>
  <g id="Window">
    <rect id="Rectangle_2" data-name="Rectangle 2" class="cls-9" x="241.72" y="129.46" width="127.25" height="176.18"/>
    <line id="Line_1" data-name="Line 1" class="cls-9" x1="305.35" y1="129.57" x2="305.35" y2="306.26"/>
    <line id="Line_2" data-name="Line 2" class="cls-9" x1="369.07" y1="217.92" x2="241.61" y2="217.92"/>
    <line id="Line_3" data-name="Line 3" class="cls-9" x1="369.07" y1="173.67" x2="241.61" y2="173.67"/>
    <line id="Line_4" data-name="Line 4" class="cls-9" x1="369.07" y1="262.16" x2="241.61" y2="262.16"/>
    <g id="Group_1" data-name="Group 1">
      <line id="Line_5" data-name="Line 5" class="cls-9" x1="345.88" y1="194.1" x2="333.48" y2="206.02"/>
      <line id="Line_6" data-name="Line 6" class="cls-9" x1="364.33" y1="176.36" x2="349.51" y2="190.6"/>
      <line id="Line_7" data-name="Line 7" class="cls-9" x1="332.58" y1="200.34" x2="328.64" y2="204.12"/>
      <line id="Line_8" data-name="Line 8" class="cls-9" x1="349.49" y1="184.07" x2="335.3" y2="197.72"/>
    </g>
    <line id="Line_9" data-name="Line 9" class="cls-9" x1="277.06" y1="153.75" x2="264.66" y2="165.68"/>
    <line id="Line_10" data-name="Line 10" class="cls-9" x1="295.51" y1="136.02" x2="280.69" y2="150.27"/>
    <line id="Line_11" data-name="Line 11" class="cls-9" x1="263.76" y1="160" x2="259.83" y2="163.78"/>
    <line id="Line_12" data-name="Line 12" class="cls-9" x1="280.68" y1="143.73" x2="266.48" y2="157.38"/>
    <g id="Group_2" data-name="Group 2">
      <line id="Line_13" data-name="Line 13" class="cls-9" x1="342.92" y1="240.96" x2="330.51" y2="252.88"/>
      <line id="Line_14" data-name="Line 14" class="cls-9" x1="361.36" y1="223.22" x2="346.55" y2="237.47"/>
      <line id="Line_15" data-name="Line 15" class="cls-9" x1="329.62" y1="247.2" x2="325.68" y2="250.99"/>
      <line id="Line_16" data-name="Line 16" class="cls-9" x1="346.53" y1="230.94" x2="332.33" y2="244.59"/>
    </g>
  </g>
  <g id="Group_142" data-name="Group 142">
    <path id="Path_3" data-name="Path 3" class="cls-12" d="m348.51,289.05l-.54-4.58c-1.42.06-2.74-.71-3.38-1.98-.57-1.28-1.15-3.88-.31-5.16.69-1.14,2.17-1.5,3.31-.81.52.31.9.81,1.07,1.4.65,1.87.97,2.66.97,2.66-.16-2.7-2.19-13.55,3.92-11.9,2.48.67,3.16,3.07,3.27,4.97s-.15,6.8-.15,6.8c0,0,1.64.18,1.76-2.54s2.76-3.96,3.92-2.67,1.7,5.87.42,7.3-5.32,1.93-5.32,1.93l.27,4.6h-9.23,0Z"/>
    <path id="Path_4" data-name="Path 4" class="cls-14" d="m352.02,269.41s-1.01.92-.73,4.04.27,8.73.27,8.73"/>
    <path id="Path_5" data-name="Path 5" class="cls-14" d="m354.69,271.53s1.19-.18.83,2.66c-.2,2.39-.2,4.78,0,7.17"/>
    <path id="Path_6" data-name="Path 6" class="cls-14" d="m346.05,277.59s-1.19.27-.64,2.2.73,3.4,2.02,3.68c.57.14,1.15.23,1.74.27l.18,2.02"/>
    <path id="Path_7" data-name="Path 7" class="cls-14" d="m357.63,283.38s3.77.09,4.5-1.47c.43-1.37.53-2.82.27-4.23"/>
    <path id="Path_8" data-name="Path 8" class="cls-14" d="m347.62,278.1c0,.18-.14.32-.32.32s-.32-.14-.32-.32c0-.18.14-.32.32-.32h0c.18,0,.32.14.32.32Z"/>
    <circle id="Ellipse_1" data-name="Ellipse 1" class="cls-14" cx="348.39" cy="281.82" r=".32"/>
    <circle id="Ellipse_2" data-name="Ellipse 2" class="cls-14" cx="346.78" cy="280.3" r=".32"/>
    <circle id="Ellipse_3" data-name="Ellipse 3" class="cls-14" cx="353.31" cy="276.49" r=".32"/>
    <circle id="Ellipse_4" data-name="Ellipse 4" class="cls-14" cx="350.28" cy="273.36" r=".32"/>
    <path id="Path_9" data-name="Path 9" class="cls-14" d="m354.69,284.57c0,.18-.14.32-.32.32s-.32-.14-.32-.32c0-.18.14-.32.32-.32h0c.18,0,.32.14.32.32Z"/>
    <path id="Path_10" data-name="Path 10" class="cls-14" d="m351.2,284.11c0,.18-.14.32-.32.32s-.32-.14-.32-.32c0-.18.14-.32.32-.32h0c.18,0,.32.14.32.32Z"/>
    <circle id="Ellipse_5" data-name="Ellipse 5" class="cls-14" cx="353.86" cy="270.43" r=".32"/>
    <path id="Path_11" data-name="Path 11" class="cls-14" d="m360.7,276.53c0,.18-.14.32-.32.32s-.32-.14-.32-.32c0-.18.14-.32.32-.32h0c.18,0,.32.14.32.32Z"/>
    <circle id="Ellipse_6" data-name="Ellipse 6" class="cls-14" cx="359.56" cy="280.9" r=".32"/>
    <circle id="Ellipse_7" data-name="Ellipse 7" class="cls-14" cx="353.86" cy="280.81" r=".32"/>
  </g>
  <path id="Path_378" data-name="Path 378" class="cls-15" d="m361.18,286.07h-16.54l1.65,13.55h13.23l1.65-13.55Z"/>
  <line id="Line_139" data-name="Line 139" class="cls-5" x1="115.09" y1="261.09" x2="127.75" y2="382.31"/>
  <g id="Group_145" data-name="Group 145">
    <line id="Line_18" data-name="Line 18" class="cls-5" x1="125.71" y1="359.12" x2="119.97" y2="353.06"/>
    <path id="Path_13" data-name="Path 13" class="cls-10" d="m121.72,354.87c-.02-1.88-.86-3.65-2.28-4.86-1.47-1.32-9.22-4.58-9.95-1.85-.8,2.97,7.13,8.79,12.24,6.71h0Z"/>
    <line id="Line_19" data-name="Line 19" class="cls-4" x1="121.72" y1="354.87" x2="114.34" y2="350.27"/>
  </g>
  <g id="Group_149" data-name="Group 149">
    <line id="Line_20" data-name="Line 20" class="cls-5" x1="127.14" y1="372.9" x2="121.41" y2="366.85"/>
    <path id="Path_14" data-name="Path 14" class="cls-10" d="m123.15,368.66c-.02-1.88-.86-3.65-2.28-4.86-1.47-1.32-9.22-4.58-9.95-1.85-.8,2.97,7.13,8.79,12.24,6.71Z"/>
    <line id="Line_21" data-name="Line 21" class="cls-4" x1="123.15" y1="368.66" x2="115.78" y2="364.06"/>
  </g>
  <g id="Group_136" data-name="Group 136">
    <line id="Line_22" data-name="Line 22" class="cls-5" x1="122.2" y1="325.47" x2="116.46" y2="319.41"/>
    <path id="Path_15" data-name="Path 15" class="cls-10" d="m118.2,321.23c-.02-1.88-.86-3.65-2.28-4.86-1.47-1.32-9.22-4.58-9.95-1.85-.81,2.97,7.13,8.79,12.24,6.71Z"/>
    <line id="Line_23" data-name="Line 23" class="cls-4" x1="118.2" y1="321.23" x2="110.82" y2="316.63"/>
  </g>
  <g id="Group_140" data-name="Group 140">
    <line id="Line_24" data-name="Line 24" class="cls-5" x1="123.64" y1="339.26" x2="117.9" y2="333.2"/>
    <path id="Path_16" data-name="Path 16" class="cls-10" d="m119.64,335.02c-.02-1.88-.86-3.65-2.28-4.86-1.47-1.32-9.22-4.58-9.95-1.85-.8,2.97,7.13,8.79,12.24,6.71h0Z"/>
    <line id="Line_25" data-name="Line 25" class="cls-4" x1="119.64" y1="335.02" x2="112.26" y2="330.42"/>
  </g>
  <g id="Group_131" data-name="Group 131">
    <line id="Line_26" data-name="Line 26" class="cls-5" x1="119.86" y1="303.07" x2="114.12" y2="297.02"/>
    <path id="Path_17" data-name="Path 17" class="cls-10" d="m115.87,298.83c-.02-1.88-.86-3.65-2.28-4.86-1.48-1.32-9.22-4.57-9.95-1.85-.8,2.97,7.13,8.79,12.24,6.71h0Z"/>
    <line id="Line_27" data-name="Line 27" class="cls-4" x1="115.87" y1="298.83" x2="108.49" y2="294.24"/>
  </g>
  <g id="Group_126" data-name="Group 126">
    <line id="Line_28" data-name="Line 28" class="cls-5" x1="117.51" y1="280.58" x2="111.78" y2="274.52"/>
    <path id="Path_18" data-name="Path 18" class="cls-10" d="m113.52,276.33c-.02-1.88-.86-3.65-2.28-4.86-1.48-1.32-9.22-4.57-9.95-1.85-.8,2.97,7.13,8.79,12.24,6.71h0Z"/>
    <line id="Line_29" data-name="Line 29" class="cls-4" x1="113.52" y1="276.33" x2="106.14" y2="271.74"/>
  </g>
  <g id="Group_143" data-name="Group 143">
    <line id="Line_30" data-name="Line 30" class="cls-5" x1="124.74" y1="350.96" x2="129.1" y2="343.85"/>
    <path id="Path_19" data-name="Path 19" class="cls-10" d="m127.77,345.98c-.37-1.84.08-3.75,1.23-5.23,1.17-1.59,8.08-6.38,9.36-3.86,1.39,2.74-5.16,10.08-10.59,9.1Z"/>
    <line id="Line_31" data-name="Line 31" class="cls-4" x1="127.77" y1="345.98" x2="134.41" y2="339.63"/>
  </g>
  <g id="Group_132" data-name="Group 132">
    <line id="Line_32" data-name="Line 32" class="cls-5" x1="120.96" y1="314.67" x2="125.32" y2="307.57"/>
    <path id="Path_20" data-name="Path 20" class="cls-10" d="m123.99,309.7c-.37-1.84.08-3.75,1.23-5.23,1.17-1.59,8.08-6.38,9.36-3.86,1.39,2.74-5.16,10.08-10.59,9.1Z"/>
    <line id="Line_33" data-name="Line 33" class="cls-4" x1="123.99" y1="309.7" x2="130.63" y2="303.35"/>
  </g>
  <g id="Group_129" data-name="Group 129">
    <line id="Line_34" data-name="Line 34" class="cls-5" x1="119.29" y1="298.73" x2="123.65" y2="291.62"/>
    <path id="Path_21" data-name="Path 21" class="cls-10" d="m122.32,293.76c-.37-1.84.08-3.75,1.23-5.23,1.17-1.59,8.08-6.38,9.36-3.86,1.39,2.74-5.16,10.08-10.59,9.1h0Z"/>
    <line id="Line_35" data-name="Line 35" class="cls-4" x1="122.32" y1="293.76" x2="128.97" y2="287.41"/>
  </g>
  <line id="Line_140" data-name="Line 140" class="cls-5" x1="116.85" y1="275.35" x2="121.22" y2="268.25"/>
  <path id="Path_359" data-name="Path 359" class="cls-10" d="m119.88,270.38c-.37-1.84.08-3.75,1.23-5.23,1.17-1.59,8.08-6.38,9.36-3.86,1.39,2.74-5.16,10.08-10.59,9.1h0Z"/>
  <line id="Line_141" data-name="Line 141" class="cls-4" x1="119.89" y1="270.38" x2="126.53" y2="264.03"/>
  <path id="Path_357" data-name="Path 357" class="cls-10" d="m114.99,260.41c-.37-1.84.08-3.75,1.23-5.23,1.17-1.59,8.08-6.38,9.36-3.86,1.39,2.74-5.16,10.08-10.59,9.1h0Z"/>
  <line id="Line_138" data-name="Line 138" class="cls-4" x1="114.99" y1="260.41" x2="121.63" y2="254.06"/>
  <line id="Line_143" data-name="Line 143" class="cls-5" x1="148.46" y1="277.78" x2="135.88" y2="399.02"/>
  <g id="Group_150" data-name="Group 150">
    <line id="Line_41" data-name="Line 41" class="cls-5" x1="138.67" y1="375.89" x2="134.3" y2="368.79"/>
    <path id="Path_25" data-name="Path 25" class="cls-10" d="m135.63,370.92c.36-1.84-.09-3.75-1.24-5.23-1.17-1.59-8.08-6.37-9.36-3.86-1.39,2.74,5.17,10.08,10.59,9.09h0Z"/>
    <line id="Line_42" data-name="Line 42" class="cls-4" x1="135.63" y1="370.92" x2="129.36" y2="364.91"/>
  </g>
  <g id="Group_141" data-name="Group 141">
    <line id="Line_43" data-name="Line 43" class="cls-5" x1="142.16" y1="342.25" x2="137.79" y2="335.14"/>
    <path id="Path_26" data-name="Path 26" class="cls-10" d="m139.12,337.28c.36-1.84-.09-3.75-1.24-5.23-1.17-1.59-8.08-6.37-9.36-3.86-1.39,2.74,5.17,10.08,10.59,9.09h0Z"/>
    <line id="Line_44" data-name="Line 44" class="cls-4" x1="139.12" y1="337.28" x2="132.85" y2="331.26"/>
  </g>
  <g id="Group_144" data-name="Group 144">
    <line id="Line_45" data-name="Line 45" class="cls-5" x1="140.72" y1="356.03" x2="136.36" y2="348.93"/>
    <path id="Path_27" data-name="Path 27" class="cls-10" d="m137.69,351.06c.36-1.84-.09-3.75-1.24-5.23-1.17-1.59-8.08-6.37-9.36-3.86-1.39,2.74,5.17,10.08,10.59,9.09h0Z"/>
    <line id="Line_46" data-name="Line 46" class="cls-4" x1="137.69" y1="351.06" x2="131.42" y2="345.05"/>
  </g>
  <g id="Group_133" data-name="Group 133">
    <line id="Line_47" data-name="Line 47" class="cls-5" x1="144.48" y1="319.85" x2="140.11" y2="312.74"/>
    <path id="Path_28" data-name="Path 28" class="cls-10" d="m141.44,314.88c.36-1.84-.09-3.75-1.24-5.23-1.17-1.59-8.08-6.37-9.36-3.86-1.39,2.74,5.17,10.08,10.59,9.09h0Z"/>
    <line id="Line_48" data-name="Line 48" class="cls-4" x1="141.44" y1="314.88" x2="135.17" y2="308.86"/>
  </g>
  <g id="Group_127" data-name="Group 127">
    <line id="Line_49" data-name="Line 49" class="cls-5" x1="146.82" y1="297.35" x2="142.45" y2="290.25"/>
    <path id="Path_29" data-name="Path 29" class="cls-10" d="m143.78,292.38c.36-1.84-.09-3.75-1.24-5.23-1.17-1.59-8.08-6.37-9.36-3.85-1.39,2.74,5.17,10.08,10.59,9.09h0Z"/>
    <line id="Line_50" data-name="Line 50" class="cls-4" x1="143.78" y1="292.38" x2="137.51" y2="286.36"/>
  </g>
  <g id="Group_147" data-name="Group 147">
    <line id="Line_51" data-name="Line 51" class="cls-5" x1="139.4" y1="367.71" x2="145.14" y2="361.65"/>
    <path id="Path_30" data-name="Path 30" class="cls-10" d="m143.39,363.47c.02-1.87.85-3.65,2.28-4.86,1.47-1.32,9.22-4.58,9.95-1.85.8,2.97-7.13,8.8-12.24,6.72h0Z"/>
    <line id="Line_52" data-name="Line 52" class="cls-4" x1="143.39" y1="363.47" x2="151.2" y2="358.62"/>
  </g>
  <g id="Group_139" data-name="Group 139">
    <line id="Line_53" data-name="Line 53" class="cls-5" x1="143.17" y1="331.43" x2="148.9" y2="325.37"/>
    <path id="Path_31" data-name="Path 31" class="cls-10" d="m147.16,327.18c.02-1.87.85-3.65,2.28-4.86,1.47-1.32,9.22-4.58,9.95-1.85.8,2.97-7.13,8.8-12.24,6.72h0Z"/>
    <line id="Line_54" data-name="Line 54" class="cls-4" x1="147.16" y1="327.18" x2="154.96" y2="322.34"/>
  </g>
  <g id="Group_134" data-name="Group 134">
    <line id="Line_55" data-name="Line 55" class="cls-5" x1="144.82" y1="315.48" x2="150.55" y2="309.42"/>
    <path id="Path_32" data-name="Path 32" class="cls-10" d="m148.81,311.24c.02-1.87.85-3.65,2.28-4.86,1.47-1.32,9.22-4.58,9.95-1.85.8,2.97-7.13,8.8-12.24,6.72h0Z"/>
    <line id="Line_56" data-name="Line 56" class="cls-4" x1="148.81" y1="311.24" x2="156.62" y2="306.39"/>
  </g>
  <line id="Line_145" data-name="Line 145" class="cls-5" x1="147.25" y1="292.1" x2="152.98" y2="286.05"/>
  <path id="Path_363" data-name="Path 363" class="cls-10" d="m151.24,287.86c.02-1.87.85-3.65,2.27-4.86,1.47-1.32,9.22-4.58,9.95-1.85.8,2.97-7.13,8.8-12.24,6.71h.01Z"/>
  <line id="Line_146" data-name="Line 146" class="cls-4" x1="151.24" y1="287.87" x2="159.05" y2="283.02"/>
  <path id="Path_360" data-name="Path 360" class="cls-10" d="m148.5,277.1c.02-1.87.85-3.65,2.27-4.86,1.47-1.32,9.22-4.58,9.95-1.85.8,2.97-7.13,8.8-12.24,6.71h.01Z"/>
  <line id="Line_144" data-name="Line 144" class="cls-4" x1="148.5" y1="277.1" x2="156.3" y2="272.25"/>
  <path id="Path_361" data-name="Path 361" class="cls-10" d="m148.82,277.45c-1.86-.22-3.54-1.23-4.6-2.78-1.15-1.6-3.59-9.65-.8-10.1,3.03-.49,8,8.01,5.4,12.87h0Z"/>
  <line id="Line_142" data-name="Line 142" class="cls-4" x1="148.82" y1="277.45" x2="144.82" y2="269.17"/>
  <line id="Line_135" data-name="Line 135" class="cls-5" x1="134.05" y1="228.41" x2="134.05" y2="381.72"/>
  <g id="Group_146" data-name="Group 146">
    <line id="Line_62" data-name="Line 62" class="cls-5" x1="134.17" y1="358.68" x2="129.09" y2="352.05"/>
    <path id="Path_36" data-name="Path 36" class="cls-10" d="m130.64,354.04c.17-1.87-.47-3.72-1.76-5.08-1.33-1.46-8.7-5.51-9.71-2.87-1.1,2.87,6.18,9.49,11.48,7.94Z"/>
    <line id="Line_63" data-name="Line 63" class="cls-4" x1="130.64" y1="354.04" x2="123.78" y2="348.7"/>
  </g>
  <g id="Group_138" data-name="Group 138">
    <line id="Line_64" data-name="Line 64" class="cls-5" x1="134.17" y1="329.86" x2="129.09" y2="323.24"/>
    <path id="Path_37" data-name="Path 37" class="cls-10" d="m130.64,325.23c.17-1.87-.47-3.72-1.76-5.08-1.33-1.46-8.7-5.51-9.71-2.87-1.1,2.87,6.18,9.49,11.48,7.94Z"/>
    <line id="Line_65" data-name="Line 65" class="cls-4" x1="130.64" y1="325.23" x2="123.78" y2="319.89"/>
  </g>
  <g id="Group_128" data-name="Group 128">
    <line id="Line_66" data-name="Line 66" class="cls-5" x1="134.17" y1="296.03" x2="129.09" y2="289.42"/>
    <path id="Path_38" data-name="Path 38" class="cls-10" d="m130.64,291.4c.17-1.87-.47-3.72-1.76-5.08-1.33-1.46-8.7-5.51-9.71-2.87-1.1,2.87,6.18,9.49,11.48,7.94Z"/>
    <line id="Line_67" data-name="Line 67" class="cls-4" x1="130.64" y1="291.4" x2="123.78" y2="286.06"/>
  </g>
  <g id="Group_125" data-name="Group 125">
    <line id="Line_68" data-name="Line 68" class="cls-5" x1="134.17" y1="273.51" x2="129.09" y2="266.9"/>
    <path id="Path_39" data-name="Path 39" class="cls-10" d="m130.64,268.88c.17-1.87-.47-3.72-1.76-5.08-1.33-1.46-8.7-5.51-9.71-2.87-1.1,2.87,6.18,9.49,11.48,7.94h0Z"/>
    <line id="Line_69" data-name="Line 69" class="cls-4" x1="130.64" y1="268.88" x2="123.78" y2="263.54"/>
  </g>
  <g id="Group_123" data-name="Group 123">
    <line id="Line_70" data-name="Line 70" class="cls-5" x1="134.17" y1="250.9" x2="129.09" y2="244.28"/>
    <path id="Path_40" data-name="Path 40" class="cls-10" d="m130.64,246.26c.17-1.87-.47-3.72-1.76-5.08-1.33-1.46-8.7-5.51-9.71-2.87-1.1,2.87,6.18,9.49,11.48,7.94Z"/>
    <line id="Line_71" data-name="Line 71" class="cls-4" x1="130.64" y1="246.26" x2="123.78" y2="240.93"/>
  </g>
  <g id="Group_148" data-name="Group 148">
    <line id="Line_72" data-name="Line 72" class="cls-5" x1="134.06" y1="367.47" x2="139.13" y2="360.85"/>
    <path id="Path_41" data-name="Path 41" class="cls-10" d="m137.59,362.84c-.17-1.87.47-3.72,1.76-5.08,1.33-1.46,8.7-5.51,9.71-2.87,1.1,2.87-6.18,9.49-11.48,7.94Z"/>
    <line id="Line_73" data-name="Line 73" class="cls-4" x1="137.59" y1="362.84" x2="144.85" y2="357.22"/>
  </g>
  <g id="Group_135" data-name="Group 135">
    <line id="Line_74" data-name="Line 74" class="cls-5" x1="134.06" y1="321.65" x2="139.13" y2="315.03"/>
    <path id="Path_42" data-name="Path 42" class="cls-10" d="m137.59,317.01c-.17-1.87.47-3.72,1.76-5.08,1.33-1.46,8.7-5.51,9.71-2.87,1.1,2.87-6.18,9.49-11.48,7.94Z"/>
    <line id="Line_75" data-name="Line 75" class="cls-4" x1="137.59" y1="317.01" x2="144.85" y2="311.39"/>
  </g>
  <g id="Group_130" data-name="Group 130">
    <line id="Line_76" data-name="Line 76" class="cls-5" x1="134.06" y1="299.03" x2="139.13" y2="292.41"/>
    <path id="Path_43" data-name="Path 43" class="cls-10" d="m137.59,294.4c-.17-1.87.47-3.72,1.76-5.08,1.33-1.46,8.7-5.51,9.71-2.87,1.1,2.87-6.18,9.49-11.48,7.94Z"/>
    <line id="Line_77" data-name="Line 77" class="cls-4" x1="137.59" y1="294.4" x2="144.85" y2="288.77"/>
  </g>
  <g id="Group_124" data-name="Group 124">
    <line id="Line_78" data-name="Line 78" class="cls-5" x1="134.06" y1="269.14" x2="139.13" y2="262.52"/>
    <path id="Path_44" data-name="Path 44" class="cls-10" d="m137.59,264.5c-.17-1.87.47-3.72,1.76-5.08,1.33-1.46,8.7-5.51,9.71-2.87,1.1,2.87-6.18,9.49-11.48,7.94Z"/>
    <line id="Line_79" data-name="Line 79" class="cls-4" x1="137.59" y1="264.5" x2="144.85" y2="258.88"/>
  </g>
  <line id="Line_136" data-name="Line 136" class="cls-5" x1="134.06" y1="245.64" x2="139.13" y2="239.01"/>
  <path id="Path_349" data-name="Path 349" class="cls-10" d="m137.59,241c-.17-1.87.47-3.72,1.76-5.08,1.33-1.46,8.7-5.51,9.71-2.87,1.1,2.87-6.18,9.49-11.48,7.94Z"/>
  <line id="Line_137" data-name="Line 137" class="cls-4" x1="137.59" y1="241" x2="144.85" y2="235.38"/>
  <path id="Path_345" data-name="Path 345" class="cls-10" d="m133.76,230.57c-.17-1.87.47-3.72,1.76-5.08,1.33-1.46,8.7-5.51,9.71-2.87,1.1,2.87-6.18,9.49-11.48,7.94h0Z"/>
  <line id="Line_133" data-name="Line 133" class="cls-4" x1="133.76" y1="230.57" x2="141.02" y2="224.95"/>
  <path id="Path_346" data-name="Path 346" class="cls-10" d="m134.11,230.89c-1.88-.02-3.65-.86-4.86-2.29-1.31-1.48-4.56-9.23-1.83-9.96,2.97-.8,8.79,7.14,6.69,12.24h0Z"/>
  <line id="Line_134" data-name="Line 134" class="cls-4" x1="134.1" y1="230.89" x2="129.28" y2="223.08"/>
  <path id="Path_383" data-name="Path 383" class="cls-3" d="m140.36,421.49h-16.24l-2.03-41.01h20.3l-2.03,41.01Z"/>
  <path id="Path_369" data-name="Path 369" class="cls-13" d="m287.06,254.85h50.07l-11.66,42.96h-50.07l11.66-42.96Z"/>
  <path id="Path_370" data-name="Path 370" class="cls-2" d="m288.49,256.45h46.34l-10.79,39.76h-46.34l10.79-39.76Z"/>
  <rect id="Rectangle_65" data-name="Rectangle 65" class="cls-13" x="255.28" y="295.53" width="70.19" height="2.28"/>
  <rect id="Rectangle_66" data-name="Rectangle 66" class="cls-1" x="293.21" y="295.53" width="32.25" height="2.28"/>
  <g id="Table">
    <rect id="Rectangle_5" data-name="Rectangle 5" class="cls-15" x="232.83" y="301.45" width="3.77" height="119.78"/>
    <rect id="Rectangle_6" data-name="Rectangle 6" class="cls-15" x="229.6" y="301.45" width="3.22" height="119.78"/>
    <g id="Group_39" data-name="Group 39">
      <rect id="Rectangle_7" data-name="Rectangle 7" class="cls-15" x="329.47" y="364.12" width="3.77" height="57.11"/>
      <rect id="Rectangle_8" data-name="Rectangle 8" class="cls-15" x="326.25" y="364.12" width="3.22" height="57.11"/>
    </g>
    <g id="Group_40" data-name="Group 40">
      <rect id="Rectangle_9" data-name="Rectangle 9" class="cls-15" x="369.87" y="364.12" width="3.77" height="57.11"/>
      <rect id="Rectangle_10" data-name="Rectangle 10" class="cls-15" x="366.65" y="364.12" width="3.22" height="57.11"/>
    </g>
    <g id="Group_44" data-name="Group 44">
      <rect id="Rectangle_11" data-name="Rectangle 11" class="cls-15" x="292.08" y="302.61" width="36.81" height="64.77"/>
      <rect id="Rectangle_12" data-name="Rectangle 12" class="cls-15" x="328.89" y="302.61" width="48.5" height="64.77"/>
      <path id="Path_60" data-name="Path 60" class="cls-15" d="m328.89,302.61h-36.81v3.15h85.31v-3.15h-48.5Z"/>
      <g id="Group_41" data-name="Group 41">
        <rect id="Rectangle_13" data-name="Rectangle 13" class="cls-15" x="295.22" y="306.32" width="31.38" height="15.12"/>
        <rect id="Rectangle_14" data-name="Rectangle 14" class="cls-18" x="306.77" y="312.46" width="8.27" height="2.85"/>
      </g>
      <g id="Group_42" data-name="Group 42">
        <rect id="Rectangle_15" data-name="Rectangle 15" class="cls-15" x="295.22" y="327.15" width="31.38" height="15.12"/>
        <rect id="Rectangle_16" data-name="Rectangle 16" class="cls-18" x="306.77" y="333" width="8.27" height="2.85"/>
      </g>
      <g id="Group_43" data-name="Group 43">
        <rect id="Rectangle_17" data-name="Rectangle 17" class="cls-15" x="295.22" y="347.98" width="31.38" height="15.12"/>
        <rect id="Rectangle_18" data-name="Rectangle 18" class="cls-18" x="306.77" y="353.54" width="8.27" height="2.85"/>
      </g>
    </g>
    <g id="Group_45" data-name="Group 45">
      <rect id="Rectangle_19" data-name="Rectangle 19" class="cls-15" x="224.4" y="299.77" width="158" height="3.77"/>
      <rect id="Rectangle_20" data-name="Rectangle 20" class="cls-15" x="334.68" y="299.77" width="47.71" height="3.77"/>
    </g>
  </g>
  <path id="Path_375" data-name="Path 375" class="cls-6" d="m237.8,338.1s4.71,3.26,11.69,23.39c2.32,6.7,15.36,42.8,16.04,45.31s2.06,5.49,4.12,5.49,9.6-9.6,8.69-10.75-5.26-5.71-5.26-5.71c0,0-2.59-29.22-3.05-37.45s1.41-18.15-2.93-24.78-23.55.23-23.55.23l-5.74,4.27h0Z"/>
  <path id="Path_384" data-name="Path 384" class="cls-12" d="m275.13,395.83c-1.08.58-1.72,1.75-1.6,2.97.23,2.06,2.28,4.8,2.28,4.8,0,0-4.34,3.43-6.63,3.66s-4.8.69-4.8,1.37,1.83,1.83,2.97,4.34c1.26,2.55,2.71,4.99,4.34,7.32.69.91,1.15,1.6,3.66.91s8.01-5.71,10.98-7.77,11.89-3.43,13.49-4.58,6.63-8.46,4.34-9.83-2.97.23-5.71.91-10.75-.23-15.09-1.15-5.71-1.15-5.71-1.15l-2.52-1.83v.02Z"/>
  <path id="Path_376" data-name="Path 376" class="cls-11" d="m271.12,372.95c-.49-6.01-.93-11.63-1.09-14.58-.46-8.23,1.41-18.15-2.93-24.78s-23.55.23-23.55.23l-5.74,4.27s4.71,3.26,11.69,23.39c.88,2.57,3.34,9.42,6.08,17.07l15.56-5.6h-.01Z"/>
  <path id="Path_364" data-name="Path 364" class="cls-6" d="m259.93,220.81c.59,1.59.88,3.28.83,4.98-.21,2.28-2.28,3.32-2.49,2.7-.18-1.03-.25-2.07-.21-3.11v-.83c-.51.85-1.14,1.62-1.87,2.28-.68.88-1.81,1.28-2.9,1.04-.62,0-.83-2.07.21-3.53s4.36-4.77,6.43-3.53h0Z"/>
  <path id="Path_344" data-name="Path 344" class="cls-6" d="m264.69,226.2c-2.07-1.24-5.19,3.11-9.96,2.07-.61-.13-.83-1.04.21-3.11s4.36-3.73,6.02-4.98,2.9-2.28,2.9-3.73-3.73.83-4.77,1.66c-1.26.78-2.57,1.48-3.92,2.09-.25,0-.56.02-.89.04-1.85.12-4.69.45-5.78,1.39-1.41,1.24-2.22,5.45-2.56,7.08-.92,1.33-1.74,2.55-2.22,3.29-1.45,2.28-30.7,23.65-30.7,23.65l2.07,18.25,33.19-37.76c.92-.75,1.98-1.32,3.11-1.66,2.28-.83,5.39-1.45,8.09-2.9,2-1.07,3.94-2.25,5.81-3.53,1.41-.9.5-1.19-.62-1.87h.01Z"/>
  <path id="Path_353" data-name="Path 353" class="cls-12" d="m229.8,243.22c-8.12,6.13-16.77,12.44-16.77,12.44l2.07,18.25,20.39-23.19-5.69-7.51h0Z"/>
  <path id="Path_371" data-name="Path 371" class="cls-6" d="m219.59,312.24s14.63-.69,35.9,2.74,29.22,7.08,28.58,11.2c-2.59,16.7-41.58,71.66-41.58,71.66l.69,7.77s-1.37,1.83-6.17,2.06-10.75-6.63-10.75-6.63c0,0,5.36-5.55,7.42-12.18s18.6-49.42,18.6-49.42c-15.1,2.86-30.58,3.01-45.73.46-24.01-4.34,13.03-27.67,13.03-27.67h0Z"/>
  <path id="Path_372" data-name="Path 372" class="cls-11" d="m255.5,314.99c-21.26-3.43-35.9-2.74-35.9-2.74,0,0-37.04,23.32-13.03,27.67,15.15,2.55,30.64,2.4,45.73-.46,0,0-6.89,17.81-12.33,32.23l16.13,6.2c11.52-17.47,26.42-41.58,27.98-51.69.64-4.12-7.32-7.77-28.58-11.2h0Z"/>
  <path id="Path_354" data-name="Path 354" class="cls-12" d="m173.41,258.98s-2.49,19.71-2.28,23.45,2.9,35.89,3.53,42.95,3.53,13.28,8.71,14.52,18.67,3.11,24.48,1.66,12.03-14.52,14.11-19.5,3.53-8.09,2.9-9.13c-1-1.21-2.11-2.32-3.32-3.32,0,0-5.19-37.76-6.43-47.51s-.62-10.58-5.19-14.32-28.21-6.85-36.51,11.2h0Z"/>
  <path id="Path_377" data-name="Path 377" class="cls-8" d="m206.6,327.77c-.75.57-1.53,1.11-2.32,1.62"/>
  <path id="Path_373" data-name="Path 373" class="cls-8" d="m220.28,311.1c-3.03,5.63-6.99,10.72-11.7,15.05"/>
  <path id="Path_374" data-name="Path 374" class="cls-8" d="m217.09,311.56c-4.37,4.03-9.12,7.63-14.18,10.75"/>
  <path id="Path_343" data-name="Path 343" class="cls-6" d="m222.78,196.95c1.14,2.4,2.04,4.9,2.7,7.47.62,3.11.83,6.02,2.28,6.64s4.15.83,3.73,2.49-3.11,4.36-3.11,4.36c0,0,.62,9.96.41,11.83s-11.2,1.87-11.83,1.87-6.85,14.73-6.85,14.73l-17.43-8.71,3.32-10.79s-5.39-10.37-5.81-14.94,10.17-12.86,16.18-14.73,16.39-.21,16.39-.21h0Z"/>
  <path id="Path_348" data-name="Path 348" class="cls-11" d="m216.98,231.6l-5.54-1.58,2.07,8.1,3.46-6.52Z"/>
  <path id="Path_350" data-name="Path 350" class="cls-16" d="m224.84,208.69c.28,1.17.14,2.2-.3,2.31s-1.04-.76-1.32-1.93-.14-2.2.3-2.31,1.04.75,1.32,1.93Z"/>
  <path id="Path_347" data-name="Path 347" class="cls-9" d="m221.33,219.77s2.49,1.87,4.77,1.04"/>
  <path id="Path_342" data-name="Path 342" class="cls-11" d="m221.75,193.01s2.9,5.19.83,8.51-7.05,4.77-9.75,7.88-4.15,8.51-5.19,8.92-4.15-5.81-6.02-5.39-4.98,4.77-2.28,9.34c1.52,2.65,4.43,4.18,7.47,3.94,0,0-7.47,3.94-8.92,3.94s-5.81-2.49-7.88-4.77-9.54-9.13-9.96-14.73,7.05-12.66,7.05-12.66c0,0-8.92-.62-6.64-3.94s10.37-5.39,10.37-5.39c0,0-1.45-5.19.62-6.22s14.73,3.11,14.73,3.11c0,0-3.53-4.56,1.45-4.77s13.49,6.02,14.11,12.24h0Z"/>
  <line id="Line_132" data-name="Line 132" class="cls-9" x1="205.24" y1="215.54" x2="231.7" y2="204.84"/>
  <path id="Path_351" data-name="Path 351" class="cls-9" d="m224.8,203.34c2.37-1.01,5.12.1,6.13,2.47.94,2.2.06,4.75-2.03,5.91"/>
  <path id="Path_352" data-name="Path 352" class="cls-12" d="m215.11,252.13s-.21-6.02-1.87-7.68-13.9-8.51-19.5-9.96-11.41.62-15.15,1.87-6.22,4.77-7.68,12.45-1.66,12.45,1.45,12.86,7.47-8.92,17.22-10.79,18.67-.21,20.74.83c1.51.61,3.18.76,4.77.41h0Z"/>
  <path id="Path_355" data-name="Path 355" class="cls-9" d="m183.6,245.77c-1.87.66-3.13,1.18-3.13,1.18"/>
  <path id="Path_356" data-name="Path 356" class="cls-9" d="m215.11,252.13s-13.07-7.26-17.84-8.71c-2.49-.76-6.96.24-10.67,1.37"/>
  <path id="Path_366" data-name="Path 366" class="cls-6" d="m276.72,285.86s-.68,4.32-1.48,4.8-.74-4.01-.74-4.01c-.41,1.13-.94,2.2-1.6,3.2-.61.62-.25-2.65-.25-2.65l.68-3.08,3.39,1.72h0Z"/>
  <path id="Path_367" data-name="Path 367" class="cls-6" d="m267.93,281.59l6.37.1s1.68.24,1.92,1.2c.34,1.06.74,2.1,1.2,3.12l-9.84-2.88.36-1.54h0Z"/>
  <path id="Path_368" data-name="Path 368" class="cls-6" d="m270.21,283.61s8.88-1.2,9.12-.48c.18.54.87,5.43,1.02,7,.01.14-.09.26-.22.27-.09,0-.17-.03-.22-.1l-2.49-4.29-6.72.48s-1.92-1.68-.48-2.88h0Z"/>
  <path id="Path_358" data-name="Path 358" class="cls-12" d="m196.49,256.72s-5.52,4.08-3.6,14.17,15.37,37.7,16.57,40.11,6.48,2.64,8.88,1.92,45.15-17.78,45.15-17.78c0,0,4.56-1.2,5.28-2.16s5.28-6,5.28-6c0,0,7.2.96,8.88.48s-1.68-.96-3.36-1.44c-1.3-.37-8.44-3.16-11.65-4.42-.94-.37-2.02-.14-2.73.58-2.25,2.3-7.04,7.2-7.96,7.92-1.2.96-35.06,6.72-35.06,6.72,0,0-7.92-37.22-11.04-40.35s-8.64-2.4-8.64-2.4"/>
  <path id="Path_365" data-name="Path 365" class="cls-6" d="m241.15,304.02c11.21-4.45,22.33-8.88,22.33-8.88,0,0,4.56-1.2,5.28-2.16s5.28-6,5.28-6c0,0,7.2.96,8.88.48s-1.68-.96-3.36-1.44c-1.3-.37-8.44-3.16-11.65-4.42-.94-.37-2.02-.14-2.73.58-2.25,2.3-7.04,7.2-7.96,7.92-.62.5-10.08,2.3-19.02,3.91l2.93,10.01h0Z"/>
  <path id="Path_379" data-name="Path 379" class="cls-7" d="m166.09,351.28l-10.46,69.52c-.04.31.17.6.49.64.27.04.52-.12.61-.37l15.76-68.65-6.4-1.15h0Z"/>
  <path id="Path_380" data-name="Path 380" class="cls-7" d="m181.7,351.74l4.55,68.93c.03.31.31.55.62.52.28-.03.51-.26.52-.54l.79-69.48-6.48.57h0Z"/>
  <path id="Path_381" data-name="Path 381" class="cls-7" d="m197.05,352.78l12.48,67.72c.07.31.37.5.68.43.28-.06.47-.32.44-.61l-7.27-69.02-6.33,1.48Z"/>
  <path id="Path_382" data-name="Path 382" class="cls-7" d="m221.18,352.21l10.21,68.19c.05.31.34.52.65.47.29-.05.5-.31.48-.61l-4.95-69.27-6.39,1.21h0Z"/>
  <path id="Path_362" data-name="Path 362" class="cls-18" d="m211.42,338.33s-12-4-17.61-18.41-14.81-39.22-21.21-42.43-18.81,2.8-19.61,26.02,1.08,40.49,6.25,46.18c4.57,5.03,12.35,11.43,39.33,11.89,24.09.41,33.93-8.77,37.27-11.89,3.43-3.2,8.81-9.75,4.4-9.75s-23.21,0-28.82-1.6h0Z"/>
  <g id="Butterfly">
    <path id="Path_95" data-name="Path 95" class="cls-6" d="m266.89,195.82s-4.68-5.47-11.2-6.51-6.95,8.47,1.39,12.64c2.33,1.07,4.92,1.48,7.47,1.17,0,0-6.64,7.85-2.35,9.11,9.64,2.82,7.55-11.98,7.55-11.98l-2.86-4.42h0Z"/>
    <path id="Path_96" data-name="Path 96" class="cls-6" d="m268.46,195.48s-2.74-6.66-.7-12.93,10.21-2.01,10.13,7.3c-.03,2.41-.68,4.77-1.87,6.86,0,0,10.47-2.23,9.18,2.07-2.93,9.75-14.1,1.27-14.1,1.27l-2.64-4.56Z"/>
    <path id="Path_97" data-name="Path 97" class="cls-16" d="m272.09,203.8c-.24,0-.47-.13-.59-.34l-6.51-10.93c-.19-.33-.08-.75.24-.94.33-.19.74-.09.94.24l6.51,10.93c.19.32.09.74-.24.94,0,0,0,0,0,0-.1.07-.23.1-.35.1h0Z"/>
    <path id="Path_98" data-name="Path 98" class="cls-9" d="m266.1,193.49s-2.35-4.95-6.51-5.47"/>
    <path id="Path_99" data-name="Path 99" class="cls-9" d="m266.17,191.83s-1.37-4.07-.33-6.68"/>
    <path id="Path_100" data-name="Path 100" class="cls-8" d="m262.02,196.46c-.25,1.21-2.04,1.87-4.02,1.47s-3.38-1.71-3.13-2.92,2.04-1.87,4.02-1.47,3.38,1.71,3.13,2.92Z"/>
    <path id="Path_101" data-name="Path 101" class="cls-8" d="m266.89,204.97c.7.46.66,1.76-.09,2.9s-1.92,1.69-2.62,1.24-.66-1.76.09-2.9,1.92-1.7,2.62-1.24Z"/>
    <path id="Path_102" data-name="Path 102" class="cls-8" d="m281.19,199.22c.01.84-1.08,1.53-2.45,1.54s-2.48-.64-2.49-1.48,1.08-1.53,2.45-1.54,2.48.65,2.49,1.48Z"/>
    <path id="Path_103" data-name="Path 103" class="cls-8" d="m272.74,192.06c-1.23.14-2.4-1.38-2.63-3.38s.6-3.74,1.83-3.88,2.4,1.38,2.63,3.38-.6,3.74-1.82,3.88h0Z"/>
  </g>
  <g id="Group_137" data-name="Group 137">
    <path id="Path_339" data-name="Path 339" class="cls-18" d="m320.93,275.81c1.24,3.04-.61,7.54-2.92,8.23-1.25.38-2.28-.49-3.18.22-.97.76-.23,2.13-.89,3.57-1.06,2.34-5,3.15-7.81,2.77-.45-.06-4.77-.71-6.44-4.01-1.47-2.92.68-4.85-.78-7.09-1.83-2.83-6.14-1.12-7.57-3.69-1.32-2.37.53-7.07,3.39-8.44,1.55-.74,3.02-.33,4.01-1.62.81-1.05.25-1.89.88-2.97,1.02-1.74,4.22-2.55,6.51-1.75,3.51,1.22,2.28,5.35,6.45,9.31,3.77,3.59,7.08,2.39,8.34,5.48h0Z"/>
    <path id="Path_340" data-name="Path 340" class="cls-17" d="m309.45,270.58c-.48,0-1.23-.04-2.23-.12-.98-.08-1.72-.11-2.23-.1h-.69c.02.95.11,2.48.26,4.6.14,1.98.22,3.52.21,4.61,0,.24.02.6.07,1.09s.07.85.07,1.1c.01.41-.06.82-.22,1.2-.1.39-.45.66-.85.68-.26,0-.51-.1-.7-.29-.21-.19-.32-.46-.31-.74,0-.16.02-.31.05-.46s.04-.31.05-.46c0-.33-.02-.84-.07-1.51s-.07-1.18-.07-1.52c0-.98-.07-2.36-.22-4.13-.16-1.92-.24-3.29-.26-4.13h-.89c-1.13.04-2.26-.07-3.36-.32-.48-.09-.82-.52-.79-1.01,0-.27.09-.53.25-.74.18-.23.46-.36.75-.33.23.01.75.08,1.56.19.52.07,1.05.11,1.58.12.4,0,.98,0,1.78-.03s1.39-.03,1.78-.03c.5,0,1.24.04,2.23.11s1.73.11,2.23.11c.27,0,.52.1.7.3.19.2.29.48.28.76,0,.28-.09.55-.28.75-.18.2-.43.31-.7.3h0Z"/>
    <path id="Path_341" data-name="Path 341" class="cls-19" d="m312.43,284.01c-1.12.66-2.41.96-3.7.88-.47,0-.94-.07-1.39-.19-.51-.1-.99-.3-1.41-.58h-.08c-.23,0-.44-.09-.6-.25-.16-.16-.24-.38-.24-.61,0-.58.03-1.45.08-2.62.05-1.16.08-2.03.08-2.62,0-.65-.01-1.62-.04-2.91s-.04-2.26-.04-2.91c.02-.27.15-.53.35-.71.17-.22.42-.35.7-.38.46.13.91.32,1.33.56.85.41,1.35.65,1.48.69,1.52.5,2.9,1.35,4.03,2.48,1.21,1.12,1.92,2.68,1.95,4.33,0,.95-.23,1.89-.67,2.73-.42.84-1.05,1.57-1.83,2.1Zm-1.75-8.8c-1.26-.72-2.57-1.36-3.92-1.92l.04,2.39.03,2.39-.13,4.54c.06.03.12.07.17.11.55.35,1.2.52,1.85.49.96.07,1.92-.13,2.76-.58.55-.38.99-.88,1.28-1.48.31-.6.48-1.26.48-1.93-.08-1.7-1.05-3.23-2.56-4.02h0Z"/>
  </g>
  <g id="Floor">
    <line id="Line_85" data-name="Line 85" class="cls-9" x1="1.08" y1="420.49" x2="504.97" y2="420.49"/>
  </g>
</svg>