<?xml version="1.0" encoding="UTF-8"?>
<svg id="Layer_1" data-name="Layer 1" xmlns="http://www.w3.org/2000/svg" viewBox="0 0 87.48 86.25">
  <defs>
    <style>
      .cls-1 {
        fill: #c30e59;
      }

      .cls-2 {
        fill: #f2ae66;
      }

      .cls-3 {
        fill: #382039;
      }
    </style>
  </defs>
  <g id="Group_115" data-name="Group 115">
    <path id="Path_104" data-name="Path 104" class="cls-2" d="m86.35,43.43c3.55,8.74-1.75,21.69-8.39,23.67-3.61,1.08-6.56-1.41-9.14.62-2.78,2.2-.67,6.12-2.56,10.28-3.06,6.72-14.38,9.08-22.46,7.98-1.3-.18-13.73-2.04-18.52-11.54-4.23-8.4,1.95-13.95-2.24-20.4-5.28-8.14-17.66-3.22-21.78-10.61-3.81-6.82,1.53-20.34,9.75-24.3,4.45-2.14,8.7-.96,11.54-4.66,2.32-3.03.71-5.44,2.53-8.55C28,.93,37.22-1.42,43.8.89c10.1,3.54,6.58,15.39,18.56,26.78,10.86,10.33,20.38,6.88,23.99,15.77h0Z"/>
    <path id="Path_105" data-name="Path 105" class="cls-1" d="m53.31,28.39c-1.39,0-3.52-.12-6.41-.35-2.81-.22-4.95-.32-6.41-.3h-1.99c.05,2.72.31,7.13.75,13.23.42,5.7.62,10.12.61,13.26,0,.69.07,1.74.2,3.13s.2,2.45.2,3.16c.03,1.18-.18,2.36-.62,3.46-.29,1.12-1.28,1.92-2.44,1.96-.76,0-1.48-.3-2.02-.83-.6-.54-.93-1.32-.9-2.13.01-.45.06-.89.14-1.33s.13-.89.14-1.33c0-.96-.07-2.42-.19-4.34s-.19-3.39-.19-4.37c0-2.82-.22-6.78-.65-11.88-.45-5.51-.7-9.47-.75-11.88l-2.56.03c-3.25.09-6.5-.23-9.67-.94-1.39-.25-2.37-1.51-2.27-2.92-.01-.77.25-1.53.73-2.13.51-.67,1.33-1.03,2.16-.94.66.04,2.15.22,4.49.54,1.51.21,3.03.33,4.55.35,1.16,0,2.83-.02,5.12-.08s3.99-.08,5.12-.08c1.44,0,3.58.11,6.42.33s4.97.33,6.42.33c.77-.01,1.51.31,2.02.88.55.59.85,1.37.82,2.18.03.8-.27,1.57-.82,2.14-.52.57-1.25.89-2.02.88h0Z"/>
    <path id="Path_106" data-name="Path 106" class="cls-3" d="m61.88,67.03c-2.47,1.69-6.02,2.54-10.65,2.54-1.35-.03-2.69-.21-4-.55-1.45-.28-2.84-.85-4.07-1.67h-.24c-.65.01-1.28-.25-1.73-.72-.45-.47-.7-1.1-.69-1.75,0-1.67.08-4.18.23-7.53.15-3.35.23-5.85.23-7.53,0-1.87-.04-4.65-.11-8.36s-.11-6.5-.11-8.36c.06-.79.42-1.52,1.01-2.06.49-.63,1.22-1.02,2.01-1.08,1.34.37,2.62.91,3.83,1.61,2.46,1.19,3.88,1.86,4.26,1.99,4.36,1.45,8.33,3.89,11.59,7.13,3.75,3.78,5.62,7.94,5.62,12.48,0,2.73-.66,5.43-1.93,7.85-1.21,2.43-3.03,4.5-5.26,6.04Zm-5.03-25.33c-3.64-2.07-7.4-3.91-11.27-5.51l.12,6.89.08,6.87-.38,13.07c.18.09.34.19.5.31,1.59.99,3.44,1.48,5.31,1.41,3.64,0,6.29-.56,7.95-1.67,1.58-1.08,2.85-2.54,3.7-4.25.9-1.72,1.38-3.63,1.38-5.57,0-4.51-2.46-8.36-7.37-11.56v.02Z"/>
  </g>
</svg>